<?xml version="1.0" encoding="utf-8"?>
<!-- Generator: Adobe Illustrator 28.1.0, SVG Export Plug-In . SVG Version: 6.00 Build 0)  -->
<svg version="1.1" id="Layer_1" xmlns="http://www.w3.org/2000/svg" xmlns:xlink="http://www.w3.org/1999/xlink" x="0px" y="0px"
	 viewBox="0 0 512 512" style="enable-background:new 0 0 512 512;" xml:space="preserve">
<style type="text/css">
	.st0{fill:none;}
	.st1{fill:#999999;}
	.st2{stroke:#000000;stroke-miterlimit:10;}
	.st3{fill:url(#SVGID_1_);stroke:#000000;stroke-miterlimit:10;}
</style>
<pattern  width="91.12" height="159.26" patternUnits="userSpaceOnUse" id="element_pattern" viewBox="10 -165.26 91.12 159.26" style="overflow:visible;">
	<g>
		<rect x="10" y="-165.26" class="st0" width="91.12" height="159.26"/>
		<g>
			<path class="st1" d="M102.95-61.56c0,0-2.12-0.92-5.26,2.93c0,0-2.01,3.09-2.01,4.77c0,0-1.46,1.74-2.44,1.74
				c0,0,3.36,0.98,4.86-1.19c0,0-0.19-1.95,2.03-3.39c0,0,1.82,0.05,1.59,1.59l-2.35,1.37c0,0,3.58,0,3.58,1.52
				c0,0,0.81,1.79,0,2.06c0,0-0.43-1.03-0.43,1.14c0,0,0.43,1.19-1.19,1.19c0,0-1.55,0.3-2.33,1.09c0,0,1.27-2.57,2.77-3.15
				s0-0.33,0-0.33s0.76-2.39-0.92-2.39c0,0-0.11,1.36-1.36,1.36c0,0-2.6-1.52-3.31,0c0,0-1.14,2.39-3.53,2.39
				c0,0,1.67,2.32,1.03,2.96c0,0,1.3,1.93,3.04,1.93L97.97-43c0,0,0.31-0.65-1.21-2.17c0,0-1.84-3.1,0.76-4.67
				c0,0,0.45-0.81,2.77-0.6c0,0-2.32,0.6-2.32,2.98c0,0,0.25,3.53,0.9,2.88c0,0-0.54-1.19,3.31-1.63c0,0,1.12,0.38,1.12-1.63
				c0,0,0.18-2.28,0.67,0c0.49,2.28,2.71-2.28,2.71-2.28s1.14-1.68-1.36-3.58c0,0-0.6-0.87-2.71-1.3c0,0,1.64-0.94-0.81-1.71
				C101.81-56.7,100.4-58.36,102.95-61.56z"/>
			<path class="st1" d="M106.95-49.24c0,0,0.66,4.29-1.45,5.59c0,0-1.37,1.52-4.45,1.09c0,0-0.81,1.52-1.9,1.52
				c0,0,0.43-3.64,1.68-3.64s0.27,0,0.27,0s2.37-0.07,3.53-1.22C104.63-45.9,106.72-47.02,106.95-49.24z"/>
			<path class="st1" d="M91.69-6.3c0,0-1.92-2.87,2.03-8.02c0,0,4.31-4.37,5.87-1.47l1.03,1.03c0,0,2.32-2.32,5.31,0.67
				c0,0,0.12,3.12-0.96,3.12l-1.19,1.19c0,0-0.01-2.87-1.68-2.87l-2.03-0.48l-0.9-0.9c0,0-3,0.03-5.45,2.48
				C93.72-11.54,91.69-7.73,91.69-6.3z"/>
			<path class="st1" d="M102.66-9.49v-1.13c0,0-1.93-2.59-6.58-0.58c0,0-3.59,2.85-2.75,6.8c0,0-0.72,2.21,3.83,1.71l1.51-1.35
				c0,0,0.89,4.53,4,4c0,0,2.51,0.37,4.31-2.65v-0.84c0,0,3.23-1.04,3.23-2.45c0,0,1.54-2.27,0.64-6.44c0,0-0.13-0.27-0.4,0.58
				c0,0,0.36,2.78-2.47,5.21c0,0,0.22,0.67-2.6,0.67c0,0,0.81,2.34-2.24,3.64c0,0-2.74,1.53-2.96-1.71c0,0,0.9-1.89-0.9-1.53
				c0,0-3.05,0.63-2.2-1.35c0,0,0.58-2.06,3.73-1.89c0,0-2.15,1.6-0.08,2.72c0.07,0.04,0.14,0.07,0.21,0.11
				c2.42,1.12,7.54-3.14,7.54-3.14s2.42-3.59,1.35-6.87c0,0-1.77-3.3-3.37-4.13c0,0,2.71,2.22,2.15,6.78c0,0-0.94,2.83-3.1,3.59
				c0,0-0.36,1.17-2.78,1.75c0,0-1.52,0.31-0.56-1.17L102.66-9.49z"/>
			<polygon class="st1" points="97.65,-81.59 100.49,-84.63 100.79,-84.63 103.83,-81.59 103.12,-80.88 101.09,-83.09 
				100.44,-83.09 98.22,-80.88 			"/>
			<polygon class="st1" points="93.33,-80.28 95.06,-78.55 93.94,-77.43 94.8,-76.57 95.29,-77.05 96.5,-75.83 97.65,-75.83 
				104.69,-68.79 106.57,-68.6 106.32,-70.38 99.17,-76.88 99.17,-77.68 98.3,-78.55 98.15,-79.41 98.52,-79.77 97.65,-80.88 
				96.33,-79.6 94.39,-81.54 			"/>
			<path class="st1" d="M95.16-76.57c0,0-1.38,1.24-1.12,1.5H90.7c0,0-0.76,0.73,0,1.49h3.2l1.67,1.7c0,0,1.42,0.29,0.71-0.86
				l-0.9-0.9c0,0-0.67-0.57,0.55-0.57h1.72v-0.37h-2.03c0,0-0.99,0.11-0.05-0.83l0.66-0.43L95.16-76.57z"/>
			<polygon class="st1" points="98.69,-73.9 100.36,-72.43 96.5,-68.7 94.42,-68.24 94.78,-70.07 			"/>
			<polygon class="st1" points="100.45,-70.77 100.45,-68.24 98.91,-69.78 97.64,-68.73 100.75,-65.64 103.77,-68.51 102.5,-69.78 
				100.96,-68.24 100.83,-70.77 			"/>
			<polygon class="st1" points="97.42,-67.65 96.56,-67.22 100.46,-63.34 104.98,-67.14 104.26,-67.86 100.84,-64.89 100.46,-64.89 
							"/>
			<polygon class="st1" points="100.68,-82.75 98.3,-80.52 99.32,-79.51 100.36,-80.55 100.36,-77.78 100.74,-77.78 100.74,-80.47 
				101.83,-79.38 103,-80.52 			"/>
			<polygon class="st1" points="100.36,-39.79 97.39,-34.54 99.56,-35.45 98.87,-33.63 100.01,-32.49 100.01,-30.2 98.87,-29.06 
				100.01,-27.92 100.01,-25.41 98.87,-24.27 99.56,-22.56 97.39,-23.81 100.36,-18.22 103.55,-23.36 101.73,-22.56 102.41,-24.04 
				101.1,-25.35 101.1,-28.15 101.95,-29.01 100.9,-30.06 100.9,-32.6 102.17,-33.87 101.61,-34.88 103.55,-34.43 			"/>
			<path class="st1" d="M91.43-34.68l4.96,0.63l-1.83,0.68l1.83,0.46v1.26l1.03,1.03l0.46-2.57l1.08,1.03v2.57l-0.77-0.77
				c0,0-0.26,1.28,0.14,1.37l-0.23,1.46l0.86-0.46v1.94l-0.57,1.14c0,0-1.14-0.11-1.14-2.23l-0.97,0.74v1.48h-1.54l1.6,1.14
				l-5.31,0.46l2.51-4.62v1.83l1.08-1.14l1.2,0.34l0.66-0.66c0,0-2.77-0.37-2.77-1.43c0,0,1.2-1.06,2.97-1.34
				c0,0,0.23-0.97-2.23-0.34l-0.68-1.26v1.83L91.43-34.68z"/>
		</g>
		<g>
			<path class="st1" d="M80.17-21.74c0,0-2.12-0.92-5.26,2.93c0,0-2.01,3.09-2.01,4.77c0,0-1.46,1.74-2.44,1.74
				c0,0,3.36,0.98,4.86-1.19c0,0-0.19-1.95,2.03-3.39c0,0,1.82,0.05,1.59,1.59l-2.35,1.37c0,0,3.58,0,3.58,1.52
				c0,0,0.81,1.79,0,2.06c0,0-0.43-1.03-0.43,1.14c0,0,0.43,1.19-1.19,1.19c0,0-1.55,0.3-2.33,1.09c0,0,1.27-2.57,2.77-3.15
				c1.5-0.58,0-0.33,0-0.33s0.76-2.39-0.92-2.39c0,0-0.11,1.36-1.36,1.36c0,0-2.6-1.52-3.31,0c0,0-1.14,2.39-3.53,2.39
				c0,0,1.67,2.32,1.03,2.96c0,0,1.3,1.93,3.04,1.93l1.27,0.98c0,0,0.31-0.65-1.21-2.17c0,0-1.84-3.1,0.76-4.67
				c0,0,0.45-0.81,2.77-0.6c0,0-2.32,0.6-2.32,2.98c0,0,0.25,3.53,0.9,2.88c0,0-0.54-1.19,3.31-1.63c0,0,1.12,0.38,1.12-1.63
				c0,0,0.18-2.28,0.67,0c0.49,2.28,2.71-2.28,2.71-2.28s1.14-1.68-1.36-3.58c0,0-0.6-0.87-2.71-1.3c0,0,1.64-0.94-0.81-1.71
				C79.03-16.89,77.62-18.54,80.17-21.74z"/>
			<path class="st1" d="M84.17-9.43c0,0,0.66,4.29-1.45,5.59c0,0-1.37,1.52-4.45,1.09c0,0-0.81,1.52-1.9,1.52
				c0,0,0.43-3.64,1.68-3.64c1.25,0,0.27,0,0.27,0s2.37-0.07,3.53-1.22C81.85-6.09,83.94-7.2,84.17-9.43z"/>
			<polygon class="st1" points="74.86,-41.77 77.71,-44.82 78.01,-44.82 81.05,-41.77 80.34,-41.06 78.31,-43.27 77.65,-43.27 
				75.44,-41.06 			"/>
			<path class="st1" d="M83.27-35.83l0.8-0.77l1.49,1.49h3.62c0,0,0.48,1.49,0,1.49c-0.48,0-3.57,0-3.57,0s-0.64,1.94-1.94,1.94
				l-0.93-0.7c0,0,1.55-0.79,1.55-1.76h-2.5v-0.37h2.45C84.23-34.5,84.82-34.64,83.27-35.83z"/>
			<polygon class="st1" points="70.55,-40.47 72.28,-38.74 71.16,-37.62 72.02,-36.75 72.51,-37.23 73.72,-36.02 74.86,-36.02 
				81.9,-28.98 83.79,-28.78 83.54,-30.56 76.39,-37.07 76.39,-37.87 75.51,-38.74 75.37,-39.59 75.74,-39.96 74.86,-41.06 
				73.55,-39.79 71.61,-41.72 			"/>
			<path class="st1" d="M72.38-36.75c0,0-1.38,1.24-1.12,1.5h-3.35c0,0-0.76,0.73,0,1.49h3.2l1.67,1.7c0,0,1.42,0.29,0.71-0.86
				l-0.9-0.9c0,0-0.67-0.57,0.55-0.57h1.72v-0.37h-2.03c0,0-0.99,0.11-0.05-0.83l0.66-0.43L72.38-36.75z"/>
			<polygon class="st1" points="82.67,-40.01 84.34,-42.04 85.56,-40.79 83.83,-39.06 85.31,-37.83 84.39,-36.92 83.63,-37.38 
				82.31,-36.06 81.2,-36.06 80.02,-34.89 78.58,-36.34 79.62,-37.38 79.62,-38.18 80.74,-39.06 80.74,-39.76 80.22,-40.27 
				81.33,-41.38 			"/>
			<polygon class="st1" points="75.9,-34.08 77.58,-32.62 73.72,-28.88 71.64,-28.43 72,-30.25 			"/>
			<polygon class="st1" points="77.67,-30.96 77.67,-28.43 76.13,-29.96 74.86,-28.92 77.97,-25.82 80.99,-28.69 79.72,-29.97 
				78.18,-28.43 78.05,-30.96 			"/>
			<polygon class="st1" points="74.64,-27.83 73.78,-27.4 77.68,-23.53 82.2,-27.33 81.48,-28.05 78.06,-25.08 77.68,-25.08 			"/>
			<polygon class="st1" points="77.9,-42.94 75.52,-40.71 76.54,-39.69 77.58,-40.73 77.58,-37.97 77.96,-37.97 77.96,-40.66 
				79.05,-39.57 80.22,-40.71 			"/>
		</g>
		<g>
			<path class="st1" d="M11.82-61.56c0,0-2.12-0.92-5.26,2.93c0,0-2.01,3.09-2.01,4.77c0,0-1.46,1.74-2.44,1.74
				c0,0,3.36,0.98,4.86-1.19c0,0-0.19-1.95,2.03-3.39c0,0,1.82,0.05,1.59,1.59l-2.35,1.37c0,0,3.58,0,3.58,1.52
				c0,0,0.81,1.79,0,2.06c0,0-0.43-1.03-0.43,1.14c0,0,0.43,1.19-1.19,1.19c0,0-1.55,0.3-2.33,1.09c0,0,1.27-2.57,2.77-3.15
				s0-0.33,0-0.33s0.76-2.39-0.92-2.39c0,0-0.11,1.36-1.36,1.36c0,0-2.6-1.52-3.31,0c0,0-1.14,2.39-3.53,2.39
				c0,0,1.67,2.32,1.03,2.96c0,0,1.3,1.93,3.04,1.93L6.85-43c0,0,0.31-0.65-1.21-2.17c0,0-1.84-3.1,0.76-4.67
				c0,0,0.45-0.81,2.77-0.6c0,0-2.32,0.6-2.32,2.98c0,0,0.25,3.53,0.9,2.88c0,0-0.54-1.19,3.31-1.63c0,0,1.12,0.38,1.12-1.63
				c0,0,0.18-2.28,0.67,0c0.49,2.28,2.71-2.28,2.71-2.28s1.14-1.68-1.36-3.58c0,0-0.6-0.87-2.71-1.3c0,0,1.64-0.94-0.81-1.71
				C10.68-56.7,9.27-58.36,11.82-61.56z"/>
			<path class="st1" d="M15.83-49.24c0,0,0.66,4.29-1.45,5.59c0,0-1.37,1.52-4.45,1.09c0,0-0.81,1.52-1.9,1.52
				c0,0,0.43-3.64,1.68-3.64s0.27,0,0.27,0s2.37-0.07,3.53-1.22C13.51-45.9,15.6-47.02,15.83-49.24z"/>
			<path class="st1" d="M0.56-6.3c0,0-1.92-2.87,2.03-8.02c0,0,4.31-4.37,5.87-1.47l1.03,1.03c0,0,2.32-2.32,5.31,0.67
				c0,0,0.12,3.12-0.96,3.12l-1.19,1.19c0,0-0.01-2.87-1.68-2.87l-2.03-0.48l-0.9-0.9c0,0-3,0.03-5.45,2.48
				C2.6-11.54,0.56-7.73,0.56-6.3z"/>
			<path class="st1" d="M11.54-9.49v-1.13c0,0-1.93-2.59-6.58-0.58c0,0-3.59,2.85-2.75,6.8c0,0-0.72,2.21,3.83,1.71l1.51-1.35
				c0,0,0.89,4.53,4,4c0,0,2.51,0.37,4.31-2.65v-0.84c0,0,3.23-1.04,3.23-2.45c0,0,1.54-2.27,0.64-6.44c0,0-0.13-0.27-0.4,0.58
				c0,0,0.36,2.78-2.47,5.21c0,0,0.22,0.67-2.6,0.67c0,0,0.81,2.34-2.24,3.64c0,0-2.74,1.53-2.96-1.71c0,0,0.9-1.89-0.9-1.53
				c0,0-3.05,0.63-2.2-1.35c0,0,0.58-2.06,3.73-1.89c0,0-2.15,1.6-0.08,2.72C9.66-6.03,9.73-5.99,9.8-5.96
				c2.42,1.12,7.54-3.14,7.54-3.14s2.42-3.59,1.35-6.87c0,0-1.77-3.3-3.37-4.13c0,0,2.71,2.22,2.15,6.78c0,0-0.94,2.83-3.1,3.59
				c0,0-0.36,1.17-2.78,1.75c0,0-1.52,0.31-0.56-1.17L11.54-9.49z"/>
			<polygon class="st1" points="6.52,-81.59 9.36,-84.63 9.67,-84.63 12.71,-81.59 12,-80.88 9.97,-83.09 9.31,-83.09 7.1,-80.88 
							"/>
			<path class="st1" d="M14.93-75.64l0.8-0.77l1.49,1.49h3.62c0,0,0.48,1.49,0,1.49c-0.48,0-3.57,0-3.57,0s-0.64,1.94-1.94,1.94
				l-0.93-0.7c0,0,1.55-0.79,1.55-1.76h-2.5v-0.37h2.45C15.88-74.32,16.48-74.46,14.93-75.64z"/>
			<polygon class="st1" points="2.21,-80.28 3.94,-78.55 2.81,-77.43 3.68,-76.57 4.16,-77.05 5.38,-75.83 6.52,-75.83 
				13.56,-68.79 15.45,-68.6 15.2,-70.38 8.04,-76.88 8.04,-77.68 7.17,-78.55 7.03,-79.41 7.4,-79.77 6.52,-80.88 5.2,-79.6 
				3.27,-81.54 			"/>
			<polygon class="st1" points="14.33,-79.82 16,-81.85 17.22,-80.6 15.49,-78.87 16.96,-77.64 16.05,-76.73 15.29,-77.2 
				13.96,-75.87 12.85,-75.87 11.68,-74.7 10.23,-76.15 11.28,-77.2 11.28,-78 12.4,-78.87 12.4,-79.57 11.88,-80.09 12.99,-81.19 
							"/>
			<polygon class="st1" points="9.33,-70.77 9.33,-68.24 7.79,-69.78 6.52,-68.73 9.62,-65.64 12.65,-68.51 11.38,-69.78 
				9.84,-68.24 9.71,-70.77 			"/>
			<polygon class="st1" points="6.3,-67.65 5.44,-67.22 9.34,-63.34 13.86,-67.14 13.13,-67.86 9.72,-64.89 9.34,-64.89 			"/>
			<polygon class="st1" points="9.55,-82.75 7.18,-80.52 8.2,-79.51 9.24,-80.55 9.24,-77.78 9.62,-77.78 9.62,-80.47 10.71,-79.38 
				11.88,-80.52 			"/>
			<polygon class="st1" points="9.23,-39.79 6.26,-34.54 8.43,-35.45 7.75,-33.63 8.89,-32.49 8.89,-30.2 7.75,-29.06 8.89,-27.92 
				8.89,-25.41 7.75,-24.27 8.43,-22.56 6.26,-23.81 9.23,-18.22 12.43,-23.36 10.6,-22.56 11.29,-24.04 9.97,-25.35 9.97,-28.15 
				10.83,-29.01 9.77,-30.06 9.77,-32.6 11.04,-33.87 10.49,-34.88 12.43,-34.43 			"/>
			<path class="st1" d="M13.88-34.11l4.91-0.57l-2.45,4.62V-32l-0.91,1.31h-1.54l-0.46,0.46l2.68,0.8v0.57l-2.68,1.26l0.74,0.51h1.2
				l0.74,0.74v-1.43l2.68,4.45l-5.36-0.4l1.11-1.11h-0.83v-1.34l-0.94-0.94l-0.66,2.54c0,0-1.28,0.34-1.28-4.02s0,0,0,0l0.8,0.8
				l0.2-2.14l-0.57,0.57c0,0-1.08-1.77,0.63-3.48l0.8,1.83l0.91-0.4v-1.6h1.71l-1.43-0.4V-34.11z"/>
		</g>
		<g>
			<path class="st1" d="M103.69-141.04l-1.45,3.65l1.39-1.39l0.63-2.83l1.2-5.37l0.13-0.6l1.53,4.28v-2.17l1.01-1.01l-1.04-2.14
				l-2.08-0.35l0.35-1.97l-2.84-4.57l4.34,4.34v1.04l4.26,1.82l-1.82,1.82c0,1.45-1.04,5.76-1.04,5.76l-2.43-3.27l-1.04,5.09
				l1.62,0.35l-3.94,1.97l-1.16,1.16l-2.55-2.55l-3.82-2.72l2.08-0.03c-0.42,0.42,0-3.27,0-3.27l-1.39-2.49l-1.97,3.42L92.51-147
				l-1.39-0.93l2.08-0.81l1.62-0.93l3.94-4.86l-2.63,5.91h-1.82v2.14l2.56-2.88l0.56,4.99l1.61,1.61l-0.39,2.74l0.87,0.87l2-3.65
				l-1.91-1.91c0,0,1.43-2.3,0.69-3.04l-1.74,0.87l2.56-10.54v8.28c0,0,2.39,0.17,2.39-0.52c0,0-1.48,4.08-1.48,3.65l2,2.95"/>
			<path class="st1" d="M102.66-168.75v-1.13c0,0-1.93-2.59-6.58-0.58c0,0-3.59,2.85-2.75,6.8c0,0-0.72,2.21,3.83,1.71l1.51-1.35
				c0,0,0.89,4.53,4,4c0,0,2.51,0.37,4.31-2.65v-0.84c0,0,3.23-1.04,3.23-2.45c0,0,1.54-2.27,0.64-6.44c0,0-0.13-0.27-0.4,0.58
				c0,0,0.36,2.78-2.47,5.21c0,0,0.22,0.67-2.6,0.67c0,0,0.81,2.34-2.24,3.64c0,0-2.74,1.53-2.96-1.71c0,0,0.9-1.89-0.9-1.53
				c0,0-3.05,0.63-2.2-1.35c0,0,0.58-2.06,3.73-1.89c0,0-2.15,1.6-0.08,2.72c0.07,0.04,0.14,0.07,0.21,0.11
				c2.42,1.12,7.54-3.14,7.54-3.14s2.42-3.59,1.35-6.87c0,0-1.77-3.3-3.37-4.13c0,0,2.71,2.22,2.15,6.78c0,0-0.94,2.83-3.1,3.59
				c0,0-0.36,1.17-2.78,1.75c0,0-1.52,0.31-0.56-1.17L102.66-168.75z"/>
			<path class="st1" d="M99.27-120.59c0,0-3.08,0.73-3.27,3.16c0,0,1.14,0.08,2.26-1C99.38-119.51,99.27-120.59,99.27-120.59z"/>
			<path class="st1" d="M95.43-117.39c0,0-1.75,0.32-1,1.57c0,0,0.54-0.08,1-0.52C95.88-116.79,95.43-117.39,95.43-117.39z"/>
			<path class="st1" d="M97.44-120.91l-5.44,0.32c0,0-2.44-0.98-0.17-1.51h3.52c0,0-5.39-0.1-5-0.47c0,0-1.39-0.18-0.02-1.16
				c0,0,0.61-0.24,1.58,0l2.53-0.11c0,0-2.39-1.28,0.2-0.99l1.15,0.49c0,0-3.34-1.27-2.96-2.41c0,0,3.83,0.73,5.79,2.62
				c0,0,0.84,0.44-0.3,0.64l-0.9-0.19c0,0,2.04,0.42,2.04,1.57c0,0-0.82,0.25-2.04,0.25l0.6,0.16
				C98.04-121.68,98.57-121.44,97.44-120.91z"/>
			<path class="st1" d="M98.44-129.73c0,0,0.29-2.22,0.79,0l0.42,1.29l-0.42-2.27c0,0,0.54-3.32,1.23,0l0.32,1.63v-4.58
				c0,0,0.58-1.15,1.05,0.16v1.13c0,0,0.42-0.5,0.42,0.41v3.52l0.26-2.84c0,0,0.64-1.13,1.17,0.43c0,0-0.48,6.27-1.13,6.5
				c-0.64,0.23-0.64-1.52-0.64-1.52v2.06c0,0-0.08,1.6-1.29,0v-1.56c0,0-0.24,1.25-0.89-0.08
				C99.73-125.44,98.18-129.47,98.44-129.73z"/>
			<path class="st1" d="M99.12-125.59c0,0-0.26-2.34-3.12-3.54C96-129.14,96.45-125.9,99.12-125.59z"/>
			<path class="st1" d="M100.3-121.48v6.28l-1.26,1.22l-1.99,1.33c0,0-1.39,0.16,0,0.75h8.49c0,0,1.25-0.72,0-1.05
				c0,0-2.08-0.16-2.91-2.49v-5.71c0,0,1.25-2.01-0.79-0.76l-0.57,0.28l-0.4-0.39C100.87-122.03,99.01-122.73,100.3-121.48z"/>
			<path class="st1" d="M101.86-108.21l0,6.57c0.1,0.33,0.62,0.65,0.43,0.55c-0.61-0.31,2.85,0.11,2.89,2.79c0,0.05,0-0.05,0,0
				c0,0.4,0.45,2.05-1.12,3.02c0,0-0.61,0.71-1.85,0.59c-0.31-0.03-0.57,0.19-0.57,0.5v0.36c0,0.39,0.41,0.63,0.75,0.46
				c1.05-0.55,2.88-1.67,3.3-2.97c0,0,1.09-2.41-0.88-4.38c0,0-0.86-0.83-2.13-1.18c-0.23-0.06-0.39-0.26-0.39-0.5v-1.19
				c0-0.35,0.34-0.6,0.67-0.49c1.47,0.48,4.88,1.89,5.35,4.67c0,0,1.35,4.11-1.85,6.36c-0.04,0.03-0.08,0.05-0.13,0.07
				c-0.55,0.19-4.24,1.55-4.69,4.48l0,0l-0.6,1.48c-0.04,0.65-0.5,0.48-0.51-0.18l-0.14-6.98c-0.01-0.29-0.23-0.52-0.51-0.55
				c-0.81-0.09-2.72-0.87-2.82-3.37c-0.03-0.8-0.02-0.11,0.01-0.23c0.21-0.83,0.72-2.28,2.95-2.73c0.24-0.05,0.42-0.26,0.42-0.5
				v-0.29c0-0.4-0.44-0.65-0.78-0.44c-1,0.62-2.66,1.85-3.2,3.51c-0.01,0.03-0.02,0.06-0.02,0.09c-0.05,0.38-0.3,2.92,1.76,4.38
				c0,0,0.14,0.19,1.47,0.65c0.2,0.07,0.34,0.26,0.35,0.47l0.03,1.29c0.01,0.34-0.32,0.6-0.65,0.51c-1.51-0.41-5.15-1.82-5.89-6.06
				c0-0.03-0.01-0.05-0.01-0.08c-0.01-0.42,0.04-4.03,3.68-5.75c0.03-0.01,0.05-0.02,0.08-0.03c0.33-0.09,2.61-0.77,3.02-3.05
				c0,0,0.13-1.3,0.64-2.12C101.19-108.93,101.86-108.73,101.86-108.21z"/>
			<path d="M100.16-100.2v4.68c0,0-2.79-0.72-2.19-2.72C97.97-98.24,98.3-100.2,100.16-100.2z"/>
		</g>
		<g>
			<path class="st1" d="M80.17-181c0,0-2.12-0.92-5.26,2.93c0,0-2.01,3.09-2.01,4.77c0,0-1.46,1.74-2.44,1.74
				c0,0,3.36,0.98,4.86-1.19c0,0-0.19-1.95,2.03-3.39c0,0,1.82,0.05,1.59,1.59l-2.35,1.37c0,0,3.58,0,3.58,1.52
				c0,0,0.81,1.79,0,2.06c0,0-0.43-1.03-0.43,1.14c0,0,0.43,1.19-1.19,1.19c0,0-1.55,0.3-2.33,1.09c0,0,1.27-2.57,2.77-3.15
				c1.5-0.58,0-0.33,0-0.33s0.76-2.39-0.92-2.39c0,0-0.11,1.36-1.36,1.36c0,0-2.6-1.52-3.31,0c0,0-1.14,2.39-3.53,2.39
				c0,0,1.67,2.32,1.03,2.96c0,0,1.3,1.93,3.04,1.93l1.27,0.98c0,0,0.31-0.65-1.21-2.17c0,0-1.84-3.1,0.76-4.67
				c0,0,0.45-0.81,2.77-0.6c0,0-2.32,0.6-2.32,2.98c0,0,0.25,3.53,0.9,2.88c0,0-0.54-1.19,3.31-1.63c0,0,1.12,0.38,1.12-1.63
				c0,0,0.18-2.28,0.67,0c0.49,2.28,2.71-2.28,2.71-2.28s1.14-1.68-1.36-3.58c0,0-0.6-0.87-2.71-1.3c0,0,1.64-0.94-0.81-1.71
				C79.03-176.14,77.62-177.8,80.17-181z"/>
			<path class="st1" d="M84.17-168.68c0,0,0.66,4.29-1.45,5.59c0,0-1.37,1.52-4.45,1.09c0,0-0.81,1.52-1.9,1.52
				c0,0,0.43-3.64,1.68-3.64c1.25,0,0.27,0,0.27,0s2.37-0.07,3.53-1.22C81.85-165.35,83.94-166.46,84.17-168.68z"/>
			<path class="st1" d="M80.91-101.22l-1.45,3.65l1.39-1.39l0.63-2.83l1.2-5.37l0.13-0.6l1.53,4.28v-2.17l1.01-1.01l-1.04-2.14
				l-2.08-0.35l0.35-1.97l-2.84-4.57l4.34,4.34v1.04l4.26,1.82l-1.82,1.82c0,1.45-1.04,5.76-1.04,5.76l-2.43-3.27l-1.04,5.09
				l1.62,0.35l-3.94,1.97l-1.16,1.16l-2.55-2.55l-3.82-2.72l2.08-0.03c-0.42,0.42,0-3.27,0-3.27l-1.39-2.49l-1.97,3.42l-1.16-3.94
				l-1.39-0.93l2.08-0.81l1.62-0.93l3.94-4.86l-2.63,5.91h-1.82v2.14l2.56-2.88l0.56,4.99l1.61,1.61l-0.39,2.74l0.87,0.87l2-3.65
				l-1.91-1.91c0,0,1.43-2.3,0.69-3.04l-1.74,0.87l2.56-10.54v8.28c0,0,2.39,0.17,2.39-0.52c0,0-1.48,4.08-1.48,3.65l2,2.95"/>
			<path class="st1" d="M68.91-125.74c0,0-1.92-2.87,2.03-8.02c0,0,4.31-4.37,5.87-1.47l1.03,1.03c0,0,2.32-2.32,5.31,0.67
				c0,0,0.12,3.12-0.96,3.12L81-129.21c0,0-0.01-2.87-1.68-2.87l-2.03-0.48l-0.9-0.9c0,0-3,0.03-5.45,2.48
				C70.94-130.98,68.91-127.18,68.91-125.74z"/>
			<path class="st1" d="M79.88-128.93v-1.13c0,0-1.93-2.59-6.58-0.58c0,0-3.59,2.85-2.75,6.8c0,0-0.72,2.21,3.83,1.71l1.51-1.35
				c0,0,0.89,4.53,4,4c0,0,2.51,0.37,4.31-2.65v-0.84c0,0,3.23-1.04,3.23-2.45c0,0,1.54-2.27,0.64-6.44c0,0-0.13-0.27-0.4,0.58
				c0,0,0.36,2.78-2.47,5.21c0,0,0.22,0.67-2.6,0.67c0,0,0.81,2.34-2.24,3.64c0,0-2.74,1.53-2.96-1.71c0,0,0.9-1.89-0.9-1.53
				c0,0-3.05,0.63-2.2-1.35c0,0,0.58-2.06,3.73-1.89c0,0-2.15,1.6-0.08,2.72c0.07,0.04,0.14,0.07,0.21,0.11
				c2.42,1.12,7.54-3.14,7.54-3.14s2.42-3.59,1.35-6.87c0,0-1.77-3.3-3.37-4.13c0,0,2.71,2.22,2.15,6.78c0,0-0.94,2.83-3.1,3.59
				c0,0-0.36,1.17-2.78,1.75c0,0-1.52,0.31-0.56-1.17L79.88-128.93z"/>
			<path class="st1" d="M76.49-80.77c0,0-3.08,0.73-3.27,3.16c0,0,1.14,0.08,2.26-1C76.59-79.69,76.49-80.77,76.49-80.77z"/>
			<path class="st1" d="M80.68-80.77c0,0,0.62,3.01,3.12,3.3c0,0,0.14-1.1-0.93-2.23S80.68-80.77,80.68-80.77z"/>
			<path class="st1" d="M72.65-77.58c0,0-1.75,0.32-1,1.57c0,0,0.54-0.08,1-0.52S72.65-77.58,72.65-77.58z"/>
			<path class="st1" d="M74.66-81.09l-5.44,0.32c0,0-2.44-0.98-0.17-1.51h3.52c0,0-5.39-0.1-5-0.47c0,0-1.39-0.18-0.02-1.16
				c0,0,0.61-0.24,1.58,0l2.53-0.11c0,0-2.39-1.28,0.2-0.99l1.15,0.49c0,0-3.34-1.27-2.96-2.41c0,0,3.83,0.73,5.79,2.62
				c0,0,0.84,0.44-0.3,0.64l-0.9-0.19c0,0,2.04,0.42,2.04,1.57c0,0-0.82,0.25-2.04,0.25l0.6,0.16
				C75.26-81.87,75.79-81.62,74.66-81.09z"/>
			<path class="st1" d="M81.11-84.31c0,0,3.93-2.83,6.04-2.34c0,0,0.21,0.82-3.02,1.96l1.92-0.49c0,0,0.98,0.85-0.73,1.32
				c0,0,2.63-0.67,4.28,0.47c0,0,0.8,0.49-1.52,0.86h-3.49c0,0,5.56,0.41,4,1.14c0,0,1.04,0.65-6.34,0.29c0,0-0.64-0.32,0-0.94
				h-1.13c0,0-1.71-0.63,0-1.14c0,0,2.62-0.92,0.04-0.67C81.16-83.84,80.85-84.13,81.11-84.31z"/>
			<path class="st1" d="M75.66-89.91c0,0,0.29-2.22,0.79,0l0.42,1.29l-0.42-2.27c0,0,0.54-3.32,1.23,0L78-89.27v-4.58
				c0,0,0.58-1.15,1.05,0.16v1.13c0,0,0.42-0.5,0.42,0.41v3.52l0.26-2.84c0,0,0.64-1.13,1.17,0.43c0,0-0.48,6.27-1.13,6.5
				s-0.64-1.52-0.64-1.52v2.06c0,0-0.08,1.6-1.29,0v-1.56c0,0-0.24,1.25-0.89-0.08C76.95-85.63,75.4-89.66,75.66-89.91z"/>
			<path class="st1" d="M76.34-85.78c0,0-0.26-2.34-3.12-3.54C73.22-89.32,73.66-86.09,76.34-85.78z"/>
			<path class="st1" d="M77.52-81.66v6.28l-1.26,1.22l-1.99,1.33c0,0-1.39,0.16,0,0.75h8.49c0,0,1.25-0.72,0-1.05
				c0,0-2.08-0.16-2.91-2.49v-5.71c0,0,1.25-2.01-0.79-0.76l-0.57,0.28l-0.4-0.39C78.09-82.21,76.23-82.91,77.52-81.66z"/>
			<path class="st1" d="M84.14-77.28c0,0,0.3,1.7,1.61,0.99c0,0-0.07-0.52-0.52-0.97C84.78-77.72,84.14-77.28,84.14-77.28z"/>
			<path class="st1" d="M83.81-89.26c0,0-2.37,0.54-3.26,3.43C80.55-85.84,83.81-86.66,83.81-89.26z"/>
			<path class="st1" d="M79.08-68.4l0,6.57c0.1,0.33,0.62,0.65,0.43,0.55c-0.61-0.31,2.85,0.11,2.89,2.79c0,0.05,0-0.05,0,0
				c0,0.4,0.45,2.05-1.12,3.02c0,0-0.61,0.71-1.85,0.59c-0.31-0.03-0.57,0.19-0.57,0.5v0.36c0,0.39,0.41,0.63,0.75,0.46
				c1.05-0.55,2.88-1.67,3.3-2.97c0,0,1.09-2.41-0.88-4.38c0,0-0.86-0.83-2.13-1.18c-0.23-0.06-0.39-0.26-0.39-0.5l0-1.19
				c0-0.35,0.34-0.6,0.67-0.49c1.47,0.48,4.88,1.89,5.35,4.67c0,0,1.35,4.11-1.85,6.36c-0.04,0.03-0.08,0.05-0.13,0.07
				c-0.55,0.19-4.24,1.55-4.69,4.48l0,0l-0.6,1.48c-0.04,0.65-0.5,0.48-0.51-0.18l-0.14-6.98c-0.01-0.29-0.23-0.52-0.51-0.55
				c-0.81-0.09-2.72-0.87-2.82-3.37c-0.03-0.8-0.02-0.11,0.01-0.23c0.21-0.83,0.72-2.28,2.95-2.73c0.24-0.05,0.42-0.26,0.42-0.5
				v-0.29c0-0.4-0.44-0.65-0.78-0.44c-1,0.62-2.66,1.85-3.2,3.51c-0.01,0.03-0.02,0.06-0.02,0.09c-0.05,0.38-0.3,2.92,1.76,4.38
				c0,0,0.14,0.19,1.47,0.65c0.2,0.07,0.34,0.26,0.35,0.47l0.03,1.29c0.01,0.34-0.32,0.6-0.65,0.51c-1.51-0.41-5.15-1.82-5.89-6.06
				c0-0.03-0.01-0.05-0.01-0.08c-0.01-0.42,0.04-4.03,3.68-5.75c0.03-0.01,0.05-0.02,0.08-0.03c0.33-0.09,2.61-0.77,3.02-3.05
				c0,0,0.13-1.3,0.64-2.12C78.4-69.11,79.08-68.92,79.08-68.4z"/>
			<path d="M77.38-60.38v4.68c0,0-2.79-0.72-2.19-2.72C75.19-58.43,75.52-60.38,77.38-60.38z"/>
			<path d="M79.17-55.69l-0.07-4.68c0,0,2.8,0.68,2.23,2.69C81.32-57.68,81.03-55.72,79.17-55.69z"/>
			<polygon class="st1" points="77.57,-159.23 74.61,-153.98 76.78,-154.9 76.09,-153.07 77.23,-151.93 77.23,-149.65 76.09,-148.5 
				77.23,-147.36 77.23,-144.85 76.09,-143.71 76.78,-142 74.61,-143.25 77.57,-137.66 80.77,-142.8 78.94,-142 79.63,-143.48 
				78.32,-144.8 78.32,-147.59 79.17,-148.45 78.12,-149.5 78.12,-152.04 79.39,-153.31 78.83,-154.33 80.77,-153.87 			"/>
			<path class="st1" d="M68.65-154.13l4.96,0.63l-1.83,0.68l1.83,0.46v1.26l1.03,1.03l0.46-2.57l1.08,1.03v2.57l-0.77-0.77
				c0,0-0.26,1.28,0.14,1.37l-0.23,1.46l0.86-0.46v1.94l-0.57,1.14c0,0-1.14-0.11-1.14-2.23l-0.97,0.74v1.48h-1.54l1.6,1.14
				l-5.31,0.46l2.51-4.62v1.83l1.08-1.14l1.2,0.34l0.66-0.66c0,0-2.77-0.37-2.77-1.43c0,0,1.2-1.06,2.97-1.34
				c0,0,0.23-0.97-2.23-0.34l-0.68-1.26v1.83L68.65-154.13z"/>
			<path class="st1" d="M82.23-153.56l4.91-0.57l-2.45,4.62v-1.94l-0.91,1.31h-1.54l-0.46,0.46l2.68,0.8v0.57l-2.68,1.26l0.74,0.51
				h1.2l0.74,0.74v-1.43l2.68,4.45l-5.36-0.4l1.11-1.11h-0.83v-1.34l-0.94-0.94l-0.66,2.54c0,0-1.28,0.34-1.28-4.02s0,0,0,0l0.8,0.8
				l0.2-2.14l-0.57,0.57c0,0-1.08-1.77,0.63-3.48l0.8,1.83l0.91-0.4v-1.6h1.71l-1.43-0.4V-153.56z"/>
		</g>
		<g>
			<path class="st1" d="M57.39-141.19c0,0-2.12-0.92-5.26,2.93c0,0-2.01,3.09-2.01,4.77c0,0-1.46,1.74-2.44,1.74
				c0,0,3.36,0.98,4.86-1.19c0,0-0.19-1.95,2.03-3.39c0,0,1.82,0.05,1.59,1.59l-2.35,1.37c0,0,3.58,0,3.58,1.52
				c0,0,0.81,1.79,0,2.06c0,0-0.43-1.03-0.43,1.14c0,0,0.43,1.19-1.19,1.19c0,0-1.55,0.3-2.33,1.09c0,0,1.27-2.57,2.77-3.15
				c1.5-0.58,0-0.33,0-0.33s0.76-2.39-0.92-2.39c0,0-0.11,1.36-1.36,1.36c0,0-2.6-1.52-3.31,0c0,0-1.14,2.39-3.53,2.39
				c0,0,1.67,2.32,1.03,2.96c0,0,1.3,1.93,3.04,1.93l1.27,0.98c0,0,0.31-0.65-1.21-2.17c0,0-1.84-3.1,0.76-4.67
				c0,0,0.45-0.81,2.77-0.6c0,0-2.32,0.6-2.32,2.98c0,0,0.25,3.53,0.9,2.88c0,0-0.54-1.19,3.31-1.63c0,0,1.12,0.38,1.12-1.63
				c0,0,0.18-2.28,0.67,0c0.49,2.28,2.71-2.28,2.71-2.28s1.14-1.68-1.36-3.58c0,0-0.6-0.87-2.71-1.3c0,0,1.64-0.94-0.81-1.71
				C56.25-136.33,54.84-137.99,57.39-141.19z"/>
			<path class="st1" d="M61.39-128.87c0,0,0.66,4.29-1.45,5.59c0,0-1.37,1.52-4.45,1.09c0,0-0.81,1.52-1.9,1.52
				c0,0,0.43-3.64,1.68-3.64c1.25,0,0.27,0,0.27,0s2.37-0.07,3.53-1.22C59.07-125.53,61.16-126.65,61.39-128.87z"/>
			<path class="st1" d="M58.13-61.41l-1.45,3.65l1.39-1.39l0.63-2.83l1.2-5.37l0.13-0.6l1.53,4.28v-2.17l1.01-1.01l-1.04-2.14
				l-2.08-0.35l0.35-1.97l-2.84-4.57l4.34,4.34v1.04l4.26,1.82l-1.82,1.82c0,1.45-1.04,5.76-1.04,5.76l-2.43-3.27l-1.04,5.09
				l1.62,0.35l-3.94,1.97l-1.16,1.16l-2.55-2.55l-3.82-2.72l2.08-0.03c-0.42,0.42,0-3.27,0-3.27l-1.39-2.49l-1.97,3.42l-1.16-3.94
				l-1.39-0.93l2.08-0.81l1.62-0.93l3.94-4.86l-2.63,5.91h-1.82v2.14l2.56-2.88l0.56,4.99l1.61,1.61l-0.39,2.74l0.87,0.87l2-3.65
				l-1.91-1.91c0,0,1.43-2.3,0.69-3.04L53-67.26l2.56-10.54v8.28c0,0,2.39,0.17,2.39-0.52c0,0-1.48,4.08-1.48,3.65l2,2.95"/>
			<path class="st1" d="M46.12-85.93c0,0-1.92-2.87,2.03-8.02c0,0,4.31-4.37,5.87-1.47l1.03,1.03c0,0,2.32-2.32,5.31,0.67
				c0,0,0.12,3.12-0.96,3.12l-1.19,1.19c0,0-0.01-2.87-1.68-2.87l-2.03-0.48l-0.9-0.9c0,0-3,0.03-5.45,2.48
				C48.16-91.17,46.12-87.36,46.12-85.93z"/>
			<path class="st1" d="M57.1-89.12v-1.13c0,0-1.93-2.59-6.58-0.58c0,0-3.59,2.85-2.75,6.8c0,0-0.72,2.21,3.83,1.71l1.51-1.35
				c0,0,0.89,4.53,4,4c0,0,2.51,0.37,4.31-2.65v-0.84c0,0,3.23-1.04,3.23-2.45c0,0,1.54-2.27,0.64-6.44c0,0-0.13-0.27-0.4,0.58
				c0,0,0.36,2.78-2.47,5.21c0,0,0.22,0.67-2.6,0.67c0,0,0.81,2.34-2.24,3.64c0,0-2.74,1.53-2.96-1.71c0,0,0.9-1.89-0.9-1.53
				c0,0-3.05,0.63-2.2-1.35c0,0,0.58-2.06,3.73-1.89c0,0-2.15,1.6-0.08,2.72c0.07,0.04,0.14,0.07,0.21,0.11
				c2.42,1.12,7.54-3.14,7.54-3.14s2.42-3.59,1.35-6.87c0,0-1.77-3.3-3.37-4.13c0,0,2.71,2.22,2.15,6.78c0,0-0.94,2.83-3.1,3.59
				c0,0-0.36,1.17-2.78,1.75c0,0-1.52,0.31-0.56-1.17L57.1-89.12z"/>
			<path class="st1" d="M53.71-40.96c0,0-3.08,0.73-3.27,3.16c0,0,1.14,0.08,2.26-1C53.81-39.88,53.71-40.96,53.71-40.96z"/>
			<path class="st1" d="M57.9-40.96c0,0,0.62,3.01,3.12,3.3c0,0,0.14-1.1-0.93-2.23C59.02-41.01,57.9-40.96,57.9-40.96z"/>
			<path class="st1" d="M49.86-37.77c0,0-1.75,0.32-1,1.57c0,0,0.54-0.08,1-0.52S49.86-37.77,49.86-37.77z"/>
			<path class="st1" d="M51.88-41.28l-5.44,0.32c0,0-2.44-0.98-0.17-1.51h3.52c0,0-5.39-0.1-5-0.47c0,0-1.39-0.18-0.02-1.16
				c0,0,0.61-0.24,1.58,0l2.53-0.11c0,0-2.39-1.28,0.2-0.99l1.15,0.49c0,0-3.34-1.27-2.96-2.41c0,0,3.83,0.73,5.79,2.62
				c0,0,0.84,0.44-0.3,0.64l-0.9-0.19c0,0,2.04,0.42,2.04,1.57c0,0-0.82,0.25-2.04,0.25l0.6,0.16
				C52.48-42.05,53.01-41.81,51.88-41.28z"/>
			<path class="st1" d="M58.33-44.49c0,0,3.93-2.83,6.04-2.34c0,0,0.21,0.82-3.02,1.96l1.92-0.49c0,0,0.98,0.85-0.73,1.32
				c0,0,2.63-0.67,4.28,0.47c0,0,0.8,0.49-1.52,0.86h-3.49c0,0,5.56,0.41,4,1.14c0,0,1.04,0.65-6.34,0.29c0,0-0.64-0.32,0-0.94
				h-1.13c0,0-1.71-0.63,0-1.14c0,0,2.62-0.92,0.04-0.67C58.37-44.03,58.07-44.31,58.33-44.49z"/>
			<path class="st1" d="M52.88-50.1c0,0,0.29-2.22,0.79,0l0.42,1.29l-0.42-2.27c0,0,0.54-3.32,1.23,0l0.32,1.63v-4.58
				c0,0,0.58-1.15,1.05,0.16v1.13c0,0,0.42-0.5,0.42,0.41v3.52l0.26-2.84c0,0,0.64-1.13,1.17,0.43c0,0-0.48,6.27-1.13,6.5
				c-0.64,0.23-0.64-1.52-0.64-1.52v2.06c0,0-0.08,1.6-1.29,0v-1.56c0,0-0.24,1.25-0.89-0.08C54.17-45.81,52.62-49.84,52.88-50.1z"
				/>
			<path class="st1" d="M53.56-45.96c0,0-0.26-2.34-3.12-3.54C50.44-49.51,50.88-46.28,53.56-45.96z"/>
			<path class="st1" d="M54.74-41.85v6.28l-1.26,1.22l-1.99,1.33c0,0-1.39,0.16,0,0.75h8.49c0,0,1.25-0.72,0-1.05
				c0,0-2.08-0.16-2.91-2.49v-5.71c0,0,1.25-2.01-0.79-0.76l-0.57,0.28l-0.4-0.39C55.3-42.4,53.45-43.1,54.74-41.85z"/>
			<path class="st1" d="M61.36-37.47c0,0,0.3,1.7,1.61,0.99c0,0-0.07-0.52-0.52-0.97C62-37.9,61.36-37.47,61.36-37.47z"/>
			<path class="st1" d="M61.03-49.45c0,0-2.37,0.54-3.26,3.43C57.77-46.02,61.03-46.84,61.03-49.45z"/>
			<path class="st1" d="M56.3-28.59l0,6.57c0.1,0.33,0.62,0.65,0.43,0.55c-0.61-0.31,2.85,0.11,2.89,2.79c0,0.05,0-0.05,0,0
				c0,0.4,0.45,2.05-1.12,3.02c0,0-0.61,0.71-1.85,0.59c-0.31-0.03-0.57,0.19-0.57,0.5v0.36c0,0.39,0.41,0.63,0.75,0.46
				c1.05-0.55,2.88-1.67,3.3-2.97c0,0,1.09-2.41-0.88-4.38c0,0-0.86-0.83-2.13-1.18c-0.23-0.06-0.39-0.26-0.39-0.5v-1.19
				c0-0.35,0.34-0.6,0.67-0.49c1.47,0.48,4.88,1.89,5.35,4.67c0,0,1.35,4.11-1.85,6.36c-0.04,0.03-0.08,0.05-0.13,0.07
				c-0.55,0.19-4.24,1.55-4.69,4.48v0l-0.6,1.48c-0.04,0.65-0.5,0.48-0.51-0.18l-0.14-6.98c-0.01-0.29-0.23-0.52-0.51-0.55
				C53.51-15.22,51.6-16,51.5-18.5c-0.03-0.8-0.02-0.11,0.01-0.23c0.21-0.83,0.72-2.28,2.95-2.73c0.24-0.05,0.42-0.26,0.42-0.5
				l0-0.29c0-0.4-0.44-0.65-0.78-0.44c-1,0.62-2.66,1.85-3.2,3.51c-0.01,0.03-0.02,0.06-0.02,0.09c-0.05,0.38-0.3,2.92,1.76,4.38
				c0,0,0.14,0.19,1.47,0.65c0.2,0.07,0.34,0.26,0.35,0.47l0.03,1.29c0.01,0.34-0.32,0.6-0.65,0.51c-1.51-0.41-5.15-1.82-5.89-6.06
				c0-0.03-0.01-0.05-0.01-0.08c-0.01-0.42,0.04-4.03,3.68-5.75c0.03-0.01,0.05-0.02,0.08-0.03c0.33-0.09,2.61-0.77,3.02-3.05
				c0,0,0.13-1.3,0.64-2.12C55.62-29.3,56.3-29.1,56.3-28.59z"/>
			<path d="M54.6-20.57v4.68c0,0-2.79-0.72-2.19-2.72C52.41-18.61,52.74-20.57,54.6-20.57z"/>
			<path d="M56.38-15.88l-0.07-4.68c0,0,2.8,0.68,2.23,2.69C58.54-17.87,58.24-15.91,56.38-15.88z"/>
			<polygon class="st1" points="52.08,-161.22 54.92,-164.26 55.23,-164.26 58.27,-161.22 57.56,-160.51 55.53,-162.72 
				54.87,-162.72 52.66,-160.51 			"/>
			<path class="st1" d="M60.49-155.27l0.8-0.77l1.49,1.49h3.62c0,0,0.48,1.49,0,1.49s-3.57,0-3.57,0s-0.64,1.94-1.94,1.94l-0.93-0.7
				c0,0,1.55-0.79,1.55-1.76h-2.5v-0.37h2.45C61.45-153.95,62.04-154.09,60.49-155.27z"/>
			<polygon class="st1" points="47.77,-159.91 49.5,-158.18 48.38,-157.06 49.24,-156.19 49.73,-156.68 50.94,-155.46 
				52.08,-155.46 59.12,-148.42 61.01,-148.22 60.76,-150.01 53.61,-156.51 53.61,-157.31 52.73,-158.18 52.59,-159.03 
				52.96,-159.4 52.08,-160.51 50.77,-159.23 48.83,-161.16 			"/>
			<path class="st1" d="M49.6-156.19c0,0-1.38,1.24-1.12,1.5h-3.35c0,0-0.76,0.73,0,1.49h3.2l1.67,1.7c0,0,1.42,0.29,0.71-0.86
				l-0.9-0.9c0,0-0.67-0.57,0.55-0.57h1.72v-0.37h-2.03c0,0-0.99,0.11-0.05-0.83l0.66-0.43L49.6-156.19z"/>
			<polygon class="st1" points="59.89,-159.45 61.56,-161.48 62.78,-160.23 61.05,-158.5 62.52,-157.27 61.61,-156.36 
				60.85,-156.83 59.53,-155.5 58.42,-155.5 57.24,-154.33 55.8,-155.78 56.84,-156.83 56.84,-157.63 57.96,-158.5 57.96,-159.2 
				57.44,-159.72 58.55,-160.82 			"/>
			<polygon class="st1" points="53.12,-153.52 54.8,-152.06 50.94,-148.33 48.86,-147.87 49.22,-149.69 			"/>
			<polygon class="st1" points="54.89,-150.4 54.89,-147.87 53.35,-149.4 52.08,-148.36 55.19,-145.27 58.21,-148.14 56.94,-149.41 
				55.4,-147.87 55.27,-150.4 			"/>
			<polygon class="st1" points="51.86,-147.27 51,-146.84 54.9,-142.97 59.42,-146.77 58.7,-147.49 55.28,-144.52 54.9,-144.52 			
				"/>
			<polygon class="st1" points="55.11,-162.38 52.74,-160.15 53.76,-159.14 54.8,-160.18 54.8,-157.41 55.18,-157.41 55.18,-160.1 
				56.27,-159.01 57.44,-160.15 			"/>
			<polygon class="st1" points="54.79,-119.42 51.83,-114.17 54,-115.08 53.31,-113.26 54.45,-112.11 54.45,-109.83 53.31,-108.69 
				54.45,-107.55 54.45,-105.04 53.31,-103.9 54,-102.18 51.83,-103.44 54.79,-97.85 57.99,-102.98 56.16,-102.18 56.85,-103.67 
				55.54,-104.98 55.54,-107.78 56.39,-108.63 55.34,-109.69 55.34,-112.23 56.61,-113.5 56.05,-114.51 57.99,-114.05 			"/>
			<path class="st1" d="M45.87-114.31l4.96,0.63L49.01-113l1.83,0.46v1.26l1.03,1.03l0.46-2.57l1.08,1.03v2.57L52.63-110
				c0,0-0.26,1.28,0.14,1.37l-0.23,1.46l0.86-0.46v1.94l-0.57,1.14c0,0-1.14-0.11-1.14-2.23l-0.97,0.74v1.48h-1.54l1.6,1.14
				l-5.31,0.46l2.51-4.62v1.83l1.08-1.14l1.2,0.34l0.66-0.66c0,0-2.77-0.37-2.77-1.43c0,0,1.2-1.06,2.97-1.34
				c0,0,0.23-0.97-2.23-0.34l-0.68-1.26v1.83L45.87-114.31z"/>
			<path class="st1" d="M59.45-113.74l4.91-0.57l-2.45,4.62v-1.94l-0.91,1.31h-1.54l-0.46,0.46l2.68,0.8v0.57l-2.68,1.26l0.74,0.51
				h1.2l0.74,0.74v-1.43l2.68,4.45l-5.36-0.4l1.11-1.11h-0.83v-1.34l-0.94-0.94l-0.66,2.54c0,0-1.28,0.34-1.28-4.02c0-4.37,0,0,0,0
				l0.8,0.8l0.2-2.14L56.82-109c0,0-1.08-1.77,0.63-3.48l0.8,1.83l0.91-0.4v-1.6h1.71l-1.43-0.4V-113.74z"/>
		</g>
		<g>
			<path class="st1" d="M34.6-101.37c0,0-2.12-0.92-5.26,2.93c0,0-2.01,3.09-2.01,4.77c0,0-1.46,1.74-2.44,1.74
				c0,0,3.36,0.98,4.86-1.19c0,0-0.19-1.95,2.03-3.39c0,0,1.82,0.05,1.59,1.59l-2.35,1.37c0,0,3.58,0,3.58,1.52
				c0,0,0.81,1.79,0,2.06c0,0-0.43-1.03-0.43,1.14c0,0,0.43,1.19-1.19,1.19c0,0-1.55,0.3-2.33,1.09c0,0,1.27-2.57,2.77-3.15
				c1.5-0.58,0-0.33,0-0.33s0.76-2.39-0.92-2.39c0,0-0.11,1.36-1.36,1.36c0,0-2.6-1.52-3.31,0c0,0-1.14,2.39-3.53,2.39
				c0,0,1.67,2.32,1.03,2.96c0,0,1.3,1.93,3.04,1.93l1.27,0.98c0,0,0.31-0.65-1.21-2.17c0,0-1.84-3.1,0.76-4.67
				c0,0,0.45-0.81,2.77-0.6c0,0-2.32,0.6-2.32,2.98c0,0,0.25,3.53,0.9,2.88c0,0-0.54-1.19,3.31-1.63c0,0,1.12,0.38,1.12-1.63
				c0,0,0.18-2.28,0.67,0s2.71-2.28,2.71-2.28s1.14-1.68-1.36-3.58c0,0-0.6-0.87-2.71-1.3c0,0,1.64-0.94-0.81-1.71
				C33.47-96.52,32.05-98.17,34.6-101.37z"/>
			<path class="st1" d="M38.61-89.06c0,0,0.66,4.29-1.45,5.59c0,0-1.37,1.52-4.45,1.09c0,0-0.81,1.52-1.9,1.52
				c0,0,0.43-3.64,1.68-3.64c1.25,0,0.27,0,0.27,0s2.37-0.07,3.53-1.22C36.29-85.72,38.38-86.83,38.61-89.06z"/>
			<path class="st1" d="M35.35-21.59l-1.45,3.65l1.39-1.39l0.63-2.83l1.2-5.37l0.13-0.6l1.53,4.28v-2.17l1.01-1.01l-1.04-2.14
				l-2.08-0.35l0.35-1.97l-2.84-4.57l4.34,4.34v1.04l4.26,1.82l-1.82,1.82c0,1.45-1.04,5.76-1.04,5.76l-2.43-3.27l-1.04,5.09
				l1.62,0.35l-3.94,1.97l-1.16,1.16l-2.55-2.55l-3.82-2.72l2.08-0.03c-0.42,0.42,0-3.27,0-3.27l-1.39-2.49l-1.97,3.42l-1.16-3.94
				l-1.39-0.93l2.08-0.81l1.62-0.93l3.94-4.86l-2.63,5.91h-1.82v2.14l2.56-2.88l0.56,4.99l1.61,1.61l-0.39,2.74l0.87,0.87l2-3.65
				l-1.91-1.91c0,0,1.43-2.3,0.69-3.04l-1.74,0.87l2.56-10.54v8.28c0,0,2.39,0.17,2.39-0.52c0,0-1.48,4.08-1.48,3.65l2,2.95"/>
			<path class="st1" d="M23.34-46.11c0,0-1.92-2.87,2.03-8.02c0,0,4.31-4.37,5.87-1.47l1.03,1.03c0,0,2.32-2.32,5.31,0.67
				c0,0,0.12,3.12-0.96,3.12l-1.19,1.19c0,0-0.01-2.87-1.68-2.87l-2.03-0.48l-0.9-0.9c0,0-3,0.03-5.45,2.48
				C25.38-51.35,23.34-47.55,23.34-46.11z"/>
			<path class="st1" d="M34.32-49.3v-1.13c0,0-1.93-2.59-6.58-0.58c0,0-3.59,2.85-2.75,6.8c0,0-0.72,2.21,3.83,1.71l1.51-1.35
				c0,0,0.89,4.53,4,4c0,0,2.51,0.37,4.31-2.65v-0.84c0,0,3.23-1.04,3.23-2.45c0,0,1.54-2.27,0.64-6.44c0,0-0.13-0.27-0.4,0.58
				c0,0,0.36,2.78-2.47,5.21c0,0,0.22,0.67-2.6,0.67c0,0,0.81,2.34-2.24,3.64c0,0-2.74,1.53-2.96-1.71c0,0,0.9-1.89-0.9-1.53
				c0,0-3.05,0.63-2.2-1.35c0,0,0.58-2.06,3.73-1.89c0,0-2.15,1.6-0.08,2.72c0.07,0.04,0.14,0.07,0.21,0.11
				c2.42,1.12,7.54-3.14,7.54-3.14s2.42-3.59,1.35-6.87c0,0-1.77-3.3-3.37-4.13c0,0,2.71,2.22,2.15,6.78c0,0-0.94,2.83-3.1,3.59
				c0,0-0.36,1.17-2.78,1.75c0,0-1.52,0.31-0.56-1.17L34.32-49.3z"/>
			<path class="st1" d="M29.1-1.46l-5.44,0.32c0,0-2.44-0.98-0.17-1.51h3.52c0,0-5.39-0.1-5-0.47c0,0-1.39-0.18-0.02-1.16
				c0,0,0.61-0.24,1.58,0l2.53-0.11c0,0-2.39-1.28,0.2-0.99l1.15,0.49c0,0-3.34-1.27-2.96-2.41c0,0,3.83,0.73,5.79,2.62
				c0,0,0.84,0.44-0.3,0.64l-0.9-0.19c0,0,2.04,0.42,2.04,1.57c0,0-0.82,0.25-2.04,0.25l0.6,0.16C29.7-2.24,30.23-1.99,29.1-1.46z"
				/>
			<path class="st1" d="M35.55-4.68c0,0,3.93-2.83,6.04-2.34c0,0,0.21,0.82-3.02,1.96l1.92-0.49c0,0,0.98,0.85-0.73,1.32
				c0,0,2.63-0.67,4.28,0.47c0,0,0.8,0.49-1.52,0.86h-3.49c0,0,5.56,0.41,4,1.14c0,0,1.04,0.65-6.34,0.29c0,0-0.64-0.32,0-0.94
				h-1.13c0,0-1.71-0.63,0-1.14c0,0,2.62-0.92,0.04-0.67C35.59-4.21,35.29-4.5,35.55-4.68z"/>
			<path class="st1" d="M30.1-10.28c0,0,0.29-2.22,0.79,0L31.31-9l-0.42-2.27c0,0,0.54-3.32,1.23,0l0.32,1.63v-4.58
				c0,0,0.58-1.15,1.05,0.16v1.13c0,0,0.42-0.5,0.42,0.41V-9l0.26-2.84c0,0,0.64-1.13,1.17,0.43c0,0-0.48,6.27-1.13,6.5
				s-0.64-1.52-0.64-1.52v2.06c0,0-0.08,1.6-1.29,0v-1.56c0,0-0.24,1.25-0.89-0.08C31.39-6,29.84-10.03,30.1-10.28z"/>
			<path class="st1" d="M30.78-6.15c0,0-0.26-2.34-3.12-3.54C27.65-9.69,28.1-6.46,30.78-6.15z"/>
			<path class="st1" d="M38.25-9.63c0,0-2.37,0.54-3.26,3.43C34.98-6.21,38.25-7.03,38.25-9.63z"/>
			<polygon class="st1" points="29.3,-121.4 32.14,-124.44 32.45,-124.44 35.49,-121.4 34.78,-120.69 32.75,-122.9 32.09,-122.9 
				29.88,-120.69 			"/>
			<path class="st1" d="M37.71-115.46l0.8-0.77l1.49,1.49h3.62c0,0,0.48,1.49,0,1.49s-3.57,0-3.57,0s-0.64,1.94-1.94,1.94l-0.93-0.7
				c0,0,1.55-0.79,1.55-1.76h-2.5v-0.37h2.45C38.67-114.13,39.26-114.27,37.71-115.46z"/>
			<polygon class="st1" points="24.99,-120.1 26.72,-118.37 25.6,-117.25 26.46,-116.38 26.94,-116.86 28.16,-115.65 29.3,-115.65 
				36.34,-108.61 38.23,-108.41 37.98,-110.19 30.82,-116.69 30.82,-117.5 29.95,-118.37 29.81,-119.22 30.18,-119.59 29.3,-120.69 
				27.98,-119.42 26.05,-121.35 			"/>
			<path class="st1" d="M26.82-116.38c0,0-1.38,1.24-1.12,1.5h-3.35c0,0-0.76,0.73,0,1.49h3.2l1.67,1.7c0,0,1.42,0.29,0.71-0.86
				l-0.9-0.9c0,0-0.67-0.57,0.55-0.57h1.72v-0.37h-2.03c0,0-0.99,0.11-0.05-0.83l0.66-0.43L26.82-116.38z"/>
			<polygon class="st1" points="37.11,-119.64 38.78,-121.67 40,-120.42 38.27,-118.68 39.74,-117.46 38.83,-116.54 38.07,-117.01 
				36.75,-115.69 35.64,-115.69 34.46,-114.52 33.01,-115.96 34.06,-117.01 34.06,-117.81 35.18,-118.68 35.18,-119.39 
				34.66,-119.9 35.77,-121.01 			"/>
			<polygon class="st1" points="30.34,-113.71 32.02,-112.25 28.16,-108.51 26.08,-108.05 26.44,-109.88 			"/>
			<polygon class="st1" points="32.11,-110.59 32.11,-108.05 30.57,-109.59 29.3,-108.54 32.41,-105.45 35.43,-108.32 
				34.16,-109.59 32.62,-108.05 32.49,-110.59 			"/>
			<polygon class="st1" points="29.08,-107.46 28.22,-107.03 32.12,-103.15 36.64,-106.95 35.92,-107.68 32.5,-104.71 
				32.12,-104.71 			"/>
			<polygon class="st1" points="32.33,-122.57 29.96,-120.34 30.98,-119.32 32.02,-120.36 32.02,-117.6 32.4,-117.6 32.4,-120.29 
				33.49,-119.19 34.66,-120.34 			"/>
			<polygon class="st1" points="32.01,-79.6 29.05,-74.35 31.21,-75.27 30.53,-73.44 31.67,-72.3 31.67,-70.02 30.53,-68.88 
				31.67,-67.74 31.67,-65.22 30.53,-64.08 31.21,-62.37 29.05,-63.63 32.01,-58.03 35.21,-63.17 33.38,-62.37 34.07,-63.85 
				32.76,-65.17 32.76,-67.96 33.61,-68.82 32.56,-69.88 32.56,-72.41 33.83,-73.68 33.27,-74.7 35.21,-74.24 			"/>
			<path class="st1" d="M23.09-74.5l4.96,0.63l-1.83,0.68l1.83,0.46v1.26l1.03,1.03l0.46-2.57l1.08,1.03v2.57l-0.77-0.77
				c0,0-0.26,1.28,0.14,1.37l-0.23,1.46l0.86-0.46v1.94l-0.57,1.14c0,0-1.14-0.11-1.14-2.23l-0.97,0.74v1.48H26.4L28-63.6
				l-5.31,0.46l2.51-4.62v1.83l1.08-1.14l1.2,0.34l0.66-0.66c0,0-2.77-0.37-2.77-1.43c0,0,1.2-1.06,2.97-1.34
				c0,0,0.23-0.97-2.23-0.34l-0.68-1.26v1.83L23.09-74.5z"/>
			<path class="st1" d="M36.66-73.93l4.91-0.57l-2.45,4.62v-1.94l-0.91,1.31h-1.54l-0.46,0.46l2.68,0.8v0.57l-2.68,1.26l0.74,0.51
				h1.2l0.74,0.74v-1.43l2.68,4.45l-5.36-0.4l1.11-1.11h-0.83v-1.34l-0.94-0.94L34.9-64.4c0,0-1.28,0.34-1.28-4.02c0-4.37,0,0,0,0
				l0.8,0.8l0.2-2.14l-0.57,0.57c0,0-1.08-1.77,0.63-3.48l0.8,1.83l0.91-0.4v-1.6h1.71l-1.43-0.4V-73.93z"/>
		</g>
		<g>
			<path class="st1" d="M12.56-141.04l-1.45,3.65l1.39-1.39l0.63-2.83l1.2-5.37l0.13-0.6l1.53,4.28v-2.17l1.01-1.01l-1.04-2.14
				l-2.08-0.35l0.35-1.97l-2.84-4.57l4.34,4.34v1.04L20-148.3l-1.82,1.82c0,1.45-1.04,5.76-1.04,5.76l-2.43-3.27l-1.04,5.09
				l1.62,0.35l-3.94,1.97l-1.16,1.16l-2.55-2.55l-3.82-2.72l2.08-0.03c-0.42,0.42,0-3.27,0-3.27l-1.39-2.49l-1.97,3.42L1.39-147
				L0-147.93l2.08-0.81l1.62-0.93l3.94-4.86l-2.63,5.91H3.18v2.14l2.56-2.88l0.56,4.99l1.61,1.61l-0.39,2.74l0.87,0.87l2-3.65
				l-1.91-1.91c0,0,1.43-2.3,0.69-3.04l-1.74,0.87L10-157.42v8.28c0,0,2.39,0.17,2.39-0.52c0,0-1.48,4.08-1.48,3.65l2,2.95"/>
			<path class="st1" d="M11.54-168.75v-1.13c0,0-1.93-2.59-6.58-0.58c0,0-3.59,2.85-2.75,6.8c0,0-0.72,2.21,3.83,1.71l1.51-1.35
				c0,0,0.89,4.53,4,4c0,0,2.51,0.37,4.31-2.65v-0.84c0,0,3.23-1.04,3.23-2.45c0,0,1.54-2.27,0.64-6.44c0,0-0.13-0.27-0.4,0.58
				c0,0,0.36,2.78-2.47,5.21c0,0,0.22,0.67-2.6,0.67c0,0,0.81,2.34-2.24,3.64c0,0-2.74,1.53-2.96-1.71c0,0,0.9-1.89-0.9-1.53
				c0,0-3.05,0.63-2.2-1.35c0,0,0.58-2.06,3.73-1.89c0,0-2.15,1.6-0.08,2.72c0.07,0.04,0.14,0.07,0.21,0.11
				c2.42,1.12,7.54-3.14,7.54-3.14s2.42-3.59,1.35-6.87c0,0-1.77-3.3-3.37-4.13c0,0,2.71,2.22,2.15,6.78c0,0-0.94,2.83-3.1,3.59
				c0,0-0.36,1.17-2.78,1.75c0,0-1.52,0.31-0.56-1.17L11.54-168.75z"/>
			<path class="st1" d="M12.34-120.59c0,0,0.62,3.01,3.12,3.3c0,0,0.14-1.1-0.93-2.23C13.46-120.64,12.34-120.59,12.34-120.59z"/>
			<path class="st1" d="M12.77-124.12c0,0,3.93-2.83,6.04-2.34c0,0,0.21,0.82-3.02,1.96l1.92-0.49c0,0,0.98,0.85-0.73,1.32
				c0,0,2.63-0.67,4.28,0.47c0,0,0.8,0.49-1.52,0.86h-3.49c0,0,5.56,0.41,4,1.14c0,0,1.04,0.65-6.34,0.29c0,0-0.64-0.32,0-0.94
				h-1.13c0,0-1.71-0.63,0-1.14c0,0,2.62-0.92,0.04-0.67C12.81-123.65,12.51-123.94,12.77-124.12z"/>
			<path class="st1" d="M7.32-129.73c0,0,0.29-2.22,0.79,0l0.42,1.29l-0.42-2.27c0,0,0.54-3.32,1.23,0l0.32,1.63v-4.58
				c0,0,0.58-1.15,1.05,0.16v1.13c0,0,0.42-0.5,0.42,0.41v3.52l0.26-2.84c0,0,0.64-1.13,1.17,0.43c0,0-0.48,6.27-1.13,6.5
				c-0.64,0.23-0.64-1.52-0.64-1.52v2.06c0,0-0.08,1.6-1.29,0v-1.56c0,0-0.24,1.25-0.89-0.08C8.61-125.44,7.05-129.47,7.32-129.73z"
				/>
			<path class="st1" d="M9.18-121.48v6.28l-1.26,1.22l-1.99,1.33c0,0-1.39,0.16,0,0.75h8.49c0,0,1.25-0.72,0-1.05
				c0,0-2.08-0.16-2.91-2.49v-5.71c0,0,1.25-2.01-0.79-0.76l-0.57,0.28l-0.4-0.39C9.74-122.03,7.89-122.73,9.18-121.48z"/>
			<path class="st1" d="M15.8-117.1c0,0,0.3,1.7,1.61,0.99c0,0-0.07-0.52-0.52-0.97C16.43-117.53,15.8-117.1,15.8-117.1z"/>
			<path class="st1" d="M15.47-129.08c0,0-2.37,0.54-3.26,3.43C12.2-125.65,15.47-126.47,15.47-129.08z"/>
			<path class="st1" d="M10.74-108.21l0,6.57c0.1,0.33,0.62,0.65,0.43,0.55c-0.61-0.31,2.85,0.11,2.89,2.79c0,0.05,0-0.05,0,0
				c0,0.4,0.45,2.05-1.12,3.02c0,0-0.61,0.71-1.85,0.59c-0.31-0.03-0.57,0.19-0.57,0.5l0,0.36c0,0.39,0.41,0.63,0.75,0.46
				c1.05-0.55,2.88-1.67,3.3-2.97c0,0,1.09-2.41-0.88-4.38c0,0-0.86-0.83-2.13-1.18c-0.23-0.06-0.39-0.26-0.39-0.5l0-1.19
				c0-0.35,0.34-0.6,0.67-0.49c1.47,0.48,4.88,1.89,5.35,4.67c0,0,1.35,4.11-1.85,6.36c-0.04,0.03-0.08,0.05-0.13,0.07
				c-0.55,0.19-4.24,1.55-4.69,4.48l0,0l-0.6,1.48c-0.04,0.65-0.5,0.48-0.51-0.18L9.27-94.2c-0.01-0.29-0.23-0.52-0.51-0.55
				c-0.81-0.09-2.72-0.87-2.82-3.37c-0.03-0.8-0.02-0.11,0.01-0.23c0.21-0.83,0.72-2.28,2.95-2.73c0.24-0.05,0.42-0.26,0.42-0.5
				l0-0.29c0-0.4-0.44-0.65-0.78-0.44c-1,0.62-2.66,1.85-3.2,3.51c-0.01,0.03-0.02,0.06-0.02,0.09c-0.05,0.38-0.3,2.92,1.76,4.38
				c0,0,0.14,0.19,1.47,0.65c0.2,0.07,0.34,0.26,0.35,0.47l0.03,1.29c0.01,0.34-0.32,0.6-0.65,0.51c-1.51-0.41-5.15-1.82-5.89-6.06
				c0-0.03-0.01-0.05-0.01-0.08c-0.01-0.42,0.04-4.03,3.68-5.75c0.03-0.01,0.05-0.02,0.08-0.03c0.33-0.09,2.61-0.77,3.02-3.05
				c0,0,0.13-1.3,0.64-2.12C10.06-108.93,10.74-108.73,10.74-108.21z"/>
			<path d="M10.82-95.51l-0.07-4.68c0,0,2.8,0.68,2.23,2.69C12.98-97.5,12.68-95.54,10.82-95.51z"/>
		</g>
		<g>
			<path class="st1" d="M30.93-160.4c0,0-3.08,0.73-3.27,3.16c0,0,1.14,0.08,2.26-1C31.03-159.32,30.93-160.4,30.93-160.4z"/>
			<path class="st1" d="M35.12-160.4c0,0,0.62,3.01,3.12,3.3c0,0,0.14-1.1-0.93-2.23S35.12-160.4,35.12-160.4z"/>
			<path class="st1" d="M27.08-157.21c0,0-1.75,0.32-1,1.57c0,0,0.54-0.08,1-0.52C27.54-156.6,27.08-157.21,27.08-157.21z"/>
			<path class="st1" d="M29.1-160.72l-5.44,0.32c0,0-2.44-0.98-0.17-1.51h3.52c0,0-5.39-0.1-5-0.47c0,0-1.39-0.18-0.02-1.16
				c0,0,0.61-0.24,1.58,0l2.53-0.11c0,0-2.39-1.28,0.2-0.99l1.15,0.49c0,0-3.34-1.27-2.96-2.41c0,0,3.83,0.73,5.79,2.62
				c0,0,0.84,0.44-0.3,0.64l-0.9-0.19c0,0,2.04,0.42,2.04,1.57c0,0-0.82,0.25-2.04,0.25l0.6,0.16
				C29.7-161.5,30.23-161.25,29.1-160.72z"/>
			<path class="st1" d="M35.55-163.93c0,0,3.93-2.83,6.04-2.34c0,0,0.21,0.82-3.02,1.96l1.92-0.49c0,0,0.98,0.85-0.73,1.32
				c0,0,2.63-0.67,4.28,0.47c0,0,0.8,0.49-1.52,0.86h-3.49c0,0,5.56,0.41,4,1.14c0,0,1.04,0.65-6.34,0.29c0,0-0.64-0.32,0-0.94
				h-1.13c0,0-1.71-0.63,0-1.14c0,0,2.62-0.92,0.04-0.67C35.59-163.47,35.29-163.75,35.55-163.93z"/>
			<path class="st1" d="M30.1-169.54c0,0,0.29-2.22,0.79,0l0.42,1.29l-0.42-2.27c0,0,0.54-3.32,1.23,0l0.32,1.63v-4.58
				c0,0,0.58-1.15,1.05,0.16v1.13c0,0,0.42-0.5,0.42,0.41v3.52l0.26-2.84c0,0,0.64-1.13,1.17,0.43c0,0-0.48,6.27-1.13,6.5
				s-0.64-1.52-0.64-1.52v2.06c0,0-0.08,1.6-1.29,0v-1.56c0,0-0.24,1.25-0.89-0.08C31.39-165.26,29.84-169.29,30.1-169.54z"/>
			<path class="st1" d="M31.96-161.29v6.28l-1.26,1.22l-1.99,1.33c0,0-1.39,0.16,0,0.75h8.49c0,0,1.25-0.72,0-1.05
				c0,0-2.08-0.16-2.91-2.49v-5.71c0,0,1.25-2.01-0.79-0.76l-0.57,0.28l-0.4-0.39C32.52-161.84,30.67-162.54,31.96-161.29z"/>
			<path class="st1" d="M38.58-156.91c0,0,0.3,1.7,1.61,0.99c0,0-0.07-0.52-0.52-0.97S38.58-156.91,38.58-156.91z"/>
			<path class="st1" d="M33.52-148.03l0,6.57c0.1,0.33,0.62,0.65,0.43,0.55c-0.61-0.31,2.85,0.11,2.89,2.79c0,0.05,0-0.05,0,0
				c0,0.4,0.45,2.05-1.12,3.02c0,0-0.61,0.71-1.85,0.59c-0.31-0.03-0.57,0.19-0.57,0.5v0.36c0,0.39,0.41,0.63,0.75,0.46
				c1.05-0.55,2.88-1.67,3.3-2.97c0,0,1.09-2.41-0.88-4.38c0,0-0.86-0.83-2.13-1.18c-0.23-0.06-0.39-0.26-0.39-0.5l0-1.19
				c0-0.35,0.34-0.6,0.67-0.49c1.47,0.48,4.88,1.89,5.35,4.67c0,0,1.35,4.11-1.85,6.36c-0.04,0.03-0.08,0.05-0.13,0.07
				c-0.55,0.19-4.24,1.55-4.69,4.48l0,0l-0.6,1.48c-0.04,0.65-0.5,0.48-0.51-0.18l-0.14-6.98c-0.01-0.29-0.23-0.52-0.51-0.55
				c-0.81-0.09-2.72-0.87-2.82-3.37c-0.03-0.8-0.02-0.11,0.01-0.23c0.21-0.83,0.72-2.28,2.95-2.73c0.24-0.05,0.42-0.26,0.42-0.5
				v-0.29c0-0.4-0.44-0.65-0.78-0.44c-1,0.62-2.66,1.85-3.2,3.51c-0.01,0.03-0.02,0.06-0.02,0.09c-0.05,0.38-0.3,2.92,1.76,4.38
				c0,0,0.14,0.19,1.47,0.65c0.2,0.07,0.34,0.26,0.35,0.47l0.03,1.29c0.01,0.34-0.32,0.6-0.65,0.51c-1.51-0.41-5.15-1.82-5.89-6.06
				c0-0.03-0.01-0.05-0.01-0.08c-0.01-0.42,0.04-4.03,3.68-5.75c0.03-0.01,0.05-0.02,0.08-0.03c0.33-0.09,2.61-0.77,3.02-3.05
				c0,0,0.13-1.3,0.64-2.12C32.84-148.74,33.52-148.54,33.52-148.03z"/>
			<path d="M31.82-140.01v4.68c0,0-2.79-0.72-2.19-2.72C29.63-138.05,29.96-140.01,31.82-140.01z"/>
			<path d="M33.6-135.32L33.53-140c0,0,2.8,0.68,2.23,2.69C35.76-137.31,35.46-135.35,33.6-135.32z"/>
		</g>
	</g>
</pattern>
<path class="st2" d="M288.65,339.76h-74.87c-9.68,0-17.53-7.85-17.53-17.53V195.87c0-9.68,7.85-17.53,17.53-17.53h74.87
	c9.68,0,17.53,7.85,17.53,17.53v126.35C306.18,331.91,298.33,339.76,288.65,339.76z"/>
<pattern  id="SVGID_1_" xlink:href="#element_pattern" patternTransform="matrix(1 0 0 1 1 35.2298)">
</pattern>
<path class="st3" d="M289.06,340.17h-74.87c-9.68,0-17.53-7.85-17.53-17.53V196.29c0-9.68,7.85-17.53,17.53-17.53h74.87
	c9.68,0,17.53,7.85,17.53,17.53v126.35C306.59,332.32,298.74,340.17,289.06,340.17z"/>
</svg>
