<?xml version="1.0" encoding="utf-8"?>
<!-- Generator: Adobe Illustrator 28.1.0, SVG Export Plug-In . SVG Version: 6.00 Build 0)  -->
<svg version="1.1" id="Layer_1" xmlns="http://www.w3.org/2000/svg" xmlns:xlink="http://www.w3.org/1999/xlink" x="0px" y="0px"
	 viewBox="0 0 111.3 162.8" style="enable-background:new 0 0 111.3 162.8;" xml:space="preserve">
<style type="text/css">
	.st0{fill:none;}
	.st1{fill:#999999;}
	.st2{stroke:#000000;stroke-miterlimit:10;}
	.st3{fill:url(#SVGID_00000135666253984257544510000007447737046568951724_);stroke:#000000;stroke-miterlimit:10;}
</style>
<pattern  x="-195.8" y="334.2" width="91.1" height="159.3" patternUnits="userSpaceOnUse" id="SVGID_1_" viewBox="10 -175.1 91.1 159.3" style="overflow:visible;">
	<g>
		<rect x="10" y="-175.1" class="st0" width="91.1" height="159.3"/>
		<g>
			<rect x="10" y="-175.1" class="st0" width="91.1" height="159.3"/>
			<g>
				<path class="st1" d="M102.9-119.5c0,0-2.1,0.9-5.3-2.9c0,0-2-3.1-2-4.8c0,0-1.5-1.7-2.4-1.7c0,0,3.4-1,4.9,1.2c0,0-0.2,2,2,3.4
					c0,0,1.8,0,1.6-1.6l-2.3-1.4c0,0,3.6,0,3.6-1.5c0,0,0.8-1.8,0-2.1c0,0-0.4,1-0.4-1.1c0,0,0.4-1.2-1.2-1.2c0,0-1.6-0.3-2.3-1.1
					c0,0,1.3,2.6,2.8,3.1s0,0.3,0,0.3s0.8,2.4-0.9,2.4c0,0-0.1-1.4-1.4-1.4c0,0-2.6,1.5-3.3,0c0,0-1.1-2.4-3.5-2.4c0,0,1.7-2.3,1-3
					c0,0,1.3-1.9,3-1.9l1.3-1c0,0,0.3,0.7-1.2,2.2c0,0-1.8,3.1,0.8,4.7c0,0,0.4,0.8,2.8,0.6c0,0-2.3-0.6-2.3-3c0,0,0.2-3.5,0.9-2.9
					c0,0-0.5,1.2,3.3,1.6c0,0,1.1-0.4,1.1,1.6c0,0,0.2,2.3,0.7,0s2.7,2.3,2.7,2.3s1.1,1.7-1.4,3.6c0,0-0.6,0.9-2.7,1.3
					c0,0,1.6,0.9-0.8,1.7C101.8-124.4,100.4-122.7,102.9-119.5z"/>
				<path class="st1" d="M106.9-131.9c0,0,0.7-4.3-1.4-5.6c0,0-1.4-1.5-4.4-1.1c0,0-0.8-1.5-1.9-1.5c0,0,0.4,3.6,1.7,3.6
					s0.3,0,0.3,0s2.4,0.1,3.5,1.2C104.6-135.2,106.7-134.1,106.9-131.9z"/>
				<path class="st1" d="M91.7-174.8c0,0-1.9,2.9,2,8c0,0,4.3,4.4,5.9,1.5l1-1c0,0,2.3,2.3,5.3-0.7c0,0,0.1-3.1-1-3.1l-1.2-1.2
					c0,0,0,2.9-1.7,2.9l-2,0.5l-0.9,0.9c0,0-3,0-5.4-2.5C93.7-169.6,91.7-173.4,91.7-174.8z"/>
				<path class="st1" d="M102.7-171.6v1.1c0,0-1.9,2.6-6.6,0.6c0,0-3.6-2.8-2.8-6.8c0,0-0.7-2.2,3.8-1.7l1.5,1.4c0,0,0.9-4.5,4-4
					c0,0,2.5-0.4,4.3,2.6v0.8c0,0,3.2,1,3.2,2.4c0,0,1.5,2.3,0.6,6.4c0,0-0.1,0.3-0.4-0.6c0,0,0.4-2.8-2.5-5.2c0,0,0.2-0.7-2.6-0.7
					c0,0,0.8-2.3-2.2-3.6c0,0-2.7-1.5-3,1.7c0,0,0.9,1.9-0.9,1.5c0,0-3.1-0.6-2.2,1.4c0,0,0.6,2.1,3.7,1.9c0,0-2.2-1.6-0.1-2.7
					c0.1,0,0.1-0.1,0.2-0.1c2.4-1.1,7.5,3.1,7.5,3.1s2.4,3.6,1.3,6.9c0,0-1.8,3.3-3.4,4.1c0,0,2.7-2.2,2.2-6.8c0,0-0.9-2.8-3.1-3.6
					c0,0-0.4-1.2-2.8-1.8c0,0-1.5-0.3-0.6,1.2L102.7-171.6z"/>
				<polygon class="st1" points="97.7,-99.5 100.5,-96.5 100.8,-96.5 103.8,-99.5 103.1,-100.2 101.1,-98 100.4,-98 98.2,-100.2 
									"/>
				<polygon class="st1" points="93.3,-100.8 95.1,-102.5 93.9,-103.7 94.8,-104.5 95.3,-104 96.5,-105.3 97.7,-105.3 104.7,-112.3 
					106.6,-112.5 106.3,-110.7 99.2,-104.2 99.2,-103.4 98.3,-102.5 98.2,-101.7 98.5,-101.3 97.7,-100.2 96.3,-101.5 94.4,-99.6 
									"/>
				<path class="st1" d="M95.2-104.5c0,0-1.4-1.2-1.1-1.5h-3.3c0,0-0.8-0.7,0-1.5h3.2l1.7-1.7c0,0,1.4-0.3,0.7,0.9l-0.9,0.9
					c0,0-0.7,0.6,0.6,0.6h1.7v0.4h-2c0,0-1-0.1-0.1,0.8l0.7,0.4L95.2-104.5z"/>
				<polygon class="st1" points="98.7,-107.2 100.4,-108.7 96.5,-112.4 94.4,-112.9 94.8,-111 				"/>
				<polygon class="st1" points="100.4,-110.3 100.4,-112.9 98.9,-111.3 97.6,-112.4 100.8,-115.5 103.8,-112.6 102.5,-111.3 
					101,-112.9 100.8,-110.3 				"/>
				<polygon class="st1" points="97.4,-113.4 96.6,-113.9 100.5,-117.8 105,-114 104.3,-113.2 100.8,-116.2 100.5,-116.2 				"/>
				<polygon class="st1" points="100.7,-98.3 98.3,-100.6 99.3,-101.6 100.4,-100.5 100.4,-103.3 100.7,-103.3 100.7,-100.6 
					101.8,-101.7 103,-100.6 				"/>
				<polygon class="st1" points="100.4,-141.3 97.4,-146.6 99.6,-145.6 98.9,-147.5 100,-148.6 100,-150.9 98.9,-152 100,-153.2 
					100,-155.7 98.9,-156.8 99.6,-158.5 97.4,-157.3 100.4,-162.9 103.6,-157.7 101.7,-158.5 102.4,-157.1 101.1,-155.7 
					101.1,-152.9 101.9,-152.1 100.9,-151 100.9,-148.5 102.2,-147.2 101.6,-146.2 103.6,-146.7 				"/>
				<path class="st1" d="M91.4-146.4l5-0.6l-1.8-0.7l1.8-0.5v-1.3l1-1l0.5,2.6l1.1-1v-2.6l-0.8,0.8c0,0-0.3-1.3,0.1-1.4l-0.2-1.5
					l0.9,0.5v-1.9l-0.6-1.1c0,0-1.1,0.1-1.1,2.2l-1-0.7v-1.5h-1.5l1.6-1.1l-5.3-0.5l2.5,4.6v-1.8l1.1,1.1l1.2-0.3l0.7,0.7
					c0,0-2.8,0.4-2.8,1.4c0,0,1.2,1.1,3,1.3c0,0,0.2,1-2.2,0.3l-0.7,1.3v-1.8L91.4-146.4z"/>
			</g>
			<g>
				<path class="st1" d="M80.2-159.4c0,0-2.1,0.9-5.3-2.9c0,0-2-3.1-2-4.8c0,0-1.5-1.7-2.4-1.7c0,0,3.4-1,4.9,1.2c0,0-0.2,1.9,2,3.4
					c0,0,1.8-0.1,1.6-1.6l-2.3-1.4c0,0,3.6,0,3.6-1.5c0,0,0.8-1.8,0-2.1c0,0-0.4,1-0.4-1.1c0,0,0.4-1.2-1.2-1.2c0,0-1.6-0.3-2.3-1.1
					c0,0,1.3,2.6,2.8,3.2c1.5,0.6,0,0.3,0,0.3s0.8,2.4-0.9,2.4c0,0-0.1-1.4-1.4-1.4c0,0-2.6,1.5-3.3,0c0,0-1.1-2.4-3.5-2.4
					c0,0,1.7-2.3,1-3c0,0,1.3-1.9,3-1.9l1.3-1c0,0,0.3,0.7-1.2,2.2c0,0-1.8,3.1,0.8,4.7c0,0,0.4,0.8,2.8,0.6c0,0-2.3-0.6-2.3-3
					c0,0,0.2-3.5,0.9-2.9c0,0-0.5,1.2,3.3,1.6c0,0,1.1-0.4,1.1,1.6c0,0,0.2,2.3,0.7,0c0.5-2.3,2.7,2.3,2.7,2.3s1.1,1.7-1.4,3.6
					c0,0-0.6,0.9-2.7,1.3c0,0,1.6,0.9-0.8,1.7C79-164.2,77.6-162.6,80.2-159.4z"/>
				<path class="st1" d="M84.2-171.7c0,0,0.7-4.3-1.4-5.6c0,0-1.4-1.5-4.4-1.1c0,0-0.8-1.5-1.9-1.5c0,0,0.4,3.6,1.7,3.6s0.3,0,0.3,0
					s2.4,0.1,3.5,1.2C81.8-175,83.9-173.9,84.2-171.7z"/>
				<polygon class="st1" points="74.9,-139.3 77.7,-136.3 78,-136.3 81.1,-139.3 80.3,-140 78.3,-137.8 77.7,-137.8 75.4,-140 				
					"/>
				<path class="st1" d="M83.3-145.3l0.8,0.8l1.5-1.5h3.6c0,0,0.5-1.5,0-1.5s-3.6,0-3.6,0s-0.6-1.9-1.9-1.9l-0.9,0.7
					c0,0,1.6,0.8,1.6,1.8h-2.5v0.4h2.4C84.2-146.6,84.8-146.5,83.3-145.3z"/>
				<polygon class="st1" points="70.6,-140.6 72.3,-142.4 71.2,-143.5 72,-144.3 72.5,-143.9 73.7,-145.1 74.9,-145.1 81.9,-152.1 
					83.8,-152.3 83.5,-150.5 76.4,-144 76.4,-143.2 75.5,-142.4 75.4,-141.5 75.7,-141.1 74.9,-140 73.6,-141.3 71.6,-139.4 				"/>
				<path class="st1" d="M72.4-144.3c0,0-1.4-1.2-1.1-1.5h-3.3c0,0-0.8-0.7,0-1.5h3.2l1.7-1.7c0,0,1.4-0.3,0.7,0.9l-0.9,0.9
					c0,0-0.7,0.6,0.6,0.6h1.7v0.4h-2c0,0-1-0.1-0.1,0.8l0.7,0.4L72.4-144.3z"/>
				<polygon class="st1" points="82.7,-141.1 84.3,-139.1 85.6,-140.3 83.8,-142 85.3,-143.3 84.4,-144.2 83.6,-143.7 82.3,-145 
					81.2,-145 80,-146.2 78.6,-144.8 79.6,-143.7 79.6,-142.9 80.7,-142 80.7,-141.3 80.2,-140.8 81.3,-139.7 				"/>
				<polygon class="st1" points="75.9,-147 77.6,-148.5 73.7,-152.2 71.6,-152.7 72,-150.8 				"/>
				<polygon class="st1" points="77.7,-150.1 77.7,-152.7 76.1,-151.1 74.9,-152.2 78,-155.3 81,-152.4 79.7,-151.1 78.2,-152.7 
					78.1,-150.1 				"/>
				<polygon class="st1" points="74.6,-153.3 73.8,-153.7 77.7,-157.6 82.2,-153.8 81.5,-153 78.1,-156 77.7,-156 				"/>
				<polygon class="st1" points="77.9,-138.2 75.5,-140.4 76.5,-141.4 77.6,-140.4 77.6,-143.1 78,-143.1 78,-140.4 79.1,-141.5 
					80.2,-140.4 				"/>
			</g>
			<g>
				<path class="st1" d="M11.8-119.5c0,0-2.1,0.9-5.3-2.9c0,0-2-3.1-2-4.8c0,0-1.5-1.7-2.4-1.7c0,0,3.4-1,4.9,1.2c0,0-0.2,2,2,3.4
					c0,0,1.8,0,1.6-1.6l-2.3-1.4c0,0,3.6,0,3.6-1.5c0,0,0.8-1.8,0-2.1c0,0-0.4,1-0.4-1.1c0,0,0.4-1.2-1.2-1.2c0,0-1.6-0.3-2.3-1.1
					c0,0,1.3,2.6,2.8,3.1s0,0.3,0,0.3s0.8,2.4-0.9,2.4c0,0-0.1-1.4-1.4-1.4c0,0-2.6,1.5-3.3,0c0,0-1.1-2.4-3.5-2.4c0,0,1.7-2.3,1-3
					c0,0,1.3-1.9,3-1.9l1.3-1c0,0,0.3,0.7-1.2,2.2c0,0-1.8,3.1,0.8,4.7c0,0,0.4,0.8,2.8,0.6c0,0-2.3-0.6-2.3-3c0,0,0.2-3.5,0.9-2.9
					c0,0-0.5,1.2,3.3,1.6c0,0,1.1-0.4,1.1,1.6c0,0,0.2,2.3,0.7,0s2.7,2.3,2.7,2.3s1.1,1.7-1.4,3.6c0,0-0.6,0.9-2.7,1.3
					c0,0,1.6,0.9-0.8,1.7C10.7-124.4,9.3-122.7,11.8-119.5z"/>
				<path class="st1" d="M15.8-131.9c0,0,0.7-4.3-1.4-5.6c0,0-1.4-1.5-4.4-1.1c0,0-0.8-1.5-1.9-1.5c0,0,0.4,3.6,1.7,3.6s0.3,0,0.3,0
					s2.4,0.1,3.5,1.2C13.5-135.2,15.6-134.1,15.8-131.9z"/>
				<path class="st1" d="M0.6-174.8c0,0-1.9,2.9,2,8c0,0,4.3,4.4,5.9,1.5l1-1c0,0,2.3,2.3,5.3-0.7c0,0,0.1-3.1-1-3.1l-1.2-1.2
					c0,0,0,2.9-1.7,2.9l-2,0.5L8-167.1c0,0-3,0-5.4-2.5C2.6-169.6,0.6-173.4,0.6-174.8z"/>
				<path class="st1" d="M11.5-171.6v1.1c0,0-1.9,2.6-6.6,0.6c0,0-3.6-2.8-2.8-6.8c0,0-0.7-2.2,3.8-1.7l1.5,1.4c0,0,0.9-4.5,4-4
					c0,0,2.5-0.4,4.3,2.6v0.8c0,0,3.2,1,3.2,2.4c0,0,1.5,2.3,0.6,6.4c0,0-0.1,0.3-0.4-0.6c0,0,0.4-2.8-2.5-5.2c0,0,0.2-0.7-2.6-0.7
					c0,0,0.8-2.3-2.2-3.6c0,0-2.7-1.5-3,1.7c0,0,0.9,1.9-0.9,1.5c0,0-3.1-0.6-2.2,1.4c0,0,0.6,2.1,3.7,1.9c0,0-2.2-1.6-0.1-2.7
					c0-0.1,0.1-0.1,0.2-0.1c2.4-1.1,7.5,3.1,7.5,3.1s2.4,3.6,1.4,6.9c0,0-1.8,3.3-3.4,4.1c0,0,2.7-2.2,2.2-6.8c0,0-0.9-2.8-3.1-3.6
					c0,0-0.4-1.2-2.8-1.8c0,0-1.5-0.3-0.6,1.2L11.5-171.6z"/>
				<polygon class="st1" points="6.5,-99.5 9.4,-96.5 9.7,-96.5 12.7,-99.5 12,-100.2 10,-98 9.3,-98 7.1,-100.2 				"/>
				<path class="st1" d="M14.9-105.5l0.8,0.8l1.5-1.5h3.6c0,0,0.5-1.5,0-1.5s-3.6,0-3.6,0s-0.6-1.9-1.9-1.9l-0.9,0.7
					c0,0,1.6,0.8,1.6,1.8h-2.5v0.4h2.4C15.9-106.8,16.5-106.6,14.9-105.5z"/>
				<polygon class="st1" points="2.2,-100.8 3.9,-102.5 2.8,-103.7 3.7,-104.5 4.2,-104 5.4,-105.3 6.5,-105.3 13.6,-112.3 
					15.4,-112.5 15.2,-110.7 8,-104.2 8,-103.4 7.2,-102.5 7,-101.7 7.4,-101.3 6.5,-100.2 5.2,-101.5 3.3,-99.6 				"/>
				<polygon class="st1" points="14.3,-101.3 16,-99.2 17.2,-100.5 15.5,-102.2 17,-103.5 16,-104.4 15.3,-103.9 14,-105.2 
					12.9,-105.2 11.7,-106.4 10.2,-104.9 11.3,-103.9 11.3,-103.1 12.4,-102.2 12.4,-101.5 11.9,-101 13,-99.9 				"/>
				<polygon class="st1" points="9.3,-110.3 9.3,-112.9 7.8,-111.3 6.5,-112.4 9.6,-115.5 12.6,-112.6 11.4,-111.3 9.8,-112.9 
					9.7,-110.3 				"/>
				<polygon class="st1" points="6.3,-113.4 5.4,-113.9 9.3,-117.8 13.9,-114 13.1,-113.2 9.7,-116.2 9.3,-116.2 				"/>
				<polygon class="st1" points="9.6,-98.3 7.2,-100.6 8.2,-101.6 9.2,-100.5 9.2,-103.3 9.6,-103.3 9.6,-100.6 10.7,-101.7 
					11.9,-100.6 				"/>
				<polygon class="st1" points="9.2,-141.3 6.3,-146.6 8.4,-145.6 7.8,-147.5 8.9,-148.6 8.9,-150.9 7.8,-152 8.9,-153.2 
					8.9,-155.7 7.8,-156.8 8.4,-158.5 6.3,-157.3 9.2,-162.9 12.4,-157.7 10.6,-158.5 11.3,-157.1 10,-155.7 10,-152.9 10.8,-152.1 
					9.8,-151 9.8,-148.5 11,-147.2 10.5,-146.2 12.4,-146.7 				"/>
				<path class="st1" d="M13.9-147l4.9,0.6l-2.5-4.6v1.9l-0.9-1.3h-1.5l-0.5-0.5l2.7-0.8v-0.6l-2.7-1.3l0.7-0.5h1.2l0.7-0.7v1.4
					l2.7-4.4l-5.4,0.4l1.1,1.1h-0.8v1.3l-0.9,0.9l-0.7-2.5c0,0-1.3-0.3-1.3,4s0,0,0,0l0.8-0.8l0.2,2.1l-0.6-0.6c0,0-1.1,1.8,0.6,3.5
					l0.8-1.8l0.9,0.4v1.6h1.7l-1.4,0.4C13.9-147.7,13.9-147,13.9-147z"/>
			</g>
			<g>
				<path class="st1" d="M103.7-40.1l-1.4-3.6l1.4,1.4l0.6,2.8l1.2,5.4l0.1,0.6l1.5-4.3v2.2l1,1l-1,2.1l-2.1,0.4l0.3,2l-2.8,4.6
					l4.3-4.3v-1l4.3-1.8l-1.8-1.8c0-1.4-1-5.8-1-5.8l-2.4,3.3l-1-5.1l1.6-0.4l-3.9-2l-1.2-1.2l-2.6,2.6l-3.8,2.7l2.1,0
					c-0.4-0.4,0,3.3,0,3.3l-1.4,2.5l-2-3.4l-1.1,3.9l-1.4,0.9l2.1,0.8l1.6,0.9l3.9,4.9l-2.6-5.9h-1.8v-2.1l2.6,2.9l0.6-5l1.6-1.6
					l-0.4-2.7l0.9-0.9l2,3.6l-1.9,1.9c0,0,1.4,2.3,0.7,3l-1.7-0.9l2.6,10.5V-32c0,0,2.4-0.2,2.4,0.5c0,0-1.5-4.1-1.5-3.6l2-2.9"/>
				<path class="st1" d="M102.7-12.3v1.1c0,0-1.9,2.6-6.6,0.6c0,0-3.6-2.9-2.8-6.8c0,0-0.7-2.2,3.8-1.7l1.5,1.4c0,0,0.9-4.5,4-4
					c0,0,2.5-0.4,4.3,2.6v0.8c0,0,3.2,1,3.2,2.4c0,0,1.5,2.3,0.6,6.4c0,0-0.1,0.3-0.4-0.6c0,0,0.4-2.8-2.5-5.2c0,0,0.2-0.7-2.6-0.7
					c0,0,0.8-2.3-2.2-3.6c0,0-2.7-1.5-3,1.7c0,0,0.9,1.9-0.9,1.5c0,0-3.1-0.6-2.2,1.4c0,0,0.6,2.1,3.7,1.9c0,0-2.2-1.6-0.1-2.7
					c0.1,0,0.1-0.1,0.2-0.1c2.4-1.1,7.5,3.1,7.5,3.1s2.4,3.6,1.3,6.9c0,0-1.8,3.3-3.4,4.1c0,0,2.7-2.2,2.2-6.8c0,0-0.9-2.8-3.1-3.6
					c0,0-0.4-1.2-2.8-1.8c0,0-1.5-0.3-0.6,1.2L102.7-12.3z"/>
				<path class="st1" d="M99.3-60.5c0,0-3.1-0.7-3.3-3.2c0,0,1.1-0.1,2.3,1C99.4-61.6,99.3-60.5,99.3-60.5z"/>
				<path class="st1" d="M95.4-63.7c0,0-1.8-0.3-1-1.6c0,0,0.5,0.1,1,0.5C95.9-64.3,95.4-63.7,95.4-63.7z"/>
				<path class="st1" d="M97.4-60.2L92-60.5c0,0-2.4,1-0.2,1.5h3.5c0,0-5.4,0.1-5,0.5c0,0-1.4,0.2,0,1.2c0,0,0.6,0.2,1.6,0l2.5,0.1
					c0,0-2.4,1.3,0.2,1l1.2-0.5c0,0-3.3,1.3-3,2.4c0,0,3.8-0.7,5.8-2.6c0,0,0.8-0.4-0.3-0.6l-0.9,0.2c0,0,2-0.4,2-1.6
					c0,0-0.8-0.2-2-0.2l0.6-0.2C98-59.4,98.6-59.7,97.4-60.2z"/>
				<path class="st1" d="M98.4-51.4c0,0,0.3,2.2,0.8,0l0.4-1.3l-0.4,2.3c0,0,0.5,3.3,1.2,0l0.3-1.6v4.6c0,0,0.6,1.1,1.1-0.2v-1.1
					c0,0,0.4,0.5,0.4-0.4v-3.5l0.3,2.8c0,0,0.6,1.1,1.2-0.4c0,0-0.5-6.3-1.1-6.5c-0.6-0.2-0.6,1.5-0.6,1.5v-2.1c0,0-0.1-1.6-1.3,0
					v1.6c0,0-0.2-1.2-0.9,0.1C99.7-55.7,98.2-51.6,98.4-51.4z"/>
				<path class="st1" d="M99.1-55.5c0,0-0.3,2.3-3.1,3.5C96-52,96.4-55.2,99.1-55.5z"/>
				<path class="st1" d="M100.3-59.6v-6.3L99-67.1l-2-1.3c0,0-1.4-0.2,0-0.8h8.5c0,0,1.2,0.7,0,1.1c0,0-2.1,0.2-2.9,2.5v5.7
					c0,0,1.2,2-0.8,0.8l-0.6-0.3l-0.4,0.4C100.9-59.1,99-58.4,100.3-59.6z"/>
				<path class="st1" d="M101.9-72.9v-6.6c0.1-0.3,0.6-0.7,0.4-0.6c-0.6,0.3,2.8-0.1,2.9-2.8c0-0.1,0,0.1,0,0c0-0.4,0.4-2.1-1.1-3
					c0,0-0.6-0.7-1.8-0.6c-0.3,0-0.6-0.2-0.6-0.5v-0.4c0-0.4,0.4-0.6,0.8-0.5c1.1,0.6,2.9,1.7,3.3,3c0,0,1.1,2.4-0.9,4.4
					c0,0-0.9,0.8-2.1,1.2c-0.2,0.1-0.4,0.3-0.4,0.5v1.2c0,0.3,0.3,0.6,0.7,0.5c1.5-0.5,4.9-1.9,5.3-4.7c0,0,1.3-4.1-1.8-6.4
					c0,0-0.1-0.1-0.1-0.1c-0.6-0.2-4.2-1.6-4.7-4.5l0,0l-0.6-1.5c0-0.7-0.5-0.5-0.5,0.2l-0.1,7c0,0.3-0.2,0.5-0.5,0.6
					c-0.8,0.1-2.7,0.9-2.8,3.4c0,0.8,0,0.1,0,0.2c0.2,0.8,0.7,2.3,2.9,2.7c0.2,0.1,0.4,0.3,0.4,0.5v0.3c0,0.4-0.4,0.7-0.8,0.4
					c-1-0.6-2.7-1.8-3.2-3.5c0,0,0-0.1,0-0.1c-0.1-0.4-0.3-2.9,1.8-4.4c0,0,0.1-0.2,1.5-0.7c0.2-0.1,0.3-0.3,0.3-0.5l0-1.3
					c0-0.3-0.3-0.6-0.7-0.5c-1.5,0.4-5.2,1.8-5.9,6.1c0,0,0,0.1,0,0.1c0,0.4,0,4,3.7,5.8c0,0,0.1,0,0.1,0c0.3,0.1,2.6,0.8,3,3.1
					c0,0,0.1,1.3,0.6,2.1C101.2-72.2,101.9-72.4,101.9-72.9z"/>
				<path d="M100.2-80.9v-4.7c0,0-2.8,0.7-2.2,2.7C98-82.9,98.3-80.9,100.2-80.9z"/>
			</g>
			<g>
				<path class="st1" d="M80.2-0.1c0,0-2.1,0.9-5.3-2.9c0,0-2-3.1-2-4.8c0,0-1.5-1.7-2.4-1.7c0,0,3.4-1,4.9,1.2c0,0-0.2,1.9,2,3.4
					c0,0,1.8-0.1,1.6-1.6l-2.3-1.4c0,0,3.6,0,3.6-1.5c0,0,0.8-1.8,0-2.1c0,0-0.4,1-0.4-1.1c0,0,0.4-1.2-1.2-1.2c0,0-1.6-0.3-2.3-1.1
					c0,0,1.3,2.6,2.8,3.1c1.5,0.6,0,0.3,0,0.3S79.7-9,78.1-9c0,0-0.1-1.4-1.4-1.4c0,0-2.6,1.5-3.3,0c0,0-1.1-2.4-3.5-2.4
					c0,0,1.7-2.3,1-3c0,0,1.3-1.9,3-1.9l1.3-1c0,0,0.3,0.6-1.2,2.2c0,0-1.8,3.1,0.8,4.7c0,0,0.4,0.8,2.8,0.6c0,0-2.3-0.6-2.3-3
					c0,0,0.2-3.5,0.9-2.9c0,0-0.5,1.2,3.3,1.6c0,0,1.1-0.4,1.1,1.6c0,0,0.2,2.3,0.7,0s2.7,2.3,2.7,2.3s1.1,1.7-1.4,3.6
					c0,0-0.6,0.9-2.7,1.3c0,0,1.6,0.9-0.8,1.7C79-5,77.6-3.3,80.2-0.1z"/>
				<path class="st1" d="M84.2-12.4c0,0,0.7-4.3-1.4-5.6c0,0-1.4-1.5-4.4-1.1c0,0-0.8-1.5-1.9-1.5c0,0,0.4,3.6,1.7,3.6s0.3,0,0.3,0
					s2.4,0.1,3.5,1.2C81.8-15.7,83.9-14.6,84.2-12.4z"/>
				<path class="st1" d="M80.9-79.9l-1.4-3.7l1.4,1.4l0.6,2.8l1.2,5.4l0.1,0.6l1.5-4.3v2.2l1,1l-1,2.1l-2.1,0.3l0.3,2l-2.8,4.6
					l4.3-4.3v-1l4.3-1.8l-1.8-1.8c0-1.4-1-5.8-1-5.8l-2.4,3.3L82-82l1.6-0.3l-3.9-2l-1.2-1.2L76-82.9l-3.8,2.7l2.1,0
					c-0.4-0.4,0,3.3,0,3.3l-1.4,2.5l-2-3.4l-1.2,3.9L68.3-73l2.1,0.8l1.6,0.9l3.9,4.9l-2.6-5.9h-1.8v-2.1l2.6,2.9l0.6-5l1.6-1.6
					l-0.4-2.7l0.9-0.9l2,3.7l-1.9,1.9c0,0,1.4,2.3,0.7,3L75.8-74l2.6,10.5v-8.3c0,0,2.4-0.2,2.4,0.5c0,0-1.5-4.1-1.5-3.7l2-2.9"/>
				<path class="st1" d="M68.9-55.4c0,0-1.9,2.9,2,8c0,0,4.3,4.4,5.9,1.5l1-1c0,0,2.3,2.3,5.3-0.7c0,0,0.1-3.1-1-3.1L81-51.9
					c0,0,0,2.9-1.7,2.9l-2,0.5l-0.9,0.9c0,0-3,0-5.4-2.5C70.9-50.1,68.9-53.9,68.9-55.4z"/>
				<path class="st1" d="M79.9-52.2v1.1c0,0-1.9,2.6-6.6,0.6c0,0-3.6-2.8-2.8-6.8c0,0-0.7-2.2,3.8-1.7l1.5,1.3c0,0,0.9-4.5,4-4
					c0,0,2.5-0.4,4.3,2.7v0.8c0,0,3.2,1,3.2,2.4c0,0,1.5,2.3,0.6,6.4c0,0-0.1,0.3-0.4-0.6c0,0,0.4-2.8-2.5-5.2c0,0,0.2-0.7-2.6-0.7
					c0,0,0.8-2.3-2.2-3.6c0,0-2.7-1.5-3,1.7c0,0,0.9,1.9-0.9,1.5c0,0-3.1-0.6-2.2,1.3c0,0,0.6,2.1,3.7,1.9c0,0-2.2-1.6-0.1-2.7
					c0.1,0,0.1-0.1,0.2-0.1c2.4-1.1,7.5,3.1,7.5,3.1s2.4,3.6,1.3,6.9c0,0-1.8,3.3-3.4,4.1c0,0,2.7-2.2,2.2-6.8c0,0-0.9-2.8-3.1-3.6
					c0,0-0.4-1.2-2.8-1.8c0,0-1.5-0.3-0.6,1.2L79.9-52.2z"/>
				<path class="st1" d="M76.5-100.3c0,0-3.1-0.7-3.3-3.2c0,0,1.1-0.1,2.3,1C76.6-101.4,76.5-100.3,76.5-100.3z"/>
				<path class="st1" d="M80.7-100.3c0,0,0.6-3,3.1-3.3c0,0,0.1,1.1-0.9,2.2S80.7-100.3,80.7-100.3z"/>
				<path class="st1" d="M72.7-103.5c0,0-1.8-0.3-1-1.6c0,0,0.5,0.1,1,0.5S72.7-103.5,72.7-103.5z"/>
				<path class="st1" d="M74.7-100l-5.4-0.3c0,0-2.4,1-0.2,1.5h3.5c0,0-5.4,0.1-5,0.5c0,0-1.4,0.2,0,1.2c0,0,0.6,0.2,1.6,0l2.5,0.1
					c0,0-2.4,1.3,0.2,1l1.2-0.5c0,0-3.3,1.3-3,2.4c0,0,3.8-0.7,5.8-2.6c0,0,0.8-0.4-0.3-0.6l-0.9,0.2c0,0,2-0.4,2-1.6
					c0,0-0.8-0.2-2-0.2l0.6-0.2C75.3-99.2,75.8-99.5,74.7-100z"/>
				<path class="st1" d="M81.1-96.8c0,0,3.9,2.8,6,2.3c0,0,0.2-0.8-3-2l1.9,0.5c0,0,1-0.8-0.7-1.3c0,0,2.6,0.7,4.3-0.5
					c0,0,0.8-0.5-1.5-0.9h-3.5c0,0,5.6-0.4,4-1.1c0,0,1-0.7-6.3-0.3c0,0-0.6,0.3,0,0.9h-1.1c0,0-1.7,0.6,0,1.1c0,0,2.6,0.9,0,0.7
					C81.2-97.3,80.8-97,81.1-96.8z"/>
				<path class="st1" d="M75.7-91.2c0,0,0.3,2.2,0.8,0l0.4-1.3l-0.4,2.3c0,0,0.5,3.3,1.2,0l0.3-1.6v4.6c0,0,0.6,1.2,1.1-0.2v-1.1
					c0,0,0.4,0.5,0.4-0.4v-3.5l0.3,2.8c0,0,0.6,1.1,1.2-0.4c0,0-0.5-6.3-1.1-6.5S79.1-95,79.1-95v-2.1c0,0-0.1-1.6-1.3,0v1.6
					c0,0-0.2-1.2-0.9,0.1C76.9-95.5,75.4-91.4,75.7-91.2z"/>
				<path class="st1" d="M76.3-95.3c0,0-0.3,2.3-3.1,3.5C73.2-91.8,73.7-95,76.3-95.3z"/>
				<path class="st1" d="M77.5-99.4v-6.3l-1.3-1.2l-2-1.3c0,0-1.4-0.2,0-0.8h8.5c0,0,1.2,0.7,0,1.1c0,0-2.1,0.2-2.9,2.5v5.7
					c0,0,1.2,2-0.8,0.8l-0.6-0.3l-0.4,0.4C78.1-98.9,76.2-98.2,77.5-99.4z"/>
				<path class="st1" d="M84.1-103.8c0,0,0.3-1.7,1.6-1c0,0-0.1,0.5-0.5,1C84.8-103.4,84.1-103.8,84.1-103.8z"/>
				<path class="st1" d="M83.8-91.8c0,0-2.4-0.5-3.3-3.4C80.6-95.3,83.8-94.4,83.8-91.8z"/>
				<path class="st1" d="M79.1-112.7v-6.6c0.1-0.3,0.6-0.7,0.4-0.5c-0.6,0.3,2.8-0.1,2.9-2.8c0-0.1,0,0,0,0c0-0.4,0.4-2.1-1.1-3
					c0,0-0.6-0.7-1.8-0.6c-0.3,0-0.6-0.2-0.6-0.5v-0.4c0-0.4,0.4-0.6,0.8-0.5c1.1,0.5,2.9,1.7,3.3,3c0,0,1.1,2.4-0.9,4.4
					c0,0-0.9,0.8-2.1,1.2c-0.2,0.1-0.4,0.3-0.4,0.5v1.2c0,0.3,0.3,0.6,0.7,0.5c1.5-0.5,4.9-1.9,5.3-4.7c0,0,1.3-4.1-1.8-6.4
					c0,0-0.1,0-0.1-0.1c-0.6-0.2-4.2-1.5-4.7-4.5l0,0l-0.6-1.5c0-0.6-0.5-0.5-0.5,0.2l-0.1,7c0,0.3-0.2,0.5-0.5,0.5
					c-0.8,0.1-2.7,0.9-2.8,3.4c0,0.8,0,0.1,0,0.2c0.2,0.8,0.7,2.3,2.9,2.7c0.2,0,0.4,0.3,0.4,0.5v0.3c0,0.4-0.4,0.7-0.8,0.4
					c-1-0.6-2.7-1.8-3.2-3.5c0,0,0-0.1,0-0.1c-0.1-0.4-0.3-2.9,1.8-4.4c0,0,0.1-0.2,1.5-0.7c0.2-0.1,0.3-0.3,0.3-0.5l0-1.3
					c0-0.3-0.3-0.6-0.7-0.5c-1.5,0.4-5.2,1.8-5.9,6.1c0,0,0,0,0,0.1c0,0.4,0,4,3.7,5.8c0,0,0.1,0,0.1,0c0.3,0.1,2.6,0.8,3,3
					c0,0,0.1,1.3,0.6,2.1C78.4-112,79.1-112.2,79.1-112.7z"/>
				<path d="M77.4-120.7v-4.7c0,0-2.8,0.7-2.2,2.7C75.2-122.7,75.5-120.7,77.4-120.7z"/>
				<path d="M79.2-125.4l-0.1,4.7c0,0,2.8-0.7,2.2-2.7C81.3-123.4,81-125.4,79.2-125.4z"/>
				<polygon class="st1" points="77.6,-21.9 74.6,-27.1 76.8,-26.2 76.1,-28 77.2,-29.2 77.2,-31.4 76.1,-32.6 77.2,-33.7 
					77.2,-36.2 76.1,-37.4 76.8,-39.1 74.6,-37.8 77.6,-43.4 80.8,-38.3 78.9,-39.1 79.6,-37.6 78.3,-36.3 78.3,-33.5 79.2,-32.6 
					78.1,-31.6 78.1,-29.1 79.4,-27.8 78.8,-26.8 80.8,-27.2 				"/>
				<path class="st1" d="M68.7-27l5-0.6l-1.8-0.7l1.8-0.5V-30l1-1l0.5,2.6l1.1-1v-2.6l-0.8,0.8c0,0-0.3-1.3,0.1-1.4l-0.2-1.5
					l0.9,0.5v-1.9l-0.6-1.1c0,0-1.1,0.1-1.1,2.2l-1-0.7v-1.5H72l1.6-1.1l-5.3-0.5l2.5,4.6v-1.8l1.1,1.1l1.2-0.3l0.7,0.7
					c0,0-2.8,0.4-2.8,1.4c0,0,1.2,1.1,3,1.3c0,0,0.2,1-2.2,0.3L71-29.7v-1.8L68.7-27z"/>
				<path class="st1" d="M82.2-27.5l4.9,0.6l-2.4-4.6v1.9L83.8-31h-1.5l-0.5-0.5l2.7-0.8v-0.6L81.8-34l0.7-0.5h1.2l0.7-0.7v1.4
					l2.7-4.4l-5.4,0.4l1.1,1.1h-0.8v1.3l-0.9,0.9l-0.7-2.5c0,0-1.3-0.3-1.3,4s0,0,0,0l0.8-0.8l0.2,2.1l-0.6-0.6c0,0-1.1,1.8,0.6,3.5
					l0.8-1.8l0.9,0.4v1.6h1.7l-1.4,0.4L82.2-27.5L82.2-27.5z"/>
			</g>
			<g>
				<path class="st1" d="M57.4-39.9c0,0-2.1,0.9-5.3-2.9c0,0-2-3.1-2-4.8c0,0-1.5-1.7-2.4-1.7c0,0,3.4-1,4.9,1.2c0,0-0.2,1.9,2,3.4
					c0,0,1.8-0.1,1.6-1.6l-2.3-1.4c0,0,3.6,0,3.6-1.5c0,0,0.8-1.8,0-2.1c0,0-0.4,1-0.4-1.1c0,0,0.4-1.2-1.2-1.2c0,0-1.5-0.3-2.3-1.1
					c0,0,1.3,2.6,2.8,3.1c1.5,0.6,0,0.3,0,0.3s0.8,2.4-0.9,2.4c0,0-0.1-1.4-1.4-1.4c0,0-2.6,1.5-3.3,0c0,0-1.1-2.4-3.5-2.4
					c0,0,1.7-2.3,1-3c0,0,1.3-1.9,3-1.9l1.3-1c0,0,0.3,0.7-1.2,2.2c0,0-1.8,3.1,0.8,4.7c0,0,0.5,0.8,2.8,0.6c0,0-2.3-0.6-2.3-3
					c0,0,0.2-3.5,0.9-2.9c0,0-0.5,1.2,3.3,1.6c0,0,1.1-0.4,1.1,1.6c0,0,0.2,2.3,0.7,0c0.5-2.3,2.7,2.3,2.7,2.3s1.1,1.7-1.4,3.6
					c0,0-0.6,0.9-2.7,1.3c0,0,1.6,0.9-0.8,1.7C56.2-44.8,54.8-43.1,57.4-39.9z"/>
				<path class="st1" d="M61.4-52.2c0,0,0.7-4.3-1.5-5.6c0,0-1.4-1.5-4.5-1.1c0,0-0.8-1.5-1.9-1.5c0,0,0.4,3.6,1.7,3.6s0.3,0,0.3,0
					s2.4,0.1,3.5,1.2C59.1-55.6,61.2-54.4,61.4-52.2z"/>
				<path class="st1" d="M58.1-119.7l-1.5-3.7l1.4,1.4l0.6,2.8l1.2,5.4l0.1,0.6l1.5-4.3v2.2l1,1l-1,2.1l-2.1,0.3l0.3,2l-2.8,4.6
					l4.3-4.3v-1l4.3-1.8l-1.8-1.8c0-1.4-1-5.8-1-5.8l-2.4,3.3l-1-5.1l1.6-0.3l-3.9-2l-1.2-1.2l-2.5,2.6l-3.8,2.7l2.1,0
					c-0.4-0.4,0,3.3,0,3.3l-1.4,2.5l-2-3.4l-1.2,3.9l-1.4,0.9l2.1,0.8l1.6,0.9l3.9,4.9l-2.6-5.9h-1.8v-2.1l2.6,2.9l0.6-5l1.6-1.6
					l-0.4-2.7l0.9-0.9l2,3.7L54-116c0,0,1.4,2.3,0.7,3l-1.7-0.9l2.6,10.5v-8.3c0,0,2.4-0.2,2.4,0.5c0,0-1.5-4.1-1.5-3.7l2-2.9"/>
				<path class="st1" d="M46.1-95.2c0,0-1.9,2.9,2,8c0,0,4.3,4.4,5.9,1.5l1-1c0,0,2.3,2.3,5.3-0.7c0,0,0.1-3.1-1-3.1l-1.2-1.2
					c0,0,0,2.9-1.7,2.9l-2,0.5l-0.9,0.9c0,0-3,0-5.5-2.5C48.2-89.9,46.1-93.7,46.1-95.2z"/>
				<path class="st1" d="M57.1-92v1.1c0,0-1.9,2.6-6.6,0.6c0,0-3.6-2.8-2.8-6.8c0,0-0.7-2.2,3.8-1.7l1.5,1.3c0,0,0.9-4.5,4-4
					c0,0,2.5-0.4,4.3,2.7v0.8c0,0,3.2,1,3.2,2.4c0,0,1.5,2.3,0.6,6.4c0,0-0.1,0.3-0.4-0.6c0,0,0.4-2.8-2.5-5.2c0,0,0.2-0.7-2.6-0.7
					c0,0,0.8-2.3-2.2-3.6c0,0-2.7-1.5-3,1.7c0,0,0.9,1.9-0.9,1.5c0,0-3-0.6-2.2,1.3c0,0,0.6,2.1,3.7,1.9c0,0-2.2-1.6-0.1-2.7
					c0.1,0,0.1-0.1,0.2-0.1c2.4-1.1,7.5,3.1,7.5,3.1s2.4,3.6,1.4,6.9c0,0-1.8,3.3-3.4,4.1c0,0,2.7-2.2,2.2-6.8c0,0-0.9-2.8-3.1-3.6
					c0,0-0.4-1.2-2.8-1.8c0,0-1.5-0.3-0.6,1.2L57.1-92z"/>
				<path class="st1" d="M53.7-140.1c0,0-3.1-0.7-3.3-3.2c0,0,1.1-0.1,2.3,1C53.8-141.2,53.7-140.1,53.7-140.1z"/>
				<path class="st1" d="M57.9-140.1c0,0,0.6-3,3.1-3.3c0,0,0.1,1.1-0.9,2.2C59-140.1,57.9-140.1,57.9-140.1z"/>
				<path class="st1" d="M49.9-143.3c0,0-1.8-0.3-1-1.6c0,0,0.5,0.1,1,0.5S49.9-143.3,49.9-143.3z"/>
				<path class="st1" d="M51.9-139.8l-5.4-0.3c0,0-2.4,1-0.2,1.5h3.5c0,0-5.4,0.1-5,0.5c0,0-1.4,0.2,0,1.2c0,0,0.6,0.2,1.6,0
					l2.5,0.1c0,0-2.4,1.3,0.2,1l1.2-0.5c0,0-3.3,1.3-3,2.4c0,0,3.8-0.7,5.8-2.6c0,0,0.8-0.4-0.3-0.6l-0.9,0.2c0,0,2-0.4,2-1.6
					c0,0-0.8-0.2-2-0.2l0.6-0.2C52.5-139,53-139.3,51.9-139.8z"/>
				<path class="st1" d="M58.3-136.6c0,0,3.9,2.8,6,2.3c0,0,0.2-0.8-3-2l1.9,0.5c0,0,1-0.8-0.7-1.3c0,0,2.6,0.7,4.3-0.5
					c0,0,0.8-0.5-1.5-0.9h-3.5c0,0,5.6-0.4,4-1.1c0,0,1-0.7-6.3-0.3c0,0-0.6,0.3,0,0.9h-1.1c0,0-1.7,0.6,0,1.1c0,0,2.6,0.9,0,0.7
					C58.4-137.1,58.1-136.8,58.3-136.6z"/>
				<path class="st1" d="M52.9-131c0,0,0.3,2.2,0.8,0l0.4-1.3l-0.4,2.3c0,0,0.5,3.3,1.2,0l0.3-1.6v4.6c0,0,0.6,1.2,1-0.2v-1.1
					c0,0,0.4,0.5,0.4-0.4v-3.5l0.3,2.8c0,0,0.6,1.1,1.2-0.4c0,0-0.5-6.3-1.1-6.5c-0.6-0.2-0.6,1.5-0.6,1.5v-2.1c0,0-0.1-1.6-1.3,0
					v1.6c0,0-0.2-1.2-0.9,0.1C54.2-135.3,52.6-131.3,52.9-131z"/>
				<path class="st1" d="M53.6-135.1c0,0-0.3,2.3-3.1,3.5C50.4-131.6,50.9-134.8,53.6-135.1z"/>
				<path class="st1" d="M54.7-139.2v-6.3l-1.3-1.2l-2-1.3c0,0-1.4-0.2,0-0.8H60c0,0,1.2,0.7,0,1c0,0-2.1,0.2-2.9,2.5v5.7
					c0,0,1.2,2-0.8,0.8l-0.6-0.3l-0.4,0.4C55.3-138.7,53.5-138,54.7-139.2z"/>
				<path class="st1" d="M61.4-143.6c0,0,0.3-1.7,1.6-1c0,0-0.1,0.5-0.5,1C62-143.2,61.4-143.6,61.4-143.6z"/>
				<path class="st1" d="M61-131.6c0,0-2.4-0.5-3.3-3.4C57.8-135.1,61-134.3,61-131.6z"/>
				<path class="st1" d="M56.3-152.5v-6.6c0.1-0.3,0.6-0.7,0.4-0.6c-0.6,0.3,2.8-0.1,2.9-2.8c0-0.1,0,0,0,0c0-0.4,0.5-2.1-1.1-3
					c0,0-0.6-0.7-1.8-0.6c-0.3,0-0.6-0.2-0.6-0.5v-0.4c0-0.4,0.4-0.6,0.8-0.5c1,0.6,2.9,1.7,3.3,3c0,0,1.1,2.4-0.9,4.4
					c0,0-0.9,0.8-2.1,1.2c-0.2,0.1-0.4,0.3-0.4,0.5v1.2c0,0.4,0.3,0.6,0.7,0.5c1.5-0.5,4.9-1.9,5.3-4.7c0,0,1.4-4.1-1.8-6.4
					c0,0-0.1,0-0.1-0.1c-0.5-0.2-4.2-1.6-4.7-4.5l0,0l-0.6-1.5c0-0.6-0.5-0.5-0.5,0.2l-0.1,7c0,0.3-0.2,0.5-0.5,0.6
					c-0.8,0.1-2.7,0.9-2.8,3.4c0,0.8,0,0.1,0,0.2c0.2,0.8,0.7,2.3,3,2.7c0.2,0,0.4,0.3,0.4,0.5v0.3c0,0.4-0.4,0.6-0.8,0.4
					c-1-0.6-2.7-1.9-3.2-3.5c0,0,0-0.1,0-0.1c0-0.4-0.3-2.9,1.8-4.4c0,0,0.1-0.2,1.5-0.7c0.2-0.1,0.3-0.3,0.3-0.5l0-1.3
					c0-0.3-0.3-0.6-0.7-0.5c-1.5,0.4-5.2,1.8-5.9,6.1c0,0,0,0,0,0.1c0,0.4,0,4,3.7,5.8c0,0,0,0,0.1,0c0.3,0.1,2.6,0.8,3,3
					c0,0,0.1,1.3,0.6,2.1C55.6-151.8,56.3-152,56.3-152.5z"/>
				<path d="M54.6-160.5v-4.7c0,0-2.8,0.7-2.2,2.7C52.4-162.5,52.7-160.5,54.6-160.5z"/>
				<path d="M56.4-165.2l-0.1,4.7c0,0,2.8-0.7,2.2-2.7C58.5-163.2,58.2-165.2,56.4-165.2z"/>
				<polygon class="st1" points="52.1,-19.9 54.9,-16.8 55.2,-16.8 58.3,-19.9 57.6,-20.6 55.5,-18.4 54.9,-18.4 52.7,-20.6 				"/>
				<path class="st1" d="M60.5-25.8l0.8,0.8l1.5-1.5h3.6c0,0,0.5-1.5,0-1.5s-3.6,0-3.6,0S62.2-30,60.9-30L60-29.3
					c0,0,1.5,0.8,1.5,1.8H59v0.4h2.5C61.5-27.1,62-27,60.5-25.8z"/>
				<polygon class="st1" points="47.8,-21.2 49.5,-22.9 48.4,-24 49.2,-24.9 49.7,-24.4 50.9,-25.6 52.1,-25.6 59.1,-32.7 61,-32.9 
					60.8,-31.1 53.6,-24.6 53.6,-23.8 52.7,-22.9 52.6,-22.1 53,-21.7 52.1,-20.6 50.8,-21.9 48.8,-19.9 				"/>
				<path class="st1" d="M49.6-24.9c0,0-1.4-1.2-1.1-1.5h-3.3c0,0-0.8-0.7,0-1.5h3.2l1.7-1.7c0,0,1.4-0.3,0.7,0.9l-0.9,0.9
					c0,0-0.7,0.6,0.5,0.6h1.7v0.4h-2c0,0-1-0.1,0,0.8l0.7,0.4L49.6-24.9z"/>
				<polygon class="st1" points="59.9,-21.6 61.6,-19.6 62.8,-20.9 61,-22.6 62.5,-23.8 61.6,-24.7 60.8,-24.3 59.5,-25.6 
					58.4,-25.6 57.2,-26.8 55.8,-25.3 56.8,-24.3 56.8,-23.5 58,-22.6 58,-21.9 57.4,-21.4 58.5,-20.3 				"/>
				<polygon class="st1" points="53.1,-27.6 54.8,-29 50.9,-32.8 48.9,-33.2 49.2,-31.4 				"/>
				<polygon class="st1" points="54.9,-30.7 54.9,-33.2 53.3,-31.7 52.1,-32.7 55.2,-35.8 58.2,-33 56.9,-31.7 55.4,-33.2 
					55.3,-30.7 				"/>
				<polygon class="st1" points="51.9,-33.8 51,-34.3 54.9,-38.1 59.4,-34.3 58.7,-33.6 55.3,-36.6 54.9,-36.6 				"/>
				<polygon class="st1" points="55.1,-18.7 52.7,-20.9 53.8,-22 54.8,-20.9 54.8,-23.7 55.2,-23.7 55.2,-21 56.3,-22.1 57.4,-20.9 
									"/>
				<polygon class="st1" points="54.8,-61.7 51.8,-66.9 54,-66 53.3,-67.8 54.5,-69 54.5,-71.3 53.3,-72.4 54.5,-73.5 54.5,-76.1 
					53.3,-77.2 54,-78.9 51.8,-77.7 54.8,-83.2 58,-78.1 56.2,-78.9 56.8,-77.4 55.5,-76.1 55.5,-73.3 56.4,-72.5 55.3,-71.4 
					55.3,-68.9 56.6,-67.6 56,-66.6 58,-67 				"/>
				<path class="st1" d="M45.9-66.8l5-0.6L49-68.1l1.8-0.5v-1.3l1-1l0.5,2.6l1.1-1v-2.6l-0.8,0.8c0,0-0.3-1.3,0.1-1.4l-0.2-1.5
					l0.9,0.5v-1.9l-0.6-1.1c0,0-1.1,0.1-1.1,2.2l-1-0.7v-1.5h-1.5l1.6-1.1l-5.3-0.5l2.5,4.6v-1.8l1.1,1.1l1.2-0.3l0.7,0.7
					c0,0-2.8,0.4-2.8,1.4c0,0,1.2,1.1,3,1.3c0,0,0.2,1-2.2,0.3l-0.7,1.3v-1.8L45.9-66.8z"/>
				<path class="st1" d="M59.5-67.4l4.9,0.6l-2.5-4.6v1.9L61-70.8h-1.5L59-71.2l2.7-0.8v-0.6L59-73.9l0.7-0.5h1.2l0.7-0.7v1.4
					l2.7-4.4L59-77.7l1.1,1.1h-0.8v1.3l-0.9,0.9l-0.7-2.5c0,0-1.3-0.3-1.3,4c0,4.4,0,0,0,0l0.8-0.8l0.2,2.1l-0.6-0.6
					c0,0-1.1,1.8,0.6,3.5l0.8-1.8l0.9,0.4v1.6h1.7L59.4-68L59.5-67.4L59.5-67.4z"/>
			</g>
			<g>
				<path class="st1" d="M34.6-79.7c0,0-2.1,0.9-5.3-2.9c0,0-2-3.1-2-4.8c0,0-1.5-1.7-2.4-1.7c0,0,3.4-1,4.9,1.2c0,0-0.2,1.9,2,3.4
					c0,0,1.8-0.1,1.6-1.6L31-87.5c0,0,3.6,0,3.6-1.5c0,0,0.8-1.8,0-2.1c0,0-0.4,1-0.4-1.1c0,0,0.4-1.2-1.2-1.2c0,0-1.5-0.3-2.3-1.1
					c0,0,1.3,2.6,2.8,3.2c1.5,0.6,0,0.3,0,0.3s0.8,2.4-0.9,2.4c0,0-0.1-1.4-1.4-1.4c0,0-2.6,1.5-3.3,0c0,0-1.1-2.4-3.5-2.4
					c0,0,1.7-2.3,1-3c0,0,1.3-1.9,3-1.9l1.3-1c0,0,0.3,0.7-1.2,2.2c0,0-1.8,3.1,0.8,4.7c0,0,0.5,0.8,2.8,0.6c0,0-2.3-0.6-2.3-3
					c0,0,0.2-3.5,0.9-2.9c0,0-0.5,1.2,3.3,1.6c0,0,1.1-0.4,1.1,1.6c0,0,0.2,2.3,0.7,0s2.7,2.3,2.7,2.3s1.1,1.7-1.4,3.6
					c0,0-0.6,0.9-2.7,1.3c0,0,1.6,0.9-0.8,1.7C33.5-84.6,32-82.9,34.6-79.7z"/>
				<path class="st1" d="M38.6-92c0,0,0.7-4.3-1.5-5.6c0,0-1.4-1.5-4.5-1.1c0,0-0.8-1.5-1.9-1.5c0,0,0.4,3.6,1.7,3.6
					c1.2,0,0.3,0,0.3,0s2.4,0.1,3.5,1.2C36.3-95.4,38.4-94.3,38.6-92z"/>
				<path class="st1" d="M35.3-159.5l-1.5-3.6l1.4,1.4l0.6,2.8l1.2,5.4l0.1,0.6l1.5-4.3v2.2l1,1l-1,2.1l-2.1,0.4l0.3,2l-2.8,4.6
					l4.3-4.3v-1l4.3-1.8l-1.8-1.8c0-1.4-1-5.8-1-5.8l-2.4,3.3l-1-5.1l1.6-0.3l-3.9-2l-1.2-1.2l-2.5,2.6l-3.8,2.7l2.1,0
					c-0.4-0.4,0,3.3,0,3.3l-1.4,2.5l-2-3.4l-1.2,3.9l-1.4,0.9l2.1,0.8l1.6,0.9l3.9,4.9l-2.6-5.9H26v-2.1l2.6,2.9l0.6-5l1.6-1.6
					l-0.4-2.7l0.9-0.9l2,3.7l-1.9,1.9c0,0,1.4,2.3,0.7,3l-1.7-0.9l2.6,10.5v-8.3c0,0,2.4-0.2,2.4,0.5c0,0-1.5-4.1-1.5-3.7l2-2.9"/>
				<path class="st1" d="M23.3-135c0,0-1.9,2.9,2,8c0,0,4.3,4.4,5.9,1.5l1-1c0,0,2.3,2.3,5.3-0.7c0,0,0.1-3.1-1-3.1l-1.2-1.2
					c0,0,0,2.9-1.7,2.9l-2,0.5l-0.9,0.9c0,0-3,0-5.5-2.5C25.4-129.7,23.3-133.5,23.3-135z"/>
				<path class="st1" d="M34.3-131.8v1.1c0,0-1.9,2.6-6.6,0.6c0,0-3.6-2.9-2.8-6.8c0,0-0.7-2.2,3.8-1.7l1.5,1.4c0,0,0.9-4.5,4-4
					c0,0,2.5-0.4,4.3,2.6v0.8c0,0,3.2,1,3.2,2.4c0,0,1.5,2.3,0.6,6.4c0,0-0.1,0.3-0.4-0.6c0,0,0.4-2.8-2.5-5.2c0,0,0.2-0.7-2.6-0.7
					c0,0,0.8-2.3-2.2-3.6c0,0-2.7-1.5-3,1.7c0,0,0.9,1.9-0.9,1.5c0,0-3-0.6-2.2,1.3c0,0,0.6,2.1,3.7,1.9c0,0-2.1-1.6-0.1-2.7
					c0.1,0,0.1-0.1,0.2-0.1c2.4-1.1,7.5,3.1,7.5,3.1s2.4,3.6,1.3,6.9c0,0-1.8,3.3-3.4,4.1c0,0,2.7-2.2,2.2-6.8c0,0-0.9-2.8-3.1-3.6
					c0,0-0.4-1.2-2.8-1.8c0,0-1.5-0.3-0.6,1.2L34.3-131.8z"/>
				<path class="st1" d="M29.1-179.6l-5.4-0.3c0,0-2.4,1-0.2,1.5H27c0,0-5.4,0.1-5,0.5c0,0-1.4,0.2,0,1.2c0,0,0.6,0.2,1.6,0l2.5,0.1
					c0,0-2.4,1.3,0.2,1l1.1-0.5c0,0-3.3,1.3-3,2.4c0,0,3.8-0.7,5.8-2.6c0,0,0.8-0.4-0.3-0.6l-0.9,0.2c0,0,2-0.4,2-1.6
					c0,0-0.8-0.2-2-0.2l0.6-0.2C29.7-178.9,30.2-179.1,29.1-179.6z"/>
				<path class="st1" d="M35.5-176.4c0,0,3.9,2.8,6,2.3c0,0,0.2-0.8-3-2l1.9,0.5c0,0,1-0.9-0.7-1.3c0,0,2.6,0.7,4.3-0.5
					c0,0,0.8-0.5-1.5-0.9H39c0,0,5.6-0.4,4-1.1c0,0,1-0.6-6.3-0.3c0,0-0.6,0.3,0,0.9h-1.1c0,0-1.7,0.6,0,1.1c0,0,2.6,0.9,0,0.7
					C35.6-176.9,35.3-176.6,35.5-176.4z"/>
				<path class="st1" d="M30.1-170.8c0,0,0.3,2.2,0.8,0l0.4-1.3l-0.4,2.3c0,0,0.5,3.3,1.2,0l0.3-1.6v4.6c0,0,0.6,1.1,1-0.2v-1.1
					c0,0,0.4,0.5,0.4-0.4v-3.5l0.3,2.8c0,0,0.6,1.1,1.2-0.4c0,0-0.5-6.3-1.1-6.5s-0.6,1.5-0.6,1.5v-2.1c0,0-0.1-1.6-1.3,0v1.6
					c0,0-0.2-1.2-0.9,0.1C31.4-175.1,29.8-171.1,30.1-170.8z"/>
				<path class="st1" d="M30.8-174.9c0,0-0.3,2.3-3.1,3.5C27.6-171.4,28.1-174.6,30.8-174.9z"/>
				<path class="st1" d="M38.2-171.5c0,0-2.4-0.5-3.3-3.4C35-174.9,38.2-174.1,38.2-171.5z"/>
				<polygon class="st1" points="29.3,-59.7 32.1,-56.7 32.5,-56.7 35.5,-59.7 34.8,-60.4 32.8,-58.2 32.1,-58.2 29.9,-60.4 				"/>
				<path class="st1" d="M37.7-65.6l0.8,0.8l1.5-1.5h3.6c0,0,0.5-1.5,0-1.5s-3.6,0-3.6,0s-0.6-1.9-1.9-1.9l-0.9,0.7
					c0,0,1.5,0.8,1.5,1.8h-2.5v0.4h2.5C38.7-67,39.3-66.8,37.7-65.6z"/>
				<polygon class="st1" points="25,-61 26.7,-62.7 25.6,-63.8 26.5,-64.7 26.9,-64.2 28.2,-65.4 29.3,-65.4 36.3,-72.5 38.2,-72.7 
					38,-70.9 30.8,-64.4 30.8,-63.6 30,-62.7 29.8,-61.9 30.2,-61.5 29.3,-60.4 28,-61.7 26,-59.7 				"/>
				<path class="st1" d="M26.8-64.7c0,0-1.4-1.2-1.1-1.5h-3.4c0,0-0.8-0.7,0-1.5h3.2l1.7-1.7c0,0,1.4-0.3,0.7,0.9L27-67.6
					c0,0-0.7,0.6,0.5,0.6h1.7v0.4h-2c0,0-1-0.1,0,0.8l0.7,0.4L26.8-64.7z"/>
				<polygon class="st1" points="37.1,-61.5 38.8,-59.4 40,-60.7 38.3,-62.4 39.7,-63.6 38.8,-64.6 38.1,-64.1 36.8,-65.4 
					35.6,-65.4 34.5,-66.6 33,-65.1 34.1,-64.1 34.1,-63.3 35.2,-62.4 35.2,-61.7 34.7,-61.2 35.8,-60.1 				"/>
				<polygon class="st1" points="30.3,-67.4 32,-68.8 28.2,-72.6 26.1,-73 26.4,-71.2 				"/>
				<polygon class="st1" points="32.1,-70.5 32.1,-73 30.6,-71.5 29.3,-72.6 32.4,-75.6 35.4,-72.8 34.2,-71.5 32.6,-73 32.5,-70.5 
									"/>
				<polygon class="st1" points="29.1,-73.6 28.2,-74.1 32.1,-77.9 36.6,-74.1 35.9,-73.4 32.5,-76.4 32.1,-76.4 				"/>
				<polygon class="st1" points="32.3,-58.5 30,-60.8 31,-61.8 32,-60.7 32,-63.5 32.4,-63.5 32.4,-60.8 33.5,-61.9 34.7,-60.8 				
					"/>
				<polygon class="st1" points="32,-101.5 29,-106.7 31.2,-105.8 30.5,-107.7 31.7,-108.8 31.7,-111.1 30.5,-112.2 31.7,-113.4 
					31.7,-115.9 30.5,-117 31.2,-118.7 29,-117.5 32,-123.1 35.2,-117.9 33.4,-118.7 34.1,-117.2 32.8,-115.9 32.8,-113.1 
					33.6,-112.3 32.6,-111.2 32.6,-108.7 33.8,-107.4 33.3,-106.4 35.2,-106.9 				"/>
				<path class="st1" d="M23.1-106.6l5-0.6l-1.8-0.7l1.8-0.5v-1.3l1-1l0.5,2.6l1.1-1v-2.6l-0.8,0.8c0,0-0.3-1.3,0.1-1.4l-0.2-1.5
					l0.9,0.5v-1.9l-0.6-1.1c0,0-1.1,0.1-1.1,2.2l-1-0.7v-1.5h-1.5l1.6-1.1l-5.3-0.5l2.5,4.6v-1.8l1.1,1.1l1.2-0.3l0.7,0.7
					c0,0-2.8,0.4-2.8,1.4c0,0,1.2,1.1,3,1.3c0,0,0.2,1-2.2,0.3l-0.7,1.3v-1.8L23.1-106.6z"/>
				<path class="st1" d="M36.7-107.2l4.9,0.6l-2.5-4.6v1.9l-0.9-1.3h-1.5l-0.5-0.5l2.7-0.8v-0.6l-2.7-1.3l0.7-0.5h1.2l0.7-0.7v1.4
					l2.7-4.4l-5.4,0.4l1.1,1.1h-0.8v1.3l-0.9,0.9l-0.7-2.5c0,0-1.3-0.3-1.3,4c0,4.4,0,0,0,0l0.8-0.8l0.2,2.1l-0.6-0.6
					c0,0-1.1,1.8,0.6,3.5l0.8-1.8l0.9,0.4v1.6h1.7l-1.4,0.4L36.7-107.2L36.7-107.2z"/>
			</g>
			<g>
				<path class="st1" d="M12.6-40.1l-1.4-3.6l1.4,1.4l0.6,2.8l1.2,5.4l0.1,0.6l1.5-4.3v2.2l1,1l-1,2.1l-2.1,0.4l0.4,2l-2.8,4.6
					l4.3-4.3v-1l4.3-1.8l-1.8-1.8c0-1.4-1-5.8-1-5.8l-2.4,3.3l-1-5.1l1.6-0.4l-3.9-2l-1.2-1.2l-2.6,2.6l-3.8,2.7l2.1,0
					c-0.4-0.4,0,3.3,0,3.3l-1.4,2.5l-2-3.4l-1.1,3.9L0-33.2l2.1,0.8l1.6,0.9l3.9,4.9L5-32.5H3.2v-2.1l2.6,2.9l0.6-5l1.6-1.6
					l-0.4-2.7l0.9-0.9l2,3.6l-1.9,1.9c0,0,1.4,2.3,0.7,3l-1.7-0.9L10-23.7V-32c0,0,2.4-0.2,2.4,0.5c0,0-1.5-4.1-1.5-3.6l2-2.9"/>
				<path class="st1" d="M11.5-12.3v1.1c0,0-1.9,2.6-6.6,0.6c0,0-3.6-2.9-2.8-6.8c0,0-0.7-2.2,3.8-1.7l1.5,1.4c0,0,0.9-4.5,4-4
					c0,0,2.5-0.4,4.3,2.6v0.8c0,0,3.2,1,3.2,2.4c0,0,1.5,2.3,0.6,6.4c0,0-0.1,0.3-0.4-0.6c0,0,0.4-2.8-2.5-5.2c0,0,0.2-0.7-2.6-0.7
					c0,0,0.8-2.3-2.2-3.6c0,0-2.7-1.5-3,1.7c0,0,0.9,1.9-0.9,1.5c0,0-3.1-0.6-2.2,1.4c0,0,0.6,2.1,3.7,1.9c0,0-2.2-1.6-0.1-2.7
					c0.1,0,0.1-0.1,0.2-0.1c2.4-1.1,7.5,3.1,7.5,3.1s2.4,3.6,1.4,6.9c0,0-1.8,3.3-3.4,4.1c0,0,2.7-2.2,2.2-6.8c0,0-0.9-2.8-3.1-3.6
					c0,0-0.4-1.2-2.8-1.8c0,0-1.5-0.3-0.6,1.2L11.5-12.3z"/>
				<path class="st1" d="M12.3-60.5c0,0,0.6-3,3.1-3.3c0,0,0.1,1.1-0.9,2.2C13.5-60.5,12.3-60.5,12.3-60.5z"/>
				<path class="st1" d="M12.8-57c0,0,3.9,2.8,6,2.3c0,0,0.2-0.8-3-2l1.9,0.5c0,0,1-0.8-0.7-1.3c0,0,2.6,0.7,4.3-0.5
					c0,0,0.8-0.5-1.5-0.9h-3.5c0,0,5.6-0.4,4-1.1c0,0,1-0.7-6.3-0.3c0,0-0.6,0.3,0,0.9h-1.1c0,0-1.7,0.6,0,1.1c0,0,2.6,0.9,0,0.7
					C12.8-57.4,12.5-57.2,12.8-57z"/>
				<path class="st1" d="M7.3-51.4c0,0,0.3,2.2,0.8,0l0.4-1.3l-0.4,2.3c0,0,0.5,3.3,1.2,0L9.7-52v4.6c0,0,0.6,1.1,1.1-0.2v-1.1
					c0,0,0.4,0.5,0.4-0.4v-3.5l0.3,2.8c0,0,0.6,1.1,1.2-0.4c0,0-0.5-6.3-1.1-6.5c-0.6-0.2-0.6,1.5-0.6,1.5v-2.1c0,0-0.1-1.6-1.3,0
					v1.6c0,0-0.2-1.2-0.9,0.1C8.6-55.7,7.1-51.6,7.3-51.4z"/>
				<path class="st1" d="M9.2-59.6v-6.3l-1.3-1.2l-2-1.3c0,0-1.4-0.2,0-0.8h8.5c0,0,1.2,0.7,0,1.1c0,0-2.1,0.2-2.9,2.5v5.7
					c0,0,1.2,2-0.8,0.8l-0.6-0.3l-0.4,0.4C9.7-59.1,7.9-58.4,9.2-59.6z"/>
				<path class="st1" d="M15.8-64c0,0,0.3-1.7,1.6-1c0,0-0.1,0.5-0.5,1C16.4-63.6,15.8-64,15.8-64z"/>
				<path class="st1" d="M15.5-52c0,0-2.4-0.5-3.3-3.4C12.2-55.4,15.5-54.6,15.5-52z"/>
				<path class="st1" d="M10.7-72.9v-6.6c0.1-0.3,0.6-0.7,0.4-0.6c-0.6,0.3,2.9-0.1,2.9-2.8c0-0.1,0,0.1,0,0c0-0.4,0.4-2.1-1.1-3
					c0,0-0.6-0.7-1.9-0.6c-0.3,0-0.6-0.2-0.6-0.5v-0.4c0-0.4,0.4-0.6,0.8-0.5c1.1,0.6,2.9,1.7,3.3,3c0,0,1.1,2.4-0.9,4.4
					c0,0-0.9,0.8-2.1,1.2c-0.2,0.1-0.4,0.3-0.4,0.5v1.2c0,0.3,0.3,0.6,0.7,0.5c1.5-0.5,4.9-1.9,5.4-4.7c0,0,1.4-4.1-1.9-6.4
					c0,0-0.1-0.1-0.1-0.1c-0.6-0.2-4.2-1.6-4.7-4.5l0,0l-0.6-1.5c0-0.7-0.5-0.5-0.5,0.2l-0.1,7c0,0.3-0.2,0.5-0.5,0.6
					C8-86.3,6-85.5,5.9-83c0,0.8,0,0.1,0,0.2c0.2,0.8,0.7,2.3,2.9,2.7c0.2,0.1,0.4,0.3,0.4,0.5v0.3c0,0.4-0.4,0.7-0.8,0.4
					c-1-0.6-2.7-1.8-3.2-3.5c0,0,0-0.1,0-0.1c-0.1-0.4-0.3-2.9,1.8-4.4c0,0,0.1-0.2,1.5-0.7c0.2-0.1,0.3-0.3,0.4-0.5l0-1.3
					c0-0.3-0.3-0.6-0.6-0.5c-1.5,0.4-5.2,1.8-5.9,6.1c0,0,0,0.1,0,0.1c0,0.4,0,4,3.7,5.8c0,0,0.1,0,0.1,0c0.3,0.1,2.6,0.8,3,3.1
					c0,0,0.1,1.3,0.6,2.1C10.1-72.2,10.7-72.4,10.7-72.9z"/>
				<path d="M10.8-85.6l-0.1,4.7c0,0,2.8-0.7,2.2-2.7C13-83.6,12.7-85.6,10.8-85.6z"/>
			</g>
			<g>
				<path class="st1" d="M30.9-20.7c0,0-3.1-0.7-3.3-3.2c0,0,1.1-0.1,2.3,1C31-21.8,30.9-20.7,30.9-20.7z"/>
				<path class="st1" d="M35.1-20.7c0,0,0.6-3,3.1-3.3c0,0,0.1,1.1-0.9,2.2S35.1-20.7,35.1-20.7z"/>
				<path class="st1" d="M27.1-23.9c0,0-1.8-0.3-1-1.6c0,0,0.5,0.1,1,0.5C27.5-24.5,27.1-23.9,27.1-23.9z"/>
				<path class="st1" d="M29.1-20.4l-5.4-0.3c0,0-2.4,1-0.2,1.5H27c0,0-5.4,0.1-5,0.5c0,0-1.4,0.2,0,1.2c0,0,0.6,0.2,1.6,0l2.5,0.1
					c0,0-2.4,1.3,0.2,1l1.1-0.5c0,0-3.3,1.3-3,2.4c0,0,3.8-0.7,5.8-2.6c0,0,0.8-0.4-0.3-0.6l-0.9,0.2c0,0,2-0.4,2-1.6
					c0,0-0.8-0.2-2-0.2l0.6-0.2C29.7-19.6,30.2-19.8,29.1-20.4z"/>
				<path class="st1" d="M35.5-17.2c0,0,3.9,2.8,6,2.3c0,0,0.2-0.8-3-2l1.9,0.5c0,0,1-0.9-0.7-1.3c0,0,2.6,0.7,4.3-0.5
					c0,0,0.8-0.5-1.5-0.9H39c0,0,5.6-0.4,4-1.1c0,0,1-0.6-6.3-0.3c0,0-0.6,0.3,0,0.9h-1.1c0,0-1.7,0.6,0,1.1c0,0,2.6,0.9,0,0.7
					C35.6-17.6,35.3-17.3,35.5-17.2z"/>
				<path class="st1" d="M30.1-11.6c0,0,0.3,2.2,0.8,0l0.4-1.3l-0.4,2.3c0,0,0.5,3.3,1.2,0l0.3-1.6v4.6c0,0,0.6,1.1,1-0.2v-1.1
					c0,0,0.4,0.5,0.4-0.4v-3.5l0.3,2.8c0,0,0.6,1.1,1.2-0.4c0,0-0.5-6.3-1.1-6.5s-0.6,1.5-0.6,1.5v-2.1c0,0-0.1-1.6-1.3,0v1.6
					c0,0-0.2-1.2-0.9,0.1C31.4-15.8,29.8-11.8,30.1-11.6z"/>
				<path class="st1" d="M32-19.8v-6.3l-1.3-1.2l-2-1.3c0,0-1.4-0.2,0-0.8h8.5c0,0,1.2,0.7,0,1.1c0,0-2.1,0.2-2.9,2.5v5.7
					c0,0,1.2,2-0.8,0.8l-0.6-0.3l-0.4,0.4C32.5-19.3,30.7-18.6,32-19.8z"/>
				<path class="st1" d="M38.6-24.2c0,0,0.3-1.7,1.6-1c0,0-0.1,0.5-0.5,1S38.6-24.2,38.6-24.2z"/>
				<path class="st1" d="M33.5-33.1v-6.6c0.1-0.3,0.6-0.6,0.4-0.6c-0.6,0.3,2.8-0.1,2.9-2.8c0-0.1,0,0.1,0,0c0-0.4,0.5-2.1-1.1-3
					c0,0-0.6-0.7-1.8-0.6c-0.3,0-0.6-0.2-0.6-0.5v-0.4c0-0.4,0.4-0.6,0.8-0.5c1,0.6,2.9,1.7,3.3,3c0,0,1.1,2.4-0.9,4.4
					c0,0-0.9,0.8-2.1,1.2c-0.2,0.1-0.4,0.3-0.4,0.5v1.2c0,0.4,0.3,0.6,0.7,0.5c1.5-0.5,4.9-1.9,5.3-4.7c0,0,1.3-4.1-1.8-6.4
					c0,0-0.1-0.1-0.1-0.1c-0.5-0.2-4.2-1.6-4.7-4.5l0,0l-0.6-1.5c0-0.7-0.5-0.5-0.5,0.2l-0.1,7c0,0.3-0.2,0.5-0.5,0.6
					c-0.8,0.1-2.7,0.9-2.8,3.4c0,0.8,0,0.1,0,0.2c0.2,0.8,0.7,2.3,3,2.7c0.2,0.1,0.4,0.3,0.4,0.5v0.3c0,0.4-0.4,0.6-0.8,0.4
					c-1-0.6-2.7-1.9-3.2-3.5c0,0,0-0.1,0-0.1c0-0.4-0.3-2.9,1.8-4.4c0,0,0.1-0.2,1.5-0.6c0.2-0.1,0.3-0.3,0.4-0.5l0-1.3
					c0-0.3-0.3-0.6-0.6-0.5c-1.5,0.4-5.1,1.8-5.9,6.1c0,0,0,0.1,0,0.1c0,0.4,0,4,3.7,5.8c0,0,0,0,0.1,0c0.3,0.1,2.6,0.8,3,3.1
					c0,0,0.1,1.3,0.6,2.1C32.8-32.4,33.5-32.6,33.5-33.1z"/>
				<path d="M31.8-41.1v-4.7c0,0-2.8,0.7-2.2,2.7C29.6-43,30-41.1,31.8-41.1z"/>
				<path d="M33.6-45.8l-0.1,4.7c0,0,2.8-0.7,2.2-2.7C35.8-43.8,35.5-45.7,33.6-45.8z"/>
			</g>
		</g>
	</g>
</pattern>
<path class="st2" d="M92.9,161.9H18c-9.7,0-17.5-7.9-17.5-17.5V18C0.5,8.4,8.4,0.5,18,0.5h74.9c9.7,0,17.5,7.9,17.5,17.5v126.4
	C110.4,154.1,102.6,161.9,92.9,161.9z"/>
<pattern  id="SVGID_00000112624791758381381800000009403897278964052409_" xlink:href="#SVGID_1_" patternTransform="matrix(1 0 0 -1 -9 -17277.3418)">
</pattern>
<path style="fill:url(#SVGID_00000112624791758381381800000009403897278964052409_);stroke:#000000;stroke-miterlimit:10;" d="
	M93.3,162.3H18.4c-9.7,0-17.5-7.9-17.5-17.5V18.4c0-9.7,7.9-17.5,17.5-17.5h74.9c9.7,0,17.5,7.9,17.5,17.5v126.3
	C110.8,154.5,103,162.3,93.3,162.3z"/>
</svg>
