<?xml version="1.0" encoding="utf-8"?>
<!-- Generator: Adobe Illustrator 28.1.0, SVG Export Plug-In . SVG Version: 6.00 Build 0)  -->
<svg version="1.1" id="Layer_1" xmlns="http://www.w3.org/2000/svg" xmlns:xlink="http://www.w3.org/1999/xlink" x="0px" y="0px"
	 viewBox="0 0 26.5 38.8" style="enable-background:new 0 0 26.5 38.8;" xml:space="preserve">
<style type="text/css">
	.st0{fill:#330000;stroke:#000000;stroke-width:0.25;stroke-miterlimit:10;}
	.st1{fill:#FF0128;}
</style>
<path class="st0" d="M22.2,38.7H4.3c-2.3,0-4.2-1.9-4.2-4.2V4.3C0.1,2,2,0.1,4.3,0.1h17.9c2.3,0,4.2,1.9,4.2,4.2v30.2
	C26.4,36.8,24.5,38.7,22.2,38.7z"/>
<g>
	<path class="st1" d="M15.9,24.1c0,0,1.3,0.4,1.3-1.8c0,0,0.2-2.6,0.8,0c0.6,2.6,3.1-2.6,3.1-2.6s1.3-1.9-1.5-4.1c0,0-0.7-1-3.1-1.5
		c0,0,1.9-1.1-0.9-1.9c0,0-1.6-1.9,1.3-5.5c0,0-2.4-1-6,3.3c0,0-2.3,3.5-2.3,5.4c0,0-1.7,2-2.8,2c0,0,3.8,1.1,5.5-1.4
		c0,0-0.2-2.2,2.3-3.9c0,0,2.1,0.1,1.8,1.8l-2.7,1.6c0,0,4.1,0,4.1,1.7c0,0,0.9,2,0,2.3c0,0-0.5-1.2-0.5,1.3c0,0,0.5,1.4-1.4,1.4
		c0,0-1.8,0.3-2.7,1.2c0,0,1.4-2.9,3.1-3.6c1.7-0.7,0-0.4,0-0.4s0.9-2.7-1-2.7c0,0-0.1,1.5-1.5,1.5c0,0-3-1.7-3.8,0
		c0,0-1.3,2.7-4,2.7c0,0,1.9,2.6,1.2,3.4c0,0,1.5,2.2,3.5,2.2l1.4,1.1c0,0,0.3-0.7-1.4-2.5c0,0-2.1-3.5,0.9-5.3c0,0,0.5-0.9,3.1-0.7
		c0,0-2.6,0.7-2.6,3.4c0,0,0.3,4,1,3.3C12.1,26,11.5,24.6,15.9,24.1z"/>
	<path class="st1" d="M21.3,20.7c-0.3,2.5-2.6,3.8-2.6,3.8c-1.3,1.3-4,1.4-4,1.4c-0.1,0-0.2,0-0.3,0c-1.4,0-1.9,4.1-1.9,4.1
		c1.2,0,2.2-1.7,2.2-1.7c3.5,0.5,5.1-1.2,5.1-1.2C22,25.6,21.3,20.7,21.3,20.7z"/>
</g>
</svg>
