<?xml version="1.0" encoding="utf-8"?>
<!-- Generator: Adobe Illustrator 28.1.0, SVG Export Plug-In . SVG Version: 6.00 Build 0)  -->
<svg version="1.1" id="Layer_1" xmlns="http://www.w3.org/2000/svg" xmlns:xlink="http://www.w3.org/1999/xlink" x="0px" y="0px"
	 viewBox="0 0 512 512" style="enable-background:new 0 0 512 512;" xml:space="preserve">
<style type="text/css">
	.st0{fill:#330000;stroke:#000000;stroke-miterlimit:10;}
	.st1{fill:#FF0128;}
</style>
<path class="st0" d="M293.85,336.96h-74.87c-9.68,0-17.53-7.85-17.53-17.53V193.08c0-9.68,7.85-17.53,17.53-17.53h74.87
	c9.68,0,17.53,7.85,17.53,17.53v126.35C311.39,329.11,303.54,336.96,293.85,336.96z"/>
<g>
	<path class="st1" d="M267.33,276.1c0,0,5.33,1.81,5.33-7.74c0,0,0.86-10.84,3.18,0c2.32,10.84,12.9-10.84,12.9-10.84
		s5.42-8-6.45-17.03c0,0-2.84-4.13-12.9-6.19c0,0,7.81-4.45-3.87-8.13c0,0-6.71-7.87,5.42-23.1c0,0-10.06-4.39-25.03,13.94
		c0,0-9.55,14.71-9.55,22.71c0,0-6.97,8.26-11.61,8.26c0,0,16,4.65,23.1-5.68c0,0-0.9-9.29,9.68-16.13c0,0,8.65,0.26,7.55,7.55
		l-11.16,6.52c0,0,17.03,0,17.03,7.23c0,0,3.87,8.52,0,9.81c0,0-2.06-4.9-2.06,5.42c0,0,2.06,5.68-5.68,5.68
		c0,0-7.35,1.42-11.1,5.16c0,0,6.02-12.21,13.16-14.97c7.14-2.75,0-1.55,0-1.55s3.61-11.35-4.39-11.35c0,0-0.52,6.45-6.45,6.45
		c0,0-12.39-7.23-15.74,0c0,0-5.42,11.35-16.77,11.35c0,0,7.94,11.03,4.9,14.06c0,0,6.19,9.16,14.45,9.16l6.02,4.65
		c0,0,1.46-3.1-5.76-10.32c0,0-8.76-14.74,3.61-22.19c0,0,2.15-3.87,13.16-2.84c0,0-11.01,2.84-11.01,14.19c0,0,1.2,16.77,4.3,13.68
		C251.59,283.84,249.01,278.16,267.33,276.1z"/>
	<path class="st1" d="M289.99,261.64c-1.09,10.58-11.04,15.87-11.04,15.87c-5.48,5.48-16.77,5.81-16.77,5.81c-0.36,0-0.78,0-1.29,0
		c-5.94,0-8,17.29-8,17.29c5.16,0,9.03-7.23,9.03-7.23c14.62,2.06,21.16-5.16,21.16-5.16C293.14,282.03,289.99,261.64,289.99,261.64
		z"/>
</g>
</svg>
