<?xml version="1.0" encoding="utf-8"?>
<!-- Generator: Adobe Illustrator 28.1.0, SVG Export Plug-In . SVG Version: 6.00 Build 0)  -->
<svg version="1.1" id="Layer_1" xmlns="http://www.w3.org/2000/svg" xmlns:xlink="http://www.w3.org/1999/xlink" x="0px" y="0px"
	 viewBox="0 0 110.9 162.4" style="enable-background:new 0 0 110.9 162.4;" xml:space="preserve">
<style type="text/css">
	.st0{fill:#003366;stroke:#000000;stroke-miterlimit:10;}
	.st1{fill:#21A0CE;}
</style>
<path class="st0" d="M92.9,161.9H18c-9.7,0-17.5-7.9-17.5-17.5V18C0.5,8.3,8.4,0.5,18,0.5h74.9c9.7,0,17.5,7.9,17.5,17.5v126.3
	C110.4,154.1,102.6,161.9,92.9,161.9z"/>
<g>
	<polygon class="st1" points="63.7,103.7 57.8,97.7 57.8,85.1 61.6,81.2 56.9,76.4 56.9,64.9 62.6,59.2 60.1,54.6 68.9,56.7 
		54.4,32.4 41,56.2 50.8,52 47.7,60.3 52.9,65.5 52.9,75.8 47.7,80.9 52.9,86.1 52.9,97.5 47.7,102.6 50.8,110.4 41,104.7 54.4,130 
		68.9,106.7 60.6,110.4 	"/>
	<path class="st1" d="M36,92.9l4.4-3.4c0,9.5,5.2,10.1,5.2,10.1l2.6-5.2v-8.8l-3.9,2.1l1-6.6c-1.8-0.4-0.6-6.2-0.6-6.2l3.5,3.5V66.9
		l-4.9-4.6l-2.1,11.6l-4.6-4.6v-5.7l-8.3-2.1l8.3-3.1l-22.4-2.8l10.6,20.6v-8.3l3.1,5.7c11.1-2.8,10.1,1.6,10.1,1.6
		c-8,1.3-13.4,6.1-13.4,6.1c0,4.8,12.5,6.5,12.5,6.5l-3,3l-5.4-1.5l-4.9,5.2V86l-11.4,20.9l24-2.1L29,99.7h7L36,92.9L36,92.9z"/>
	<path class="st1" d="M85.5,93.2l-3.4-3.4h-5.4l-3.4-2.3l12.1-5.7v-2.6l-12.1-3.6l2.1-2.1h7l4.1-5.9v8.8l11.1-20.9l-22.2,2.6v3.1
		l6.5,1.8h-7.7v7.2L70,72.1l-3.6-8.3c-7.7,7.7-2.8,15.7-2.8,15.7l2.6-2.6l-0.9,9.7L61.7,83c0,19.7,5.8,18.2,5.8,18.2l3-11.5l4.3,4.3
		v6.1h3.7l-5,5l24.3,1.8L85.5,86.8L85.5,93.2L85.5,93.2z"/>
</g>
</svg>
