<?xml version="1.0" encoding="utf-8"?>
<!-- Generator: Adobe Illustrator 28.1.0, SVG Export Plug-In . SVG Version: 6.00 Build 0)  -->
<svg version="1.1" id="Layer_1" xmlns="http://www.w3.org/2000/svg" xmlns:xlink="http://www.w3.org/1999/xlink" x="0px" y="0px"
	 viewBox="0 0 512 512" style="enable-background:new 0 0 512 512;" xml:space="preserve">
<style type="text/css">
	.st0{fill:#003366;stroke:#000000;stroke-miterlimit:10;}
	.st1{fill:#21A0CE;}
</style>
<path class="st0" d="M293.85,336.96h-74.87c-9.68,0-17.53-7.85-17.53-17.53V193.08c0-9.68,7.85-17.53,17.53-17.53h74.87
	c9.68,0,17.53,7.85,17.53,17.53v126.35C311.39,329.11,303.54,336.96,293.85,336.96z"/>
<g>
	<polygon class="st1" points="264.65,278.7 258.71,272.77 258.71,260.12 262.58,256.25 257.81,251.48 257.81,240 263.55,234.25 
		261.03,229.67 269.81,231.74 255.36,207.48 241.94,231.22 251.74,227.09 248.65,235.35 253.81,240.51 253.81,250.83 248.65,256 
		253.81,261.16 253.81,272.51 248.65,277.67 251.74,285.41 241.94,279.74 255.36,305.03 269.81,281.8 261.55,285.41 	"/>
	<path class="st1" d="M236.94,268l4.39-3.35c0,9.55,5.16,10.06,5.16,10.06l2.58-5.16v-8.77l-3.87,2.06l1.03-6.58
		c-1.81-0.39-0.65-6.19-0.65-6.19l3.48,3.48v-11.61l-4.9-4.65l-2.06,11.61l-4.65-4.65v-5.68l-8.26-2.06l8.26-3.1l-22.45-2.84
		l10.58,20.65v-8.26l3.1,5.68c11.1-2.84,10.06,1.55,10.06,1.55c-8,1.29-13.42,6.06-13.42,6.06c0,4.77,12.52,6.45,12.52,6.45
		l-2.97,2.97l-5.42-1.55l-4.9,5.16v-8.26l-11.35,20.9l24-2.06l-7.23-5.16h6.97V268z"/>
	<path class="st1" d="M286.45,268.25l-3.35-3.35h-5.42l-3.35-2.32l12.13-5.68v-2.58l-12.13-3.61l2.06-2.06h6.97l4.13-5.94v8.77
		l11.1-20.9l-22.19,2.58v3.1l6.45,1.81h-7.74v7.23l-4.13,1.81l-3.61-8.26c-7.74,7.74-2.84,15.74-2.84,15.74l2.58-2.58l-0.9,9.68
		l-3.61-3.61c0,19.74,5.81,18.19,5.81,18.19l2.97-11.48l4.26,4.26v6.06h3.74l-5.03,5.03l24.26,1.81l-12.13-20.13V268.25z"/>
</g>
</svg>
