<?xml version="1.0" encoding="utf-8"?>
<!-- Generator: Adobe Illustrator 28.1.0, SVG Export Plug-In . SVG Version: 6.00 Build 0)  -->
<svg version="1.1" id="Layer_1" xmlns="http://www.w3.org/2000/svg" xmlns:xlink="http://www.w3.org/1999/xlink" x="0px" y="0px"
	 viewBox="0 0 512 512" style="enable-background:new 0 0 512 512;" xml:space="preserve">
<style type="text/css">
	.st0{fill:#666600;stroke:#000000;stroke-miterlimit:10;}
	.st1{fill:#FCDE00;}
</style>
<path class="st0" d="M294.08,336.96h-74.87c-9.68,0-17.53-7.85-17.53-17.53V193.08c0-9.68,7.85-17.53,17.53-17.53h74.87
	c9.68,0,17.53,7.85,17.53,17.53v126.35C311.62,329.11,303.77,336.96,294.08,336.96z"/>
<g>
	<path class="st1" d="M248.02,267.92c0,0-14.34,3.53-15.22,15.22c0,0,5.3,0.39,10.51-4.81
		C248.51,273.13,248.02,267.92,248.02,267.92z"/>
	<path class="st1" d="M267.52,267.92c0,0,2.88,14.48,14.51,15.89c0,0,0.63-5.28-4.33-10.71S267.52,267.92,267.52,267.92z"/>
	<path class="st1" d="M225.5,290.84c0,0,2.52-0.39,4.65-2.52c2.13-2.13,0-5.03,0-5.03S222.02,284.84,225.5,290.84z"/>
	<path class="st1" d="M242.32,262.67l-2.79-0.79c5.65,0,9.47-1.2,9.47-1.2c0-5.53-9.47-7.56-9.47-7.56l4.17,0.91
		c5.3-0.98,1.37-3.09,1.37-3.09c-9.11-9.11-26.9-12.62-26.9-12.62c-1.27,3.94,6.34,8.18,10.75,10.27l-2.37-1.04
		c-12.04-1.37-0.92,4.78-0.92,4.78l-11.78,0.52c-4.52-1.18-7.36,0-7.36,0c-6.38,4.71,0.09,5.56,0.09,5.56
		c-1.8,1.8,23.25,2.26,23.25,2.26h-16.38c-10.58,2.55,0.79,7.24,0.79,7.24l25.29-1.52C244.79,263.85,242.32,262.67,242.32,262.67z"
		/>
	<path class="st1" d="M309,255.4c-7.66-5.5-19.9-2.28-19.9-2.28c7.99-2.28,3.41-6.36,3.41-6.36l-8.94,2.36
		c15.02-5.5,14.04-9.43,14.04-9.43c-9.82-2.36-28.08,11.24-28.08,11.24c-1.21,0.87,0.2,2.24,0.2,2.24c11.98-1.24-0.2,3.21-0.2,3.21
		c-7.95,2.45,0,5.5,0,5.5h5.27c-2.96,2.96,0,4.52,0,4.52c34.33,1.77,29.49-1.37,29.49-1.37c7.27-3.53-18.59-5.5-18.59-5.5h16.24
		C312.73,257.76,309,255.4,309,255.4z"/>
	<path class="st1" d="M255.31,246.98v7.86c5.89,8.05,6.28,0,6.28,0v-10.41c0,0,0,8.84,3.14,7.66c3.14-1.18,5.5-32.8,5.5-32.8
		c-2.55-7.86-5.7-2.16-5.7-2.16l-1.27,14.34V213.7c0-4.61-2.07-2.07-2.07-2.07v-5.69c-2.26-6.58-5.11-0.79-5.11-0.79v23.07
		l-1.57-8.21c-3.34-16.76-5.98,0-5.98,0l2.05,11.46l-2.05-6.48c-2.44-11.19-3.84,0-3.84,0c-1.28,1.28,6.28,21.6,6.28,21.6
		C254.13,253.27,255.31,246.98,255.31,246.98z"/>
	<path class="st1" d="M248.03,245.83c0,0-1.29-11.78-15.23-17.87C232.8,227.96,234.99,244.26,248.03,245.83z"/>
	<path class="st1" d="M277.19,304.68c0,0-9.68-0.77-13.55-12v-27.48c0,0,5.81-9.68-3.68-3.68l-2.66,1.35l-1.86-1.86
		c0,0-8.64-3.36-2.64,2.64v30.19l-5.86,5.86l-9.23,6.4c0,0-6.45,0.77,0,3.61h39.48C277.19,309.71,283,306.23,277.19,304.68z"/>
	<path class="st1" d="M283.62,284.72c0,0,1.4,8.16,7.47,4.78c0,0-0.34-2.52-2.43-4.69C286.56,282.64,283.62,284.72,283.62,284.72z"
		/>
	<path class="st1" d="M284.44,228.26c0,0-11.54,2.7-15.91,17.27C268.53,245.53,284.45,241.4,284.44,228.26z"/>
</g>
</svg>
