<?xml version="1.0" encoding="utf-8"?>
<!-- Generator: Adobe Illustrator 28.1.0, SVG Export Plug-In . SVG Version: 6.00 Build 0)  -->
<svg version="1.1" id="Layer_1" xmlns="http://www.w3.org/2000/svg" xmlns:xlink="http://www.w3.org/1999/xlink" x="0px" y="0px"
	 viewBox="0 0 110.9 162.4" style="enable-background:new 0 0 110.9 162.4;" xml:space="preserve">
<style type="text/css">
	.st0{fill:#666600;stroke:#000000;stroke-miterlimit:10;}
	.st1{fill:#FCDE00;}
</style>
<path class="st0" d="M92.9,161.9H18c-9.7,0-17.5-7.9-17.5-17.5V18C0.5,8.3,8.4,0.5,18,0.5h74.9c9.7,0,17.5,7.9,17.5,17.5v126.3
	C110.4,154.1,102.6,161.9,92.9,161.9z"/>
<g>
	<path class="st1" d="M46.8,92.9c0,0-14.3,3.5-15.2,15.2c0,0,5.3,0.4,10.5-4.8C47.3,98.1,46.8,92.9,46.8,92.9z"/>
	<path class="st1" d="M66.3,92.9c0,0,2.9,14.5,14.5,15.9c0,0,0.6-5.3-4.3-10.7S66.3,92.9,66.3,92.9z"/>
	<path class="st1" d="M24.3,115.8c0,0,2.5-0.4,4.6-2.5c2.1-2.1,0-5,0-5S20.8,109.8,24.3,115.8z"/>
	<path class="st1" d="M41.1,87.6l-2.8-0.8c5.6,0,9.5-1.2,9.5-1.2c0-5.5-9.5-7.6-9.5-7.6l4.2,0.9c5.3-1,1.4-3.1,1.4-3.1
		C34.8,66.8,17,63.3,17,63.3c-1.3,3.9,6.3,8.2,10.8,10.3l-2.4-1c-12-1.4-0.9,4.8-0.9,4.8l-11.8,0.5c-4.5-1.2-7.4,0-7.4,0
		c-6.4,4.7,0.1,5.6,0.1,5.6c-1.8,1.8,23.2,2.3,23.2,2.3H12.3c-10.6,2.5,0.8,7.2,0.8,7.2l25.3-1.5C43.6,88.8,41.1,87.6,41.1,87.6z"/>
	<path class="st1" d="M107.8,80.3c-7.7-5.5-19.9-2.3-19.9-2.3c8-2.3,3.4-6.4,3.4-6.4l-8.9,2.4c15-5.5,14-9.4,14-9.4
		c-9.8-2.4-28.1,11.2-28.1,11.2c-1.2,0.9,0.2,2.2,0.2,2.2c12-1.2-0.2,3.2-0.2,3.2c-8,2.5,0,5.5,0,5.5h5.3c-3,3,0,4.5,0,4.5
		c34.3,1.8,29.5-1.4,29.5-1.4c7.3-3.5-18.6-5.5-18.6-5.5h16.2C111.6,82.7,107.8,80.3,107.8,80.3z"/>
	<path class="st1" d="M54.1,71.9v7.9c5.9,8,6.3,0,6.3,0V69.4c0,0,0,8.8,3.1,7.7s5.5-32.8,5.5-32.8c-2.5-7.9-5.7-2.2-5.7-2.2
		l-1.3,14.3V38.6c0-4.6-2.1-2.1-2.1-2.1v-5.7c-2.3-6.6-5.1-0.8-5.1-0.8v23.1L53.3,45c-3.3-16.8-6,0-6,0l2.1,11.5l-2.1-6.5
		c-2.4-11.2-3.8,0-3.8,0c-1.3,1.3,6.3,21.6,6.3,21.6C53,78.2,54.1,71.9,54.1,71.9z"/>
	<path class="st1" d="M46.9,70.8c0,0-1.3-11.8-15.2-17.9C31.6,52.9,33.8,69.2,46.9,70.8z"/>
	<path class="st1" d="M76,129.6c0,0-9.7-0.8-13.5-12V90.1c0,0,5.8-9.7-3.7-3.7l-2.7,1.4L54.3,86c0,0-8.6-3.4-2.6,2.6v30.2l-5.9,5.9
		l-9.2,6.4c0,0-6.4,0.8,0,3.6H76C76,134.7,81.8,131.2,76,129.6z"/>
	<path class="st1" d="M82.4,109.7c0,0,1.4,8.2,7.5,4.8c0,0-0.3-2.5-2.4-4.7C85.4,107.6,82.4,109.7,82.4,109.7z"/>
	<path class="st1" d="M83.3,53.2c0,0-11.5,2.7-15.9,17.3C67.4,70.5,83.3,66.3,83.3,53.2z"/>
</g>
</svg>
