<?xml version="1.0" encoding="utf-8"?>
<!-- Generator: Adobe Illustrator 28.1.0, SVG Export Plug-In . SVG Version: 6.00 Build 0)  -->
<svg version="1.1" id="Layer_1" xmlns="http://www.w3.org/2000/svg" xmlns:xlink="http://www.w3.org/1999/xlink" x="0px" y="0px"
	 viewBox="0 0 110.9 162.4" style="enable-background:new 0 0 110.9 162.4;" xml:space="preserve">
<style type="text/css">
	.st0{fill:#330033;stroke:#000000;stroke-miterlimit:10;}
	.st1{fill:#F237EC;}
</style>
<path class="st0" d="M92.9,161.9H18c-9.7,0-17.5-7.9-17.5-17.5V18C0.5,8.3,8.4,0.5,18,0.5h74.9c9.7,0,17.5,7.9,17.5,17.5v126.3
	C110.4,154.1,102.6,161.9,92.9,161.9z"/>
<path class="st1" d="M66.9,100.5l-6.5,16.2l6.2-6.2L69.4,98L74.8,74l0.6-2.7l6.8,19.1v-9.7l4.5-4.5l-4.6-9.6l-9.3-1.6l1.5-8.8
	L61.7,36l19.4,19.4V60l19,8.1l-8.1,8.1c0,6.4-4.6,25.7-4.6,25.7L76.4,87.4l-4.6,22.7l7.2,1.5l-17.5,8.8l-5.2,5.2l-11.4-11.4
	l-17-12.1l9.3-0.1c-1.9,1.9,0-14.6,0-14.6L31,76.3l-8.8,15.2l-5.1-17.6l-6.2-4.1l9.3-3.6l7.2-4.1L45,40.4L33.2,66.7h-8.1v9.6
	l11.4-12.8L39,85.7l7.2,7.2L44.4,105l3.9,3.9l8.9-16.3l-8.5-8.5c0,0,6.4-10.3,3.1-13.6l-7.7,3.9l11.4-47v36.9c0,0,10.6,0.8,10.6-2.3
	c0,0-6.6,18.2-6.6,16.3l8.9,13.2"/>
</svg>
