<?xml version="1.0" encoding="utf-8"?>
<!-- Generator: Adobe Illustrator 28.1.0, SVG Export Plug-In . SVG Version: 6.00 Build 0)  -->
<svg version="1.1" id="Layer_1" xmlns="http://www.w3.org/2000/svg" xmlns:xlink="http://www.w3.org/1999/xlink" x="0px" y="0px"
	 viewBox="0 0 512 512" style="enable-background:new 0 0 512 512;" xml:space="preserve">
<style type="text/css">
	.st0{fill:#330033;stroke:#000000;stroke-miterlimit:10;}
	.st1{fill:#F237EC;}
</style>
<path class="st0" d="M293.85,336.96h-74.87c-9.68,0-17.53-7.85-17.53-17.53V193.08c0-9.68,7.85-17.53,17.53-17.53h74.87
	c9.68,0,17.53,7.85,17.53,17.53v126.35C311.39,329.11,303.54,336.96,293.85,336.96z"/>
<path class="st1" d="M267.84,275.59l-6.46,16.25l6.19-6.19l2.82-12.62l5.36-23.95l0.59-2.66l6.84,19.1v-9.68l4.52-4.52l-4.65-9.55
	l-9.29-1.55l1.55-8.77l-12.65-20.39l19.35,19.35v4.65l18.97,8.13l-8.13,8.13c0,6.45-4.65,25.68-4.65,25.68l-10.84-14.58l-4.65,22.71
	l7.23,1.55l-17.55,8.77l-5.16,5.16l-11.35-11.35l-17.03-12.11l9.29-0.15c-1.87,1.87,0-14.58,0-14.58l-6.19-11.1l-8.77,15.23
	L218.03,249l-6.19-4.13l9.29-3.61l7.23-4.13l17.55-21.68l-11.74,26.32h-8.13v9.55l11.42-12.84l2.52,22.26l7.16,7.16l-1.74,12.19
	l3.87,3.87l8.9-16.26l-8.52-8.52c0,0,6.39-10.26,3.1-13.55l-7.74,3.87l11.42-46.97v36.9c0,0,10.65,0.77,10.65-2.32
	c0,0-6.58,18.19-6.58,16.26l8.9,13.16"/>
</svg>
