<?xml version="1.0" encoding="utf-8"?>
<!-- Generator: Adobe Illustrator 28.1.0, SVG Export Plug-In . SVG Version: 6.00 Build 0)  -->
<svg version="1.1" id="Layer_1" xmlns="http://www.w3.org/2000/svg" xmlns:xlink="http://www.w3.org/1999/xlink" x="0px" y="0px"
	 viewBox="0 0 110.9 162.4" style="enable-background:new 0 0 110.9 162.4;" xml:space="preserve">
<style type="text/css">
	.st0{fill:#333333;stroke:#000000;stroke-miterlimit:10;}
	.st1{fill:#D3C4C2;}
</style>
<path class="st0" d="M92.9,161.9H18c-9.7,0-17.5-7.9-17.5-17.5V18C0.5,8.3,8.4,0.5,18,0.5h74.9c9.7,0,17.5,7.9,17.5,17.5v126.3
	C110.4,154.1,102.6,161.9,92.9,161.9z"/>
<g>
	<polygon class="st1" points="53.4,39.5 56.7,39.5 67.1,50.8 70.7,47.1 55.2,31.6 53.6,31.6 39.1,47.1 42.1,50.8 	"/>
	<path class="st1" d="M107.8,80H90.2L83,72.7l-3.9,3.7c7.5,5.8,4.6,6.4,4.6,6.4H71.9v1.8h12.1c0,4.7-7.5,8.5-7.5,8.5l4.5,3.4
		c6.3,0,9.4-9.4,9.4-9.4s15,0,17.3,0C110.1,87.2,107.8,80,107.8,80z"/>
	<polygon class="st1" points="46.9,71.1 46.9,67.1 42.5,62.6 41.7,58.3 43.6,56.4 39.1,50.8 32.4,57.2 22.6,47.4 17.2,53.8 26,62.6 
		20.2,68.3 24.7,72.7 27.1,70.3 33.3,76.5 39.1,76.5 75,112.4 84.6,113.4 83.4,104.3 	"/>
	<path class="st1" d="M32.2,92.3l-4.6-4.6c0,0-3.4-2.9,2.8-2.9h8.8v-1.9H28.8c0,0-5,0.5-0.3-4.2l3.4-2.2l-5.4-3.7c0,0-7,6.3-5.7,7.6
		H3.7c0,0-3.9,3.7,0,7.6H20l8.5,8.7C28.5,96.7,35.8,98.1,32.2,92.3z"/>
	<polygon class="st1" points="69.1,57.4 69.1,61 63.4,65.4 63.4,69.5 58.1,74.9 65.5,82.2 71.4,76.3 77.1,76.3 83.8,69.5 87.7,71.9 
		92.4,67.2 84.8,61 93.6,52.2 87.5,45.8 78.9,56.1 72.1,49.1 66.5,54.8 	"/>
	<polygon class="st1" points="44.4,86.3 24.5,105.9 22.7,115.2 33.3,112.8 53,93.8 	"/>
	<polygon class="st1" points="54.8,126.1 69.9,111.9 63.5,105.5 55.9,113.2 55.2,100.6 53.3,100.6 53.3,113.2 45.7,105.6 
		39.3,110.7 	"/>
	<polygon class="st1" points="55.2,129.7 53.4,129.7 38.3,116 34,118.1 53.4,137.4 75.8,118.5 72.2,114.9 	"/>
	<polygon class="st1" points="54.9,66.5 54.9,52.8 60.5,58.4 66.5,52.6 54.6,41.2 42.5,52.6 47.7,57.8 53,52.4 53,66.5 	"/>
</g>
</svg>
