<?xml version="1.0" encoding="utf-8"?>
<!-- Generator: Adobe Illustrator 28.1.0, SVG Export Plug-In . SVG Version: 6.00 Build 0)  -->
<svg version="1.1" id="Layer_1" xmlns="http://www.w3.org/2000/svg" xmlns:xlink="http://www.w3.org/1999/xlink" x="0px" y="0px"
	 viewBox="0 0 512 512" style="enable-background:new 0 0 512 512;" xml:space="preserve">
<style type="text/css">
	.st0{fill:#333333;stroke:#000000;stroke-miterlimit:10;}
	.st1{fill:#D3C4C2;}
</style>
<path class="st0" d="M293.93,336.96h-74.87c-9.68,0-17.53-7.85-17.53-17.53V193.08c0-9.68,7.85-17.53,17.53-17.53h74.87
	c9.68,0,17.53,7.85,17.53,17.53v126.35C311.46,329.11,303.61,336.96,293.93,336.96z"/>
<g>
	<polygon class="st1" points="254.39,214.54 257.75,214.54 268.1,225.82 271.72,222.2 256.2,206.68 254.65,206.68 240.17,222.2 
		243.12,225.82 	"/>
	<path class="st1" d="M308.83,255.02h-17.55l-7.23-7.23l-3.87,3.72c7.52,5.75,4.65,6.42,4.65,6.42h-11.87v1.79h12.13
		c0,4.71-7.48,8.53-7.48,8.53l4.52,3.4c6.32,0,9.42-9.42,9.42-9.42s14.97,0,17.29,0C311.16,262.25,308.83,255.02,308.83,255.02z"/>
	<polygon class="st1" points="247.93,246.19 247.93,242.1 243.49,237.66 242.76,233.31 244.62,231.45 240.17,225.82 233.45,232.3 
		223.61,222.45 218.2,228.84 226.99,237.66 221.28,243.37 225.7,247.79 228.15,245.34 234.34,251.52 240.17,251.52 276.05,287.41 
		285.68,288.42 284.38,279.33 	"/>
	<path class="st1" d="M233.19,267.33l-4.6-4.6c0,0-3.42-2.9,2.79-2.9h8.79v-1.87h-10.34c0,0-5.02,0.55-0.26-4.22l3.36-2.22
		l-5.43-3.73c0,0-7.04,6.3-5.69,7.64h-17.06c0,0-3.88,3.73,0,7.61h16.29l8.53,8.66C229.57,271.71,236.81,273.16,233.19,267.33z"/>
	<polygon class="st1" points="270.12,232.47 270.12,236.04 264.43,240.49 264.43,244.57 259.09,249.91 266.48,257.29 272.45,251.32 
		278.11,251.32 284.86,244.57 288.74,246.95 293.39,242.3 285.86,236.04 294.68,227.22 288.48,220.84 279.95,231.18 273.12,224.2 
		267.48,229.83 	"/>
	<polygon class="st1" points="245.47,261.4 225.57,280.92 223.76,290.23 234.36,287.9 254.01,268.85 	"/>
	<polygon class="st1" points="255.82,301.19 270.88,286.92 264.54,280.58 256.88,288.24 256.22,275.64 254.33,275.64 254.33,288.24 
		246.69,280.6 240.37,285.8 	"/>
	<polygon class="st1" points="256.27,304.72 254.38,304.72 239.29,291.04 235.03,293.18 254.38,312.43 276.83,293.56 273.24,289.96 
			"/>
	<polygon class="st1" points="255.94,241.59 255.94,227.88 261.5,233.44 267.48,227.63 255.62,216.25 243.53,227.63 248.71,232.8 
		254.01,227.5 254.01,241.59 	"/>
</g>
</svg>
