<?xml version="1.0" encoding="utf-8"?>
<!-- Generator: Adobe Illustrator 28.1.0, SVG Export Plug-In . SVG Version: 6.00 Build 0)  -->
<svg version="1.1" id="Layer_1" xmlns="http://www.w3.org/2000/svg" xmlns:xlink="http://www.w3.org/1999/xlink" x="0px" y="0px"
	 viewBox="0 0 512 512" style="enable-background:new 0 0 512 512;" xml:space="preserve">
<style type="text/css">
	.st0{fill:#330033;stroke:#000000;stroke-miterlimit:10;}
	.st1{fill:#7043D9;}
	.st2{fill:#330033;}
</style>
<path class="st0" d="M293.85,336.96h-74.87c-9.68,0-17.53-7.85-17.53-17.53V193.08c0-9.68,7.85-17.53,17.53-17.53h74.87
	c9.68,0,17.53,7.85,17.53,17.53v126.35C311.39,329.11,303.54,336.96,293.85,336.96z"/>
<path class="st1" d="M260.27,207.92l0,30.97c0.47,1.57,2.92,3.05,2.05,2.61c-2.87-1.48,13.46,0.53,13.61,13.17c0,0.23,0-0.24,0,0
	c-0.01,1.87,2.13,9.67-5.28,14.23c0,0-2.89,3.33-8.74,2.77c-1.48-0.14-2.68,0.88-2.68,2.36v1.72c0,1.82,1.93,2.99,3.54,2.15
	c4.95-2.59,13.56-7.86,15.56-14.03c0,0,5.16-11.35-4.13-20.65c0,0-4.07-3.93-10.05-5.57c-1.06-0.29-1.82-1.24-1.82-2.34v-5.62
	c0-1.65,1.6-2.82,3.17-2.3c6.93,2.28,23,8.93,25.22,22.03c0,0,6.37,19.37-8.74,29.99c-0.19,0.13-0.4,0.23-0.61,0.31
	c-2.59,0.88-19.98,7.31-22.13,21.11l0,0l-2.82,6.96c-0.2,3.09-2.35,2.24-2.41-0.85l-0.65-32.94c-0.03-1.36-1.07-2.46-2.42-2.61
	c-3.82-0.43-12.81-4.11-13.29-15.91c-0.15-3.77-0.1-0.54,0.04-1.08c0.99-3.9,3.4-10.75,13.91-12.86c1.14-0.23,1.97-1.21,1.97-2.37
	l0-1.38c0-1.9-2.08-3.05-3.7-2.05c-4.71,2.9-12.53,8.72-15.07,16.57c-0.05,0.14-0.08,0.28-0.1,0.42
	c-0.24,1.78-1.42,13.76,8.29,20.68c0,0,0.66,0.89,6.92,3.07c0.95,0.33,1.61,1.22,1.63,2.23l0.14,6.09c0.04,1.62-1.49,2.82-3.06,2.39
	c-7.14-1.93-24.28-8.6-27.8-28.58c-0.02-0.12-0.03-0.24-0.04-0.37c-0.03-2,0.19-19,17.35-27.12c0.13-0.06,0.25-0.11,0.39-0.14
	c1.54-0.41,12.3-3.63,14.24-14.38c0,0,0.62-6.15,3.03-9.99C257.09,204.57,260.27,205.49,260.27,207.92z"/>
<path class="st2" d="M252.26,245.74v22.07c0,0-13.16-3.4-10.32-12.84C241.94,254.97,243.49,245.74,252.26,245.74z"/>
<path class="st2" d="M260.68,267.86l-0.34-22.07c0,0,13.21,3.2,10.52,12.68C270.85,258.47,269.45,267.73,260.68,267.86z"/>
</svg>
