<?xml version="1.0" encoding="utf-8"?>
<!-- Generator: Adobe Illustrator 28.1.0, SVG Export Plug-In . SVG Version: 6.00 Build 0)  -->
<svg version="1.1" id="Layer_1" xmlns="http://www.w3.org/2000/svg" xmlns:xlink="http://www.w3.org/1999/xlink" x="0px" y="0px"
	 viewBox="0 0 110.9 162.4" style="enable-background:new 0 0 110.9 162.4;" xml:space="preserve">
<style type="text/css">
	.st0{fill:#330033;stroke:#000000;stroke-miterlimit:10;}
	.st1{fill:#7043D9;}
	.st2{fill:#330033;}
</style>
<path class="st0" d="M92.9,161.9H18c-9.7,0-17.5-7.9-17.5-17.5V18C0.5,8.3,8.4,0.5,18,0.5h74.9c9.7,0,17.5,7.9,17.5,17.5v126.3
	C110.4,154.1,102.6,161.9,92.9,161.9z"/>
<path class="st1" d="M59.3,32.9v31c0.5,1.6,2.9,3.1,2,2.6C58.5,65,74.8,67,75,79.6c0,0.2,0-0.2,0,0c0,1.9,2.1,9.7-5.3,14.2
	c0,0-2.9,3.3-8.7,2.8c-1.5-0.1-2.7,0.9-2.7,2.4v1.7c0,1.8,1.9,3,3.5,2.1c5-2.6,13.6-7.9,15.6-14c0,0,5.2-11.4-4.1-20.6
	c0,0-4.1-3.9-10-5.6c-1.1-0.3-1.8-1.2-1.8-2.3v-5.6c0-1.6,1.6-2.8,3.2-2.3c6.9,2.3,23,8.9,25.2,22c0,0,6.4,19.4-8.7,30
	c-0.2,0.1-0.4,0.2-0.6,0.3c-2.6,0.9-20,7.3-22.1,21.1l0,0l-2.8,7c-0.2,3.1-2.4,2.2-2.4-0.9l-0.6-32.9c0-1.4-1.1-2.5-2.4-2.6
	c-3.8-0.4-12.8-4.1-13.3-15.9c-0.1-3.8-0.1-0.5,0-1.1c1-3.9,3.4-10.8,13.9-12.9c1.1-0.2,2-1.2,2-2.4v-1.4c0-1.9-2.1-3.1-3.7-2.1
	c-4.7,2.9-12.5,8.7-15.1,16.6c-0.1,0.1-0.1,0.3-0.1,0.4c-0.2,1.8-1.4,13.8,8.3,20.7c0,0,0.7,0.9,6.9,3.1c0.9,0.3,1.6,1.2,1.6,2.2
	l0.1,6.1c0,1.6-1.5,2.8-3.1,2.4c-7.1-1.9-24.3-8.6-27.8-28.6c0-0.1,0-0.2,0-0.4c0-2,0.2-19,17.4-27.1c0.1-0.1,0.2-0.1,0.4-0.1
	c1.5-0.4,12.3-3.6,14.2-14.4c0,0,0.6-6.1,3-10C56.1,29.5,59.3,30.4,59.3,32.9z"/>
<path class="st2" d="M51.3,70.7v22.1c0,0-13.2-3.4-10.3-12.8C41,79.9,42.5,70.7,51.3,70.7z"/>
<path class="st2" d="M59.7,92.8l-0.3-22.1c0,0,13.2,3.2,10.5,12.7C69.9,83.4,68.5,92.7,59.7,92.8z"/>
</svg>
