<?xml version="1.0" encoding="utf-8"?>
<!-- Generator: Adobe Illustrator 28.1.0, SVG Export Plug-In . SVG Version: 6.00 Build 0)  -->
<svg version="1.1" id="Layer_1" xmlns="http://www.w3.org/2000/svg" xmlns:xlink="http://www.w3.org/1999/xlink" x="0px" y="0px"
	 viewBox="0 0 512 512" style="enable-background:new 0 0 512 512;" xml:space="preserve">
<style type="text/css">
	.st0{fill:#003300;stroke:#000000;stroke-miterlimit:10;}
	.st1{fill:#02D172;}
</style>
<path class="st0" d="M293.85,336.96h-74.87c-9.68,0-17.53-7.85-17.53-17.53V193.08c0-9.68,7.85-17.53,17.53-17.53h74.87
	c9.68,0,17.53,7.85,17.53,17.53v126.35C311.39,329.11,303.54,336.96,293.85,336.96z"/>
<g>
	<path class="st1" d="M248.86,234.47l3.87,3.87l8.77,2.06c7.23,0,7.25,12.39,7.25,12.39l5.13-5.13c4.65,0,4.13-13.45,4.13-13.45
		c-12.9-12.9-22.9-2.9-22.9-2.9l-4.45-4.45c-6.71-12.52-25.29,6.32-25.29,6.32c-17.03,22.19-8.77,34.58-8.77,34.58
		c0-6.19,8.77-22.6,8.77-22.6C235.92,234.61,248.86,234.47,248.86,234.47z"/>
	<path class="st1" d="M299.21,241.35c0,0-0.58-1.16-1.74,2.52c0,0,1.55,12-10.65,22.45c0,0,0.97,2.9-11.23,2.9
		c0,0,3.48,10.08-9.68,15.68c0,0-11.81,6.58-12.77-7.35c0,0,3.87-8.13-3.87-6.58c0,0-13.16,2.71-9.48-5.81c0,0,2.52-8.9,16.06-8.13
		c0,0-9.27,6.91-0.33,11.74c0.29,0.15,0.59,0.31,0.91,0.46c10.45,4.84,32.52-13.55,32.52-13.55s10.45-15.48,5.81-29.61
		c0,0-7.65-14.23-14.52-17.81c0,0,11.68,9.59,9.29,29.23c0,0-4.06,12.19-13.35,15.48c0,0-1.55,5.03-12,7.55c0,0-6.56,1.33-2.41-5.03
		l2.15-1.48v-4.88c0,0-8.33-11.17-28.39-2.5c0,0-15.48,12.28-11.87,29.31c0,0-3.1,9.55,16.52,7.35l6.49-5.81
		c0,0,3.83,19.53,17.25,17.25c0,0,10.84,1.59,18.58-11.44v-3.61c0,0,13.94-4.46,13.94-10.55
		C296.44,269.11,303.08,259.35,299.21,241.35z"/>
</g>
</svg>
