<?xml version="1.0" encoding="utf-8"?>
<!-- Generator: Adobe Illustrator 28.1.0, SVG Export Plug-In . SVG Version: 6.00 Build 0)  -->
<svg version="1.1" id="Layer_1" xmlns="http://www.w3.org/2000/svg" xmlns:xlink="http://www.w3.org/1999/xlink" x="0px" y="0px"
	 viewBox="0 0 110.9 162.4" style="enable-background:new 0 0 110.9 162.4;" xml:space="preserve">
<style type="text/css">
	.st0{fill:#003300;stroke:#000000;stroke-miterlimit:10;}
	.st1{fill:#02D172;}
</style>
<path class="st0" d="M92.9,161.9H18c-9.7,0-17.5-7.9-17.5-17.5V18C0.5,8.3,8.4,0.5,18,0.5h74.9c9.7,0,17.5,7.9,17.5,17.5v126.3
	C110.4,154.1,102.6,161.9,92.9,161.9z"/>
<g>
	<path class="st1" d="M47.9,59.4l3.9,3.9l8.8,2.1c7.2,0,7.2,12.4,7.2,12.4l5.1-5.1c4.6,0,4.1-13.4,4.1-13.4
		c-12.9-12.9-22.9-2.9-22.9-2.9l-4.4-4.4c-6.7-12.5-25.3,6.3-25.3,6.3c-17,22.2-8.8,34.6-8.8,34.6c0-6.2,8.8-22.6,8.8-22.6
		C35,59.6,47.9,59.4,47.9,59.4z"/>
	<path class="st1" d="M98.3,66.3c0,0-0.6-1.2-1.7,2.5c0,0,1.5,12-10.6,22.4c0,0,1,2.9-11.2,2.9c0,0,3.5,10.1-9.7,15.7
		c0,0-11.8,6.6-12.8-7.4c0,0,3.9-8.1-3.9-6.6c0,0-13.2,2.7-9.5-5.8c0,0,2.5-8.9,16.1-8.1c0,0-9.3,6.9-0.3,11.7
		c0.3,0.1,0.6,0.3,0.9,0.5C65.9,99,88,80.6,88,80.6S98.4,65.1,93.8,51c0,0-7.6-14.2-14.5-17.8c0,0,11.7,9.6,9.3,29.2
		c0,0-4.1,12.2-13.4,15.5c0,0-1.5,5-12,7.5c0,0-6.6,1.3-2.4-5L63,79v-4.9c0,0-8.3-11.2-28.4-2.5c0,0-15.5,12.3-11.9,29.3
		c0,0-3.1,9.5,16.5,7.4l6.5-5.8c0,0,3.8,19.5,17.2,17.2c0,0,10.8,1.6,18.6-11.4v-3.6c0,0,13.9-4.5,13.9-10.5
		C95.5,94.1,102.1,84.3,98.3,66.3z"/>
</g>
</svg>
